<svg width="585" height="441" viewBox="0 0 585 441" fill="none" xmlns="http://www.w3.org/2000/svg">
<path d="M100.285 417.357C100.285 417.357 27.4569 365.495 6.49127 277.219C-14.475 188.943 17.525 81.9087 78.2151 27.8394C138.905 -26.2286 248.146 10.1847 296.698 55.426C345.249 100.667 345.249 100.667 345.249 100.667C345.249 100.667 391.594 126.046 452.285 123.839C512.974 121.633 567.042 204.391 581.388 269.495C595.732 334.598 561.525 420.666 561.525 420.666L100.285 417.357Z" fill="#D1EBFA"/>
<path d="M58.9048 425.188C43.9553 414.358 13.0813 386.864 3.18075 339.012C-0.928051 319.153 1.76355 299.822 7.59488 281.652C22.1798 337.633 57.348 378.445 79.9282 399.978H58.9048V425.188ZM569.732 399.978H568.633C574.004 382.669 580.908 356.378 583.674 328.426C585.308 342.996 583.944 358.106 579.18 375.426C576.529 385.068 573.245 393.184 569.732 399.978ZM549.252 192.636C525.146 154.268 491.192 123.797 454.665 123.797C453.874 123.797 453.077 123.812 452.285 123.84C449.754 123.932 447.254 123.976 444.777 123.976C387.816 123.976 345.249 100.668 345.249 100.668C345.249 100.668 345.249 100.668 296.698 55.4262C294.066 52.9742 291.253 50.5435 288.282 48.1569C315.492 34.0822 347.733 3.97151 394.694 3.97151C401.104 3.97151 407.785 4.53151 414.768 5.77151C483.18 17.9088 549.388 54.3222 552.698 133.772C553.822 160.766 551.636 178.844 549.252 192.636Z" fill="#D1EAF9"/>
<path d="M568.634 399.979H473.478C482.719 375.416 493.004 340.848 489.967 314.736C484.706 269.496 459.446 226.461 407.872 193.357C388.328 180.812 357.6 171.595 324.163 169.609C326.204 157.149 326.295 144.012 325.664 137.081C324.562 124.944 318.768 115.012 318.768 115.012C318.768 115.012 307.876 108.835 293.954 108.835C289.74 108.835 285.248 109.401 280.699 110.875C261.112 117.219 254.216 147.564 256.423 163.564C257.052 168.124 258.191 172.043 259.699 175.485C225.987 184.255 194.954 202.861 175.271 235.288C146.372 282.9 148.207 332.932 155.963 368.308V399.979H79.929C57.3488 378.445 22.1806 337.633 7.5957 281.652C20.5572 241.265 49.0316 206.6 52.8364 184.529C58.354 152.529 46.216 112.805 96.975 81.9092C147.732 51.0119 238.216 62.0465 272.423 54.3225C277.559 53.1625 282.819 50.9839 288.283 48.1572C291.254 50.5439 294.067 52.9745 296.699 55.4265C345.25 100.668 345.25 100.668 345.25 100.668C345.25 100.668 387.816 123.976 444.778 123.976C447.255 123.976 449.755 123.932 452.286 123.84C453.078 123.812 453.875 123.797 454.666 123.797C491.192 123.797 525.147 154.268 549.252 192.636C544.622 219.433 539.254 230.049 556.008 258.461C571.43 284.609 581.147 305.868 583.675 328.427C580.908 356.379 574.004 382.669 568.634 399.979Z" fill="#B0D6F2"/>
<path d="M473.478 399.979H380.83C382.371 394.432 386.078 374.048 386.078 374.048C386.078 374.048 354.63 347.105 352.975 342.691C351.871 339.748 352.423 285.22 347.733 260.116C343.043 235.012 336.975 229.955 324.286 223.703C311.171 217.24 291.733 211.196 291.733 211.196C291.733 211.196 295.595 220.116 299.181 241.081C302.769 262.048 306.078 297.357 306.906 321.633C307.657 343.644 308.179 391.279 308.271 399.979H269.262C269.925 393.751 272.529 368.429 271.319 365.772C270.787 364.599 257.913 363.921 242.309 363.529V263.979C242.309 263.979 226.441 262.871 209.173 262.871C193.057 262.871 175.721 263.836 168.929 267.564C154.861 275.288 155.963 302.048 155.963 302.048V368.308C148.207 332.932 146.373 282.9 175.271 235.288C194.954 202.861 225.987 184.255 259.699 175.485C259.85 175.828 260.003 176.167 260.161 176.5C259.054 185.297 256.877 201.755 255.871 203.564C254.493 206.047 254.493 206.047 254.493 206.047L247.595 210.737C247.595 210.737 260.837 229.496 277.113 232.529C279.323 232.943 281.207 233.12 282.814 233.12C293.039 233.12 292.009 225.909 292.009 225.909L289.526 220.668L291.691 201.911C293.389 202.173 295.114 202.316 296.834 202.316C303.983 202.316 311.053 199.873 315.733 193.633C319.994 187.952 322.63 178.972 324.163 169.609C357.601 171.595 388.329 180.812 407.873 193.357C459.446 226.461 484.706 269.496 489.967 314.736C493.005 340.848 482.719 375.416 473.478 399.979Z" fill="#95C3EB"/>
<path d="M536.286 260.207H476.79C473.11 260.207 470.123 257.222 470.123 253.54V223.839C470.123 220.158 473.11 217.172 476.79 217.172H536.286C539.967 217.172 542.952 220.158 542.952 223.839V253.54C542.952 257.222 539.967 260.207 536.286 260.207Z" fill="#599FDC"/>
<path d="M506.537 277.035L515.965 254.69H497.109L506.537 277.035Z" fill="#599FDC"/>
<path d="M506.312 231.301H523.343V233.793L531.693 228.978L523.343 224.165V226.657H506.312V231.301Z" fill="#293D8A"/>
<path d="M531.693 241.094H514.662V238.602L506.312 243.415L514.662 248.229V245.737H531.693V241.094Z" fill="white"/>
<path d="M495.858 245.474L495.047 245.77C495.047 245.77 492.52 242.885 491.208 239.742C489.896 236.601 489.851 232.764 489.851 232.764L490.444 232.516L486.842 223.897C486.2 224.398 485.588 225.044 485.094 225.88C483.056 229.324 483.258 234.609 485.308 239.773C487.358 244.936 489.55 249.541 493.55 252.437C495.91 254.146 497.932 254.445 499.503 254.197L495.858 245.474Z" fill="#293D8A"/>
<path d="M498.446 244.459L497.326 244.865L501.012 253.689C501.429 253.553 501.802 253.385 502.126 253.208C503.078 252.687 503.497 251.541 503.096 250.533L501.17 245.681C500.742 244.605 499.536 244.061 498.446 244.459Z" fill="#293D8A"/>
<path d="M489.659 222.387C489.206 222.549 488.713 222.771 488.217 223.063L491.894 231.865L493.131 231.348C494.206 230.9 494.726 229.676 494.302 228.592L492.369 223.629C491.95 222.552 490.747 221.993 489.659 222.387Z" fill="#293D8A"/>
<path d="M155.962 401.357V302.048C155.962 302.048 154.859 275.288 168.927 267.564C182.996 259.84 242.307 263.979 242.307 263.979V401.357H155.962Z" fill="#3A76C4"/>
<path d="M260.835 171.012C260.835 171.012 257.25 201.081 255.87 203.564C254.491 206.046 254.491 206.046 254.491 206.046L247.594 210.737C247.594 210.737 260.835 229.496 277.111 232.529C293.387 235.564 292.007 225.909 292.007 225.909L289.524 220.668L292.836 191.977C292.836 191.977 263.318 178.461 260.835 171.012Z" fill="#F57C83"/>
<path d="M239.043 213.219L249.802 208.528C249.802 208.528 256.699 219.838 272.699 226.46C288.699 233.08 288.975 229.218 289.802 226.46C290.63 223.701 289.526 220.666 289.526 220.666L290.71 211.008L297.108 213.14L319.319 392.804L262.216 395.562L239.043 213.219Z" fill="white"/>
<path d="M291.732 211.196C291.732 211.196 295.595 220.116 299.18 241.081C302.768 262.048 306.078 297.357 306.906 321.633C307.732 345.909 308.286 401.357 308.286 401.357C308.286 401.357 379.456 401.357 380.286 401.357C381.112 401.357 386.078 374.048 386.078 374.048C386.078 374.048 354.63 347.105 352.975 342.691C351.871 339.748 352.423 285.22 347.732 260.116C343.043 235.012 336.975 229.955 324.286 223.703C311.171 217.24 291.732 211.196 291.732 211.196Z" fill="#293D8A"/>
<path d="M329.248 369.748C328.88 369.748 328.582 369.449 328.582 369.081C328.582 367.109 328.231 339.087 327.894 311.987C327.554 284.883 327.203 256.856 327.203 254.875C327.203 254.505 327.502 254.208 327.87 254.208C328.238 254.208 328.536 254.505 328.536 254.875C328.536 256.847 328.887 284.869 329.226 311.969C329.564 339.073 329.915 367.1 329.915 369.081C329.915 369.449 329.618 369.748 329.248 369.748Z" fill="#788CBD"/>
<path d="M185.801 363.012L185.25 401.357H269.111C269.111 401.357 272.698 368.805 271.318 365.772C269.939 362.736 185.801 363.012 185.801 363.012Z" fill="#293D8A"/>
<path d="M290.868 209.037C287.227 207.701 282.552 205.49 279.135 202.736C273.148 197.909 269.313 192.16 266.828 186.52C269.595 189.665 272.656 192.386 275.732 195.01C279.628 198.333 285.473 200.942 291.691 201.909L290.868 209.037Z" fill="#945168"/>
<path d="M318.768 115.011C318.768 115.011 324.561 124.943 325.664 137.081C326.768 149.219 325.664 180.391 315.732 193.633C305.801 206.874 285.112 203.011 275.732 195.011C267.125 187.67 258.629 179.563 256.422 163.563C254.216 147.563 261.112 117.218 280.698 110.874C300.284 104.529 318.768 115.011 318.768 115.011Z" fill="#F57C83"/>
<path d="M343.654 384.014C343.654 384.014 342.68 384.014 341.2 383.974C340.854 383.96 340.467 383.974 340.066 383.96C338.64 383.92 336.907 383.882 335.16 383.828C334.774 383.814 334.374 383.8 333.987 383.787C332.254 383.747 330.774 383.96 329.387 383.882H329.347C329.054 383.867 328.627 383.907 328.28 383.92C328.107 383.935 327.947 383.947 327.84 383.935C327.04 383.787 326.88 383.602 326.014 383.215C324.894 382.707 309.732 379.322 297.399 379.4C285.08 379.454 274.027 380.294 272.227 378.787C270.414 377.254 269.32 361.775 279.84 360.76L292.774 365.667C292.774 365.667 322.307 362.162 333.134 370.147C343.987 378.134 343.654 384.014 343.654 384.014Z" fill="#F57C83"/>
<path d="M329.346 383.881C329.053 383.867 328.626 383.907 328.279 383.92C328.013 383.495 327.451 382.72 327.146 382.4C323.813 379 315.759 376.8 312.839 376.093C312.573 376.027 312.398 375.76 312.466 375.495C312.519 375.227 312.799 375.067 313.079 375.12C317.333 376.147 326.359 378.775 328.919 383.08C328.999 383.2 329.213 383.613 329.346 383.881Z" fill="#293D8A"/>
<path d="M335.165 383.828C334.778 383.819 334.378 383.808 333.991 383.785C330.351 377.148 324.397 375.243 317.038 372.876L316.602 372.731C316.35 372.645 316.197 372.361 316.285 372.097C316.37 371.845 316.641 371.692 316.918 371.779L317.341 371.923C325.122 374.42 331.383 376.427 335.165 383.828Z" fill="#293D8A"/>
<path d="M341.201 383.975C340.855 383.965 340.468 383.969 340.067 383.96C337.86 379.319 330.555 371.552 320.889 369.741C320.611 369.695 320.429 369.437 320.476 369.159C320.536 368.892 320.793 368.713 321.06 368.76C331.016 370.629 339.048 378.761 341.201 383.975Z" fill="#293D8A"/>
<path d="M263.042 149.909C263.042 149.909 269.112 147.012 273.388 138.875C277.664 130.737 277.112 123.427 277.112 123.427C277.112 123.427 284.836 122.185 296.422 125.633C308.008 129.081 321.801 133.772 333.388 127.151C344.974 120.529 344.974 109.909 339.318 105.496C332.985 100.552 320.422 103.564 320.422 103.564C320.422 103.564 325.249 98.8747 322.629 96.116C320.008 93.3573 310.492 96.944 310.492 96.944C310.492 96.944 298.905 87.7026 276.974 88.8053C255.042 89.9093 244.56 105.22 243.318 122.323C242.077 139.427 248.285 156.529 248.285 156.529L263.042 149.909Z" fill="#293D8A"/>
<path d="M307.96 178.045C307.706 178.045 307.441 178.038 307.16 178.026C305.536 177.964 303.494 177.696 302.101 176.824C301.689 176.565 301.845 175.892 302.35 175.892C302.352 175.892 302.352 175.892 302.353 175.892C303.22 175.896 304.066 176.157 304.932 176.222C305.736 176.281 306.549 176.316 307.354 176.353C307.822 176.374 308.377 176.417 308.942 176.417C309.789 176.417 310.654 176.321 311.27 175.913C313.964 174.13 308.728 171.93 307.62 171.114C305.302 169.406 305.768 166.457 306.01 163.928C306.324 160.676 306.293 157.118 307.536 154.054C307.625 153.836 307.854 153.72 308.066 153.72C308.306 153.72 308.526 153.868 308.498 154.185C308.148 158.089 307.245 161.942 307 165.865C306.896 167.497 306.776 169.257 308.236 170.302C309.289 171.057 310.569 171.417 311.613 172.19C312.518 172.862 313.421 173.941 313.26 175.144C313.118 176.213 312.246 176.844 311.346 177.29C310.138 177.89 309.176 178.045 307.96 178.045Z" fill="#945168"/>
<path d="M318.812 163.228C318.4 165.553 316.709 167.197 315.033 166.901C313.358 166.605 312.334 164.478 312.745 162.154C313.157 159.829 314.848 158.184 316.524 158.48C318.198 158.776 319.224 160.902 318.812 163.228Z" fill="#293D8A"/>
<path d="M297.705 161.385C297.332 163.894 295.565 165.709 293.757 165.441C291.949 165.171 290.786 162.919 291.16 160.411C291.533 157.902 293.301 156.086 295.109 156.355C296.916 156.625 298.078 158.877 297.705 161.385Z" fill="#293D8A"/>
<path d="M313.898 153.643C315.187 153.86 316.488 153.638 317.788 153.73C318.102 153.751 318.41 153.798 318.723 153.828C318.944 153.848 318.308 153.762 318.618 153.812L318.816 153.846C318.979 153.875 319.142 153.908 319.302 153.947C319.579 154.015 319.847 154.119 320.124 154.18C320.376 154.235 320.656 154.294 320.91 154.282C321.052 154.263 321.192 154.244 321.335 154.224L321.067 154.274L321.595 154.216C322.335 154.043 322.791 153.187 322.584 152.472C322.524 152.267 322.434 152.08 322.303 151.911L322.134 151.696L322.29 151.875L322.119 151.648C322.046 151.526 321.948 151.427 321.824 151.354L321.512 151.116C321.171 150.879 320.722 150.74 320.316 150.636C319.547 150.438 318.739 150.336 317.947 150.332C317.158 150.328 316.379 150.411 315.599 150.519C314.911 150.614 314.146 150.848 313.587 151.263C313.156 151.584 312.891 151.996 312.966 152.56C313.028 153.027 313.396 153.558 313.898 153.643Z" fill="#293D8A"/>
<path d="M299.183 149.952C299.008 149.848 298.83 149.757 298.644 149.673C298.488 149.603 298.062 149.379 298.384 149.555L298.03 149.365C297.495 149.096 296.94 148.916 296.363 148.769C295.104 148.448 293.779 148.367 292.488 148.503C291.111 148.648 289.854 148.981 288.66 149.7C288.492 149.803 288.319 149.902 288.179 150.042C288.084 150.162 287.991 150.283 287.9 150.405L287.979 150.286C287.611 150.543 287.396 150.964 287.4 151.41C287.403 151.838 287.626 152.195 287.998 152.401C288.447 152.652 288.874 152.532 289.338 152.414C289.104 152.414 288.871 152.414 288.639 152.414C289.022 152.472 289.291 152.488 289.678 152.403C289.692 152.4 290.05 152.311 289.814 152.36C289.592 152.408 290.19 152.315 290.255 152.305C290.331 152.295 290.746 152.253 290.307 152.296L290.55 152.268C290.756 152.243 290.966 152.216 291.174 152.2C292.084 152.127 292.992 152.086 293.904 152.056C294.751 152.028 295.614 152.022 296.459 152.058C296.823 152.074 297.183 152.085 297.547 152.096C297.75 152.101 297.664 152.134 297.524 152.09L297.751 152.148C297.902 152.19 298.05 152.239 298.195 152.295C298.784 152.519 299.49 152.094 299.707 151.552C299.944 150.963 299.743 150.286 299.183 149.952Z" fill="#293D8A"/>
<path d="M305.733 188.299C307 185.754 309.303 183.888 311.965 182.688C309.655 182.454 298.741 181.443 295.988 183.007C292.903 184.758 296.559 191.791 302.937 192.144C303.608 192.182 304.217 192.127 304.797 192.036C304.849 190.752 305.145 189.482 305.733 188.299Z" fill="#293D8A"/>
<path d="M255.318 173.495C255.318 173.495 256.422 177.771 262.766 182.737C269.112 187.702 278.308 191.334 278.308 191.334L279.042 188.115C279.042 188.115 269.525 183.977 265.112 179.426C260.698 174.874 260.146 172.391 260.146 172.391L255.318 173.495Z" fill="#D6DCEB"/>
<path d="M280.147 185.734C285.253 185.497 288.103 189.534 288.459 192.146C288.815 194.76 286.361 197.689 280.621 195.116C273.492 191.92 275.041 185.972 280.147 185.734Z" fill="#293D8A"/>
<path d="M259.319 141.909C259.319 141.909 261.524 126.056 272.147 115.288C292.423 94.7369 309.664 95.9769 309.664 95.9769C309.664 95.9769 309.526 93.0809 303.043 90.8743C296.956 88.8023 294.216 89.9089 294.216 89.9089C294.216 89.9089 277.526 91.2876 263.458 106.874C249.388 122.461 247.871 142.322 247.871 142.322L259.319 141.909Z" fill="#D6DCEB"/>
<path d="M257.801 139.978C244.518 137.727 237.111 148.116 236.559 158.599C236.007 169.082 243.625 177.051 253.801 176.254C276.698 174.462 274.077 142.738 257.801 139.978Z" fill="white"/>
<path d="M251.188 166.066C247.682 166.066 244.718 164.304 243.024 161.201C241.21 157.877 241.362 153.785 243.412 150.776C243.568 150.55 243.878 150.49 244.107 150.645C244.335 150.801 244.395 151.112 244.239 151.34C242.398 154.041 242.266 157.724 243.902 160.721C245.455 163.566 248.196 165.178 251.443 165.062C254.478 164.981 257.05 163.593 258.686 161.153C260.552 158.368 260.982 154.522 259.779 151.357C258.586 148.216 255.314 146.074 252.339 146.464C252.07 146.498 251.814 146.308 251.778 146.033C251.74 145.76 251.932 145.509 252.207 145.472C255.687 145.008 259.342 147.386 260.714 151.001C262.028 154.461 261.558 158.664 259.516 161.709C257.695 164.426 254.838 165.972 251.47 166.062L251.188 166.066Z" fill="#7588BB"/>
<path d="M241.526 209.356C241.526 209.356 201.251 219.286 187.182 235.286C173.112 251.286 166.492 330.184 166.216 344.804C165.94 359.425 176.147 365.494 182.216 369.632C188.286 373.77 215.043 381.218 236.56 382.322C258.078 383.425 278.492 382.322 278.492 382.322C278.492 382.322 278.423 377.632 281.732 370.734C284.803 364.338 288.699 363.01 288.699 363.01L270.216 356.39C270.216 356.39 266.98 298.398 261.94 270.322C256.147 238.045 241.526 209.356 241.526 209.356Z" fill="#293D8A"/>
<path d="M308.286 347.127L308.016 347.07C307.678 346.92 307.526 346.527 307.676 346.191C311.45 337.676 315.36 320.962 317.562 309.235L317.742 308.287C318.409 304.838 319.238 300.548 317.584 297.587C316.74 296.076 314.834 292.799 313.001 289.648C311.098 286.378 309.301 283.287 308.802 282.366C307.832 280.564 310.89 275.754 315.318 269.155C316.513 267.371 317.548 265.831 318.15 264.788C319.729 262.058 318.677 259.556 317.461 256.66L317.048 255.663C315.945 252.955 314.69 250.243 313.48 247.62C312.985 246.55 312.489 245.476 312.001 244.398C311.353 242.972 310.704 241.522 310.045 240.055C306.146 231.364 302.116 222.379 296.953 213.698C296.765 213.382 296.869 212.972 297.185 212.784C297.502 212.598 297.91 212.7 298.1 213.018C303.3 221.763 307.346 230.784 311.261 239.508C311.918 240.975 312.568 242.423 313.214 243.848C313.702 244.923 314.196 245.994 314.689 247.062C315.908 249.698 317.168 252.424 318.282 255.16L318.69 256.144C319.932 259.098 321.214 262.152 319.304 265.455C318.678 266.538 317.634 268.095 316.425 269.896C314.117 273.338 309.312 280.5 309.976 281.731C310.464 282.635 312.256 285.716 314.153 288.978C315.99 292.136 317.901 295.422 318.748 296.936C320.641 300.323 319.76 304.879 319.053 308.54L318.872 309.48C318.069 313.751 313.821 335.616 308.896 346.73C308.785 346.98 308.541 347.127 308.286 347.127Z" fill="#788CBD"/>
<path d="M268.975 349.471C268.803 349.471 268.631 349.405 268.502 349.275C265.367 346.115 250.25 319.94 249.125 315.017C248.509 312.323 250.055 305.488 251.551 298.877C252.71 293.756 253.909 288.46 253.567 287.027C253.058 284.884 249.193 281.725 245.454 278.672C240.938 274.984 236.269 271.168 235.365 267.732C234.337 263.827 235.215 239.377 235.797 223.2C236.006 217.383 236.171 212.788 236.17 211.149C236.17 210.781 236.469 210.483 236.837 210.483C237.205 210.483 237.503 210.78 237.503 211.148C237.505 212.812 237.339 217.417 237.129 223.248C236.586 238.369 235.677 263.676 236.654 267.393C237.449 270.409 242.15 274.251 246.298 277.64C250.389 280.981 254.251 284.137 254.865 286.719C255.277 288.452 254.153 293.42 252.851 299.171C251.457 305.335 249.877 312.32 250.425 314.72C251.529 319.547 266.37 345.232 269.449 348.333C269.707 348.596 269.706 349.017 269.445 349.276C269.314 349.405 269.145 349.471 268.975 349.471Z" fill="#788CBD"/>
<path d="M214.767 338.023L214.674 338.017C214.309 337.965 214.055 337.627 214.106 337.263C214.595 333.795 222.249 264.729 222.599 259.439C222.625 259.07 222.942 258.782 223.31 258.818C223.677 258.842 223.954 259.161 223.93 259.527C223.578 264.826 215.917 333.978 215.426 337.45C215.379 337.782 215.094 338.023 214.767 338.023Z" fill="#788CBD"/>
<path d="M269.664 356.781L269.413 356.733C267.717 356.047 260.225 353.519 250.74 350.321C231.596 343.864 205.376 335.023 200.39 332.432C200.064 332.263 199.937 331.86 200.106 331.533C200.276 331.205 200.676 331.075 201.005 331.249C205.9 333.792 233.141 342.979 251.166 349.056C260.673 352.264 268.181 354.795 269.914 355.497C270.256 355.636 270.42 356.024 270.281 356.365C270.176 356.624 269.926 356.781 269.664 356.781Z" fill="#788CBD"/>
<path d="M260.458 384.281C243.61 384.281 210.946 381.244 186.133 372.468C185.785 372.344 185.603 371.964 185.726 371.616C185.847 371.271 186.233 371.088 186.577 371.211C217.923 382.299 261.774 384.192 269.933 382.36C270.291 382.283 270.647 382.507 270.729 382.865C270.81 383.224 270.583 383.581 270.224 383.663C268.458 384.057 265.043 384.281 260.458 384.281Z" fill="#788CBD"/>
<path d="M67.6122 218.659C72.8429 223.259 79.4674 226.209 84.0575 231.529C85.8631 233.622 87.4855 235.85 89.1627 238.045C90.3831 239.642 93.6405 242.291 94.1685 244.299C94.4018 245.183 94.3525 243.986 94.1178 243.099L94.0791 242.989C93.6205 238.923 93.2925 234.842 93.1498 230.753C93.0071 226.674 93.2618 222.579 93.0058 218.507C92.6458 212.762 90.8525 207.199 86.1565 203.601C83.8611 201.841 80.9117 200.77 78.8013 198.818C76.7986 196.965 77.6022 194.842 78.7798 192.775C79.8814 190.841 81.2174 188.941 81.6465 186.714C82.1346 184.183 81.1835 181.573 79.8997 179.418C77.1685 174.831 71.1095 169.718 65.3726 170.403C60.5871 170.975 60.045 176.495 60.1131 180.341C60.1798 184.079 60.5497 187.806 60.5851 191.547C60.6226 195.39 59.9689 199.161 59.9142 202.986C59.8215 209.494 62.8283 214.453 67.6122 218.659Z" fill="#60A6DF"/>
<path d="M116.212 278.369C117.668 274.896 119.339 271.649 121.394 268.491C124.212 264.157 127.339 259.935 129.231 255.081C131.164 250.127 130.88 244.828 131.071 239.609C131.21 235.776 132.35 231.952 132.042 228.108C131.895 226.264 130.832 223.281 128.447 223.587C126.591 223.824 125.488 226.125 124.775 227.593C123.53 230.156 122.667 232.889 121.742 235.577C121.382 236.629 121.036 237.7 120.58 238.715C120.315 239.305 119.471 240.745 118.675 240.549C117.319 240.215 118.55 234.68 118.751 233.7C119.763 228.777 121.287 224.203 121.499 219.137C121.806 211.793 121.235 203.051 114.052 199.035C112.174 197.985 109.795 197.36 108.011 198.931C106.251 200.479 105.754 203.164 105.492 205.373C104.691 212.156 106.287 218.579 108.46 224.96C110.255 230.229 112.394 235.667 112.55 241.301C112.7 246.725 109.878 251.532 108.554 256.656C106.443 264.821 106.879 269.151 106.87 271.795C106.855 275.108 106.976 278.385 107.218 281.688C107.442 284.724 107.704 287.761 108.075 290.783C108.151 291.395 108.22 292.033 108.302 292.672C107.135 289.863 106.727 286.645 105.76 283.823C104.044 278.804 102.05 273.889 100.402 268.847C99.0402 264.68 97.7549 260.485 95.9563 256.48C94.2709 252.721 92.2349 248.749 89.0898 245.992C87.1888 244.325 84.8841 243.351 82.3414 243.371C80.7153 243.383 79.2538 243.945 77.7008 244.356C75.7893 244.861 74.2857 244.687 72.7133 243.479C67.5653 239.521 65.9997 232.427 62.1888 227.416C59.3461 223.679 52.6018 217.308 47.6424 221.384C45.0117 223.545 44.2862 227.723 44.4242 230.925C44.5976 234.943 46.3533 238.617 48.4445 241.977C50.6685 245.549 53.5393 248.748 55.583 252.421C56.7914 254.591 56.9805 256.669 56.7882 259.117C56.6081 261.423 56.4065 263.656 57.1924 265.88C59.5524 272.559 66.9216 271.627 72.6529 271.801C76.6633 271.923 80.9658 272.52 84.7732 273.803C89.1737 275.284 92.0362 278.148 93.6096 282.5C94.7469 285.651 95.3562 289.227 97.5002 291.903C98.5082 293.161 99.8429 294.091 101.311 294.74C103.546 295.727 110.36 296.159 110.411 295.536C110.579 293.452 111.567 291.253 112.186 289.276C113.346 285.568 114.71 281.951 116.212 278.369Z" fill="#60A6DF"/>
<path d="M147.853 277.11C147.26 273.291 147.373 269.083 145.565 265.576C145.436 265.326 145.094 265.262 144.861 265.391C143.565 266.11 143.512 268.203 143.405 269.486C143.23 271.614 143.361 273.747 143.098 275.87C142.64 279.598 141.778 283.44 140.434 286.954C138.916 290.93 136.152 293.183 132.138 294.424C129.56 295.22 127.03 295.915 124.878 297.626C122.95 299.159 121.612 301.272 120.618 303.498C117.94 309.507 116.664 316.224 115.421 322.644C114.585 326.967 113.902 331.31 112.853 335.59C111.804 339.866 110.677 344.12 110.076 348.49C109.974 348.71 109.866 348.928 109.773 349.151C109.498 349.804 110.52 350.158 110.872 349.614C115.016 343.236 120.062 337.512 126.948 334C130.057 332.415 134.188 332.086 136.781 329.594C138.754 327.698 139.025 324.804 138.73 322.226C138.342 318.838 136.72 316.05 135.028 313.163C134.1 311.576 133.002 309.878 133.377 307.95C133.73 306.131 135.242 304.795 136.742 303.863C139.605 302.086 142.952 301.286 145.296 298.724C147.473 296.346 148.68 293.386 148.921 290.18C149.242 285.908 148.506 281.328 147.853 277.11Z" fill="#60A6DF"/>
<path d="M91.366 299.127C87.7106 294.418 83.2976 290.357 78.3335 287.059C75.6846 285.301 69.4351 281.83 68.1742 287.019C67.4346 290.061 70.4111 293.053 72.37 294.959C75.3143 297.825 78.7195 300.297 81.2034 303.599C78.1278 304.579 74.9143 304.771 72.2419 306.897C69.0783 309.415 67.6591 314.277 70.796 317.361C72.3247 318.863 74.3518 319.786 76.2554 320.709C78.7299 321.906 81.2502 322.993 83.7867 324.053C89.2638 326.339 94.81 328.661 99.4807 332.409C104.241 336.227 108.717 342.685 109.094 348.915C109.131 349.51 108.905 348.969 109.259 348.697C109.454 348.871 110.107 348.558 110.103 348.211C110.006 338.965 108.345 330.162 104.566 321.693C101.065 313.841 96.646 305.93 91.366 299.127Z" fill="#60A6DF"/>
<path d="M78.7386 213.054C80.7553 217.241 82.8641 221.33 85.1032 225.412C87.258 229.341 89.411 233.241 91.0228 237.433C93.0081 242.594 95.0894 247.678 97.1881 252.794C99.3694 258.112 101.319 263.53 102.883 269.061C105.936 279.86 108.204 290.974 109.325 302.142C109.896 307.822 110.155 313.536 109.999 319.241C109.876 323.701 109.373 328.112 108.955 332.549C108.519 337.164 108.204 341.834 108.591 346.466C108.913 350.338 109.529 354.941 112.535 357.704C113.121 358.245 113.955 357.57 113.613 356.872C110.043 349.549 110.243 341.565 110.925 333.625C111.303 329.241 111.825 324.881 111.973 320.481C112.161 314.882 111.941 309.273 111.415 303.697C110.379 292.736 108.193 281.905 105.359 271.276C103.904 265.826 102.105 260.482 100.033 255.234C97.9548 249.977 95.5561 244.864 93.5428 239.58C89.9028 230.024 84.3537 221.55 79.4397 212.645C79.1845 212.182 78.5141 212.589 78.7386 213.054Z" fill="#3E579E"/>
<path d="M109.489 291.195C110.067 284.236 110.683 277.535 113.029 270.896C114.123 267.8 115.449 264.789 116.505 261.681C117.377 259.112 118.683 255.589 118.011 252.859C117.936 252.553 117.492 252.569 117.408 252.859C116.959 254.419 117.008 256.129 116.685 257.728C116.369 259.284 115.949 260.815 115.465 262.327C114.436 265.543 113.091 268.624 111.925 271.789C109.675 277.904 108.519 284.677 109.011 291.195C109.033 291.503 109.464 291.503 109.489 291.195Z" fill="#3E579E"/>
<path d="M69.1641 251.204C71.9266 257.878 80.2303 258.263 86.2782 259.758C90.5974 260.824 93.7854 263.706 96.0747 267.446C98.5814 271.538 100.276 276.342 101.669 280.908L101.751 280.887C100.059 272.888 97.6347 263.258 89.3897 259.536C82.7823 256.554 74.0755 258.052 69.8495 250.915C69.6418 250.564 68.997 250.8 69.1641 251.204Z" fill="#3E579E"/>
<path d="M105.123 290.14C105.452 290.584 105.754 291.048 106.092 291.483C106.26 291.699 106.431 291.901 106.643 292.075C106.86 292.252 107.114 292.472 107.411 292.467C107.535 292.464 107.622 292.327 107.555 292.216C107.419 291.993 107.172 291.859 106.98 291.689C106.782 291.515 106.58 291.343 106.388 291.163C106.002 290.797 105.648 290.4 105.271 290.027L105.123 290.14Z" fill="#3E579E"/>
<path d="M87.85 311.308C92.6152 315.219 97.0112 319.847 100.503 324.918C102.173 327.342 103.714 329.907 105.111 332.496C106.638 335.326 107.639 338.315 108.835 341.282C108.926 341.507 109.338 341.512 109.306 341.219C108.645 334.943 104.67 329.563 101.486 324.342C99.8325 321.63 97.7765 319.443 95.5658 317.182C93.2832 314.846 90.9565 312.636 88.2802 310.752C87.9546 310.523 87.539 311.052 87.85 311.308Z" fill="#3E579E"/>
<path d="M125.791 303.92C123.496 305.22 123.422 308.846 123.376 311.16C123.29 315.607 124.391 319.783 122.439 324.02C120.676 327.848 117.86 331.044 115.647 334.599C113.574 337.926 111.53 342.179 111.575 346.184C111.578 346.415 111.932 346.547 112.04 346.311C112.875 344.492 113.175 342.427 113.774 340.522C114.446 338.379 115.384 336.434 116.6 334.55C118.731 331.248 121.346 328.243 123.075 324.692C124.896 320.95 124.63 317.243 124.508 313.188C124.432 310.603 124.174 306.448 126.258 304.526C126.586 304.224 126.167 303.708 125.791 303.92Z" fill="#3E579E"/>
<path d="M110.446 346.598C101.202 346.47 83.5938 346.368 83.5938 346.368L87.9511 378.718C88.9307 385.995 95.143 391.426 102.486 391.426H110.078H110.812H118.403C125.747 391.426 131.959 385.995 132.939 378.718L137.296 346.368C137.296 346.368 119.688 346.47 110.446 346.598Z" fill="white"/>
<path d="M557.25 287.151L504.513 391.61L350.768 392.715L398.216 285.679L557.25 287.151Z" fill="#F5F6F9"/>
<path d="M248.729 392.062L248.758 383.702H348.286L394.078 283.288H553.25L557.251 287.15H401.757L354.17 391.978C354.17 391.978 248.729 391.788 248.729 392.062Z" fill="#D1D8E8"/>
<path d="M477.414 344.793C475.677 350.004 466.25 354.028 456.358 353.78C446.466 353.533 439.855 349.109 441.591 343.897C443.329 338.688 452.755 334.664 462.647 334.912C472.539 335.16 479.151 339.584 477.414 344.793Z" fill="#D1D8E8"/>
<path d="M354.171 392.645L353.895 392.585C353.561 392.433 353.411 392.038 353.563 391.702L401.327 286.483H557.251C557.621 286.483 557.918 286.781 557.918 287.15C557.918 287.518 557.621 287.817 557.251 287.817H402.186L354.778 392.254C354.667 392.498 354.423 392.645 354.171 392.645Z" fill="white"/>
<path d="M58.9062 440.529H241.802V399.979H58.9062V440.529Z" fill="#4F68A9"/>
<path d="M240.756 440.529H569.823V399.979H240.756V440.529Z" fill="#6F83B8"/>
<path d="M58.9062 407.426H240.757V399.978H58.9062V407.426Z" fill="#3D5192"/>
<path d="M569.823 407.426H240.756V399.978H569.823V407.426Z" fill="#5165A1"/>
<path d="M249.802 401.908H50.0781V391.978H249.802V401.908Z" fill="#647AB4"/>
<path d="M577.823 401.908H248.758V391.978H577.823V401.908Z" fill="#8E9EC7"/>
<path d="M195.626 179.217H131.061C127.065 179.217 123.826 175.978 123.826 171.982V139.749C123.826 135.754 127.065 132.514 131.061 132.514H195.626C199.621 132.514 202.861 135.754 202.861 139.749V171.982C202.861 175.978 199.621 179.217 195.626 179.217Z" fill="white"/>
<path d="M221.259 155.866L197.01 145.634V166.098L221.259 155.866Z" fill="white"/>
<path d="M152.492 155.867C152.492 158.333 150.492 160.332 148.025 160.332C145.559 160.332 143.559 158.333 143.559 155.867C143.559 153.399 145.559 151.4 148.025 151.4C150.492 151.4 152.492 153.399 152.492 155.867Z" fill="#293D8A"/>
<path d="M167.808 155.867C167.808 158.333 165.808 160.332 163.342 160.332C160.875 160.332 158.875 158.333 158.875 155.867C158.875 153.399 160.875 151.4 163.342 151.4C165.808 151.4 167.808 153.399 167.808 155.867Z" fill="#293D8A"/>
<path d="M183.127 155.867C183.127 158.333 181.127 160.332 178.66 160.332C176.193 160.332 174.193 158.333 174.193 155.867C174.193 153.399 176.193 151.4 178.66 151.4C181.127 151.4 183.127 153.399 183.127 155.867Z" fill="#293D8A"/>
<path d="M524.33 33.3557H375.273C365.699 33.3557 357.939 41.1157 357.939 50.6891V121.402C357.939 130.974 365.699 138.736 375.273 138.736H388.633C389.009 145.145 388.09 154.681 382.737 166.873C399.958 158.929 409.875 147.001 415.055 138.736H524.33C533.902 138.736 541.663 130.974 541.663 121.402V50.6891C541.663 41.1157 533.902 33.3557 524.33 33.3557Z" fill="#599FDC"/>
<path d="M460.744 67.0586H386.813C384.783 67.0586 383.135 65.4119 383.135 63.3813C383.135 61.3493 384.783 59.7026 386.813 59.7026H460.744C462.776 59.7026 464.423 61.3493 464.423 63.3813C464.423 65.4119 462.776 67.0586 460.744 67.0586Z" fill="white"/>
<path d="M513.756 88.4824H385.388C384.144 88.4824 383.135 87.4744 383.135 86.2304C383.135 84.9864 384.144 83.9771 385.388 83.9771H513.756C515 83.9771 516.009 84.9864 516.009 86.2304C516.009 87.4744 515 88.4824 513.756 88.4824Z" fill="#C3E4F7"/>
<path d="M513.756 100.99H385.388C384.144 100.99 383.135 99.9809 383.135 98.7369C383.135 97.4929 384.144 96.4836 385.388 96.4836H513.756C515 96.4836 516.009 97.4929 516.009 98.7369C516.009 99.9809 515 100.99 513.756 100.99Z" fill="#C3E4F7"/>
<path d="M485.753 114.324H385.388C384.144 114.324 383.135 113.315 383.135 112.071C383.135 110.827 384.144 109.818 385.388 109.818H485.753C486.999 109.818 488.008 110.827 488.008 112.071C488.008 113.315 486.999 114.324 485.753 114.324Z" fill="#C3E4F7"/>
<path d="M512.747 67.0586H477.479C475.449 67.0586 473.801 65.4119 473.801 63.3813C473.801 61.3493 475.449 59.7026 477.479 59.7026H512.747C514.779 59.7026 516.425 61.3493 516.425 63.3813C516.425 65.4119 514.779 67.0586 512.747 67.0586Z" fill="white"/>
<path d="M423.858 229.68H383.813C382.34 229.68 381.146 228.485 381.146 227.013V199.656C381.146 198.184 382.34 196.989 383.813 196.989H423.858C425.332 196.989 426.525 198.184 426.525 199.656V227.013C426.525 228.485 425.332 229.68 423.858 229.68Z" fill="white"/>
<path d="M404.113 218.219C403.888 218.219 403.661 218.141 403.476 217.989L381.681 199.988C381.256 199.636 381.196 199.007 381.548 198.58C381.901 198.155 382.532 198.096 382.954 198.447L404.096 215.907L424.697 197.98C425.113 197.619 425.745 197.663 426.108 198.079C426.47 198.496 426.426 199.127 426.009 199.489L404.769 217.972C404.581 218.136 404.346 218.219 404.113 218.219Z" fill="#647AB4"/>
<path d="M382.318 228.934C382.07 228.934 381.822 228.842 381.629 228.658C381.229 228.276 381.213 227.644 381.594 227.244L396.837 211.22C397.214 210.819 397.85 210.803 398.249 211.184C398.65 211.566 398.666 212.198 398.285 212.599L383.042 228.623C382.846 228.83 382.582 228.934 382.318 228.934Z" fill="#647AB4"/>
<path d="M425.353 228.346C425.097 228.346 424.841 228.248 424.645 228.052L409.464 212.83C409.074 212.439 409.074 211.804 409.466 211.415C409.858 211.024 410.492 211.026 410.881 211.416L426.062 226.639C426.452 227.031 426.452 227.664 426.06 228.054C425.864 228.248 425.609 228.346 425.353 228.346Z" fill="#647AB4"/>
<path d="M441.986 195.977C441.986 203.367 435.997 209.357 428.607 209.357C421.218 209.357 415.229 203.367 415.229 195.977C415.229 188.589 421.218 182.599 428.607 182.599C435.997 182.599 441.986 188.589 441.986 195.977Z" fill="#F1494A"/>
<path d="M425.379 195.943L425.347 195.575C425.752 195.756 426.104 195.991 426.403 196.279C426.702 196.567 426.931 196.882 427.091 197.223C427.251 197.564 427.331 197.916 427.331 198.279C427.331 198.887 427.16 199.447 426.819 199.959C426.488 200.46 426.04 200.866 425.475 201.175C424.91 201.474 424.28 201.623 423.587 201.623C422.894 201.623 422.264 201.474 421.699 201.175C421.134 200.866 420.68 200.46 420.339 199.959C420.008 199.447 419.843 198.887 419.843 198.279C419.843 197.788 419.944 197.367 420.147 197.015C420.36 196.652 420.622 196.348 420.931 196.103C421.251 195.858 421.566 195.655 421.875 195.495L421.747 195.943C421.48 195.836 421.219 195.687 420.963 195.495C420.718 195.292 420.515 195.036 420.355 194.727C420.195 194.418 420.115 194.055 420.115 193.639C420.115 193.042 420.27 192.503 420.579 192.023C420.888 191.532 421.304 191.143 421.827 190.855C422.36 190.567 422.947 190.423 423.587 190.423C424.238 190.423 424.819 190.567 425.331 190.855C425.854 191.143 426.27 191.532 426.579 192.023C426.888 192.503 427.043 193.042 427.043 193.639C427.043 194.098 426.952 194.482 426.771 194.791C426.59 195.1 426.371 195.346 426.115 195.527C425.859 195.708 425.614 195.847 425.379 195.943ZM422.035 193.671C422.035 193.959 422.099 194.215 422.227 194.439C422.366 194.663 422.552 194.844 422.787 194.983C423.022 195.111 423.288 195.175 423.587 195.175C423.886 195.175 424.147 195.111 424.371 194.983C424.606 194.844 424.787 194.663 424.915 194.439C425.054 194.215 425.123 193.959 425.123 193.671C425.123 193.244 424.974 192.892 424.675 192.615C424.387 192.327 424.024 192.183 423.587 192.183C423.139 192.183 422.766 192.327 422.467 192.615C422.179 192.892 422.035 193.244 422.035 193.671ZM423.587 199.863C424.099 199.863 424.531 199.708 424.883 199.399C425.235 199.079 425.411 198.695 425.411 198.247C425.411 197.938 425.331 197.66 425.171 197.415C425.011 197.17 424.792 196.978 424.515 196.839C424.238 196.69 423.928 196.615 423.587 196.615C423.246 196.615 422.936 196.69 422.659 196.839C422.382 196.978 422.163 197.17 422.003 197.415C421.843 197.66 421.763 197.938 421.763 198.247C421.763 198.695 421.939 199.079 422.291 199.399C422.643 199.708 423.075 199.863 423.587 199.863ZM431.825 201.783C431.43 201.783 431.009 201.724 430.561 201.607C430.113 201.479 429.745 201.298 429.457 201.063C429.318 200.946 429.206 200.796 429.121 200.615C429.046 200.423 429.009 200.242 429.009 200.071C429.009 199.89 429.083 199.719 429.233 199.559C429.393 199.399 429.617 199.319 429.905 199.319C430.097 199.319 430.337 199.42 430.625 199.623C430.795 199.73 430.982 199.826 431.185 199.911C431.387 199.996 431.595 200.039 431.809 200.039C432.321 200.039 432.763 199.948 433.137 199.767C433.51 199.575 433.798 199.314 434.001 198.983C434.203 198.652 434.305 198.263 434.305 197.815C434.305 197.41 434.209 197.063 434.017 196.775C433.835 196.487 433.59 196.263 433.281 196.103C432.982 195.943 432.657 195.863 432.305 195.863C431.974 195.863 431.686 195.916 431.441 196.023C431.195 196.13 430.971 196.242 430.769 196.359C430.566 196.466 430.363 196.519 430.161 196.519C429.809 196.519 429.547 196.444 429.377 196.295C429.206 196.135 429.099 195.948 429.057 195.735C429.014 195.522 429.003 195.33 429.025 195.159L429.521 191.271C429.563 191.047 429.67 190.866 429.841 190.727C430.022 190.578 430.235 190.503 430.481 190.503H435.105C435.361 190.503 435.574 190.588 435.745 190.759C435.915 190.93 436.001 191.143 436.001 191.399C436.001 191.644 435.915 191.852 435.745 192.023C435.574 192.183 435.361 192.263 435.105 192.263H430.977L431.153 192.119L430.721 195.367L430.513 194.759C430.577 194.652 430.715 194.551 430.929 194.455C431.142 194.359 431.387 194.279 431.665 194.215C431.942 194.14 432.214 194.103 432.481 194.103C433.195 194.103 433.835 194.268 434.401 194.599C434.966 194.919 435.409 195.362 435.729 195.927C436.059 196.482 436.225 197.111 436.225 197.815C436.225 198.615 436.043 199.314 435.681 199.911C435.318 200.508 434.806 200.972 434.145 201.303C433.494 201.623 432.721 201.783 431.825 201.783Z" fill="white"/>
<path d="M562.983 191.053H484.822C481.876 191.053 479.488 188.665 479.488 185.719V173.49C479.488 170.545 481.876 168.157 484.822 168.157H562.983C565.928 168.157 568.316 170.545 568.316 173.49V185.719C568.316 188.665 565.928 191.053 562.983 191.053Z" fill="#293D8A"/>
<path d="M490.465 185.609C490.114 185.609 489.833 185.485 489.62 185.235C489.406 184.985 489.313 184.672 489.34 184.297L489.676 181.332L489.64 181.183L489.452 181.22L487.012 182.983C486.712 183.208 486.398 183.291 486.073 183.227C485.749 183.165 485.486 182.971 485.286 182.645C485.061 182.245 485.017 181.895 485.154 181.595C485.29 181.295 485.524 181.083 485.848 180.957L488.588 179.719L488.701 179.607L488.588 179.493L485.848 178.255C485.498 178.105 485.273 177.868 485.174 177.543C485.073 177.217 485.112 176.892 485.286 176.567C485.486 176.241 485.749 176.048 486.073 175.984C486.398 175.923 486.712 175.992 487.012 176.192L489.452 177.993L489.64 178.029L489.676 177.88L489.34 174.915C489.313 174.54 489.413 174.227 489.64 173.977C489.865 173.727 490.165 173.603 490.54 173.603C490.89 173.603 491.177 173.727 491.402 173.977C491.628 174.227 491.716 174.54 491.665 174.915L491.328 177.88L491.365 178.029L491.554 177.993L493.993 176.229C494.292 176.003 494.612 175.923 494.95 175.984C495.286 176.048 495.542 176.241 495.718 176.567C495.944 176.967 495.988 177.317 495.848 177.617C495.712 177.917 495.48 178.131 495.154 178.255L492.416 179.493L492.304 179.607L492.416 179.719L495.154 180.957C495.506 181.107 495.737 181.345 495.848 181.669C495.961 181.996 495.918 182.321 495.718 182.645C495.542 182.971 495.286 183.165 494.95 183.227C494.612 183.291 494.292 183.22 493.993 183.021L491.554 181.22L491.365 181.183L491.328 181.332L491.665 184.297C491.716 184.672 491.621 184.985 491.385 185.235C491.145 185.485 490.84 185.609 490.465 185.609Z" fill="white"/>
<path d="M506.631 185.609C506.282 185.609 506.001 185.485 505.787 185.235C505.574 184.985 505.481 184.672 505.506 184.297L505.843 181.332L505.806 181.183L505.62 181.22L503.179 182.983C502.879 183.208 502.566 183.291 502.241 183.227C501.917 183.165 501.654 182.971 501.454 182.645C501.229 182.245 501.185 181.895 501.322 181.595C501.458 181.295 501.69 181.083 502.016 180.957L504.756 179.719L504.869 179.607L504.756 179.493L502.016 178.255C501.666 178.105 501.441 177.868 501.341 177.543C501.241 177.217 501.279 176.892 501.454 176.567C501.654 176.241 501.917 176.048 502.241 175.984C502.566 175.923 502.879 175.992 503.179 176.192L505.62 177.993L505.806 178.029L505.843 177.88L505.506 174.915C505.481 174.54 505.581 174.227 505.806 173.977C506.031 173.727 506.331 173.603 506.707 173.603C507.058 173.603 507.345 173.727 507.57 173.977C507.795 174.227 507.884 174.54 507.833 174.915L507.495 177.88L507.533 178.029L507.721 177.993L510.159 176.229C510.458 176.003 510.78 175.923 511.117 175.984C511.454 176.048 511.71 176.241 511.886 176.567C512.11 176.967 512.154 177.317 512.015 177.617C511.879 177.917 511.648 178.131 511.322 178.255L508.584 179.493L508.471 179.607L508.584 179.719L511.322 180.957C511.673 181.107 511.905 181.345 512.015 181.669C512.129 181.996 512.086 182.321 511.886 182.645C511.71 182.971 511.454 183.165 511.117 183.227C510.78 183.291 510.458 183.22 510.159 183.021L507.721 181.22L507.533 181.183L507.495 181.332L507.833 184.297C507.884 184.672 507.789 184.985 507.551 185.235C507.313 185.485 507.007 185.609 506.631 185.609Z" fill="white"/>
<path d="M522.796 185.609C522.447 185.609 522.164 185.485 521.952 185.235C521.738 184.985 521.644 184.672 521.671 184.297L522.008 181.332L521.971 181.183L521.784 181.22L519.343 182.983C519.043 183.208 518.73 183.291 518.406 183.227C518.08 183.165 517.818 182.971 517.619 182.645C517.392 182.245 517.348 181.895 517.487 181.595C517.623 181.295 517.855 181.083 518.18 180.957L520.92 179.719L521.032 179.607L520.92 179.493L518.18 178.255C517.831 178.105 517.604 177.868 517.506 177.543C517.406 177.217 517.444 176.892 517.619 176.567C517.818 176.241 518.08 176.048 518.406 175.984C518.73 175.923 519.043 175.992 519.343 176.192L521.784 177.993L521.971 178.029L522.008 177.88L521.671 174.915C521.644 174.54 521.746 174.227 521.971 173.977C522.196 173.727 522.496 173.603 522.872 173.603C523.223 173.603 523.508 173.727 523.734 173.977C523.96 174.227 524.048 174.54 523.996 174.915L523.66 177.88L523.698 178.029L523.886 177.993L526.324 176.229C526.623 176.003 526.943 175.923 527.282 175.984C527.619 176.048 527.875 176.241 528.051 176.567C528.275 176.967 528.319 177.317 528.18 177.617C528.044 177.917 527.811 178.131 527.487 178.255L524.748 179.493L524.635 179.607L524.748 179.719L527.487 180.957C527.838 181.107 528.068 181.345 528.18 181.669C528.292 181.996 528.25 182.321 528.051 182.645C527.875 182.971 527.619 183.165 527.282 183.227C526.943 183.291 526.623 183.22 526.324 183.021L523.886 181.22L523.698 181.183L523.66 181.332L523.996 184.297C524.048 184.672 523.952 184.985 523.716 185.235C523.478 185.485 523.171 185.609 522.796 185.609Z" fill="white"/>
<path d="M538.964 185.609C538.614 185.609 538.333 185.485 538.121 185.235C537.906 184.985 537.813 184.672 537.84 184.297L538.177 181.332L538.138 181.183L537.951 181.22L535.512 182.983C535.212 183.208 534.898 183.291 534.573 183.227C534.249 183.165 533.986 182.971 533.786 182.645C533.561 182.245 533.517 181.895 533.654 181.595C533.79 181.295 534.024 181.083 534.348 180.957L537.088 179.719L537.201 179.607L537.088 179.493L534.348 178.255C533.998 178.105 533.773 177.868 533.674 177.543C533.573 177.217 533.612 176.892 533.786 176.567C533.986 176.241 534.249 176.048 534.573 175.984C534.898 175.923 535.212 175.992 535.512 176.192L537.951 177.993L538.138 178.029L538.177 177.88L537.84 174.915C537.813 174.54 537.913 174.227 538.138 173.977C538.365 173.727 538.665 173.603 539.04 173.603C539.39 173.603 539.677 173.727 539.902 173.977C540.127 174.227 540.216 174.54 540.165 174.915L539.828 177.88L539.865 178.029L540.054 177.993L542.493 176.229C542.792 176.003 543.112 175.923 543.45 175.984C543.786 176.048 544.042 176.241 544.218 176.567C544.443 176.967 544.488 177.317 544.348 177.617C544.212 177.917 543.98 178.131 543.654 178.255L540.915 179.493L540.804 179.607L540.915 179.719L543.654 180.957C544.006 181.107 544.237 181.345 544.348 181.669C544.461 181.996 544.418 182.321 544.218 182.645C544.042 182.971 543.786 183.165 543.45 183.227C543.112 183.291 542.792 183.22 542.493 183.021L540.054 181.22L539.865 181.183L539.828 181.332L540.165 184.297C540.216 184.672 540.121 184.985 539.885 185.235C539.645 185.485 539.34 185.609 538.964 185.609Z" fill="white"/>
<path d="M555.13 185.609C554.78 185.609 554.499 185.485 554.287 185.235C554.072 184.985 553.979 184.672 554.004 184.297L554.343 181.332L554.304 181.183L554.118 181.22L551.678 182.983C551.378 183.208 551.064 183.291 550.739 183.227C550.415 183.165 550.152 182.971 549.952 182.645C549.727 182.245 549.683 181.895 549.82 181.595C549.956 181.295 550.188 181.083 550.514 180.957L553.254 179.719L553.367 179.607L553.254 179.493L550.514 178.255C550.164 178.105 549.939 177.868 549.839 177.543C549.739 177.217 549.778 176.892 549.952 176.567C550.152 176.241 550.415 176.048 550.739 175.984C551.064 175.923 551.378 175.992 551.678 176.192L554.118 177.993L554.304 178.029L554.343 177.88L554.004 174.915C553.979 174.54 554.079 174.227 554.304 173.977C554.53 173.727 554.83 173.603 555.206 173.603C555.556 173.603 555.843 173.727 556.068 173.977C556.293 174.227 556.382 174.54 556.331 174.915L555.994 177.88L556.031 178.029L556.219 177.993L558.658 176.229C558.956 176.003 559.278 175.923 559.615 175.984C559.952 176.048 560.208 176.241 560.384 176.567C560.608 176.967 560.652 177.317 560.514 177.617C560.378 177.917 560.146 178.131 559.82 178.255L557.082 179.493L556.968 179.607L557.082 179.719L559.82 180.957C560.171 181.107 560.403 181.345 560.514 181.669C560.627 181.996 560.584 182.321 560.384 182.645C560.208 182.971 559.952 183.165 559.615 183.227C559.278 183.291 558.956 183.22 558.658 183.021L556.219 181.22L556.031 181.183L555.994 181.332L556.331 184.297C556.382 184.672 556.287 184.985 556.05 185.235C555.811 185.485 555.506 185.609 555.13 185.609Z" fill="#5DA4DE"/>
</svg>
