<svg width="176" height="65" viewBox="0 0 176 65" fill="none" xmlns="http://www.w3.org/2000/svg">
<path d="M2 2C10.5963 2 10.5963 10.7143 19.1926 10.7143C27.7888 10.7143 27.7888 2 36.3851 2C44.9814 2 44.9814 10.7143 53.5575 10.7143C62.1541 10.7143 62.1541 2 70.7299 2C79.3264 2 79.3264 10.7143 87.9023 10.7143C96.4988 10.7143 96.4988 2 105.095 2C113.691 2 113.691 10.7143 122.288 10.7143C130.883 10.7143 130.883 2 139.48 2C148.076 2 148.076 10.7143 156.673 10.7143C165.269 10.7143 165.269 2 173.865 2" stroke="#00B6C9" stroke-width="3" stroke-miterlimit="10" stroke-linecap="round"/>
<path d="M2 28.1429C10.5963 28.1429 10.5963 36.8571 19.1926 36.8571C27.7888 36.8571 27.7888 28.1429 36.3851 28.1429C44.9814 28.1429 44.9814 36.8571 53.5575 36.8571C62.1541 36.8571 62.1541 28.1429 70.7299 28.1429C79.3264 28.1429 79.3264 36.8571 87.9023 36.8571C96.4988 36.8571 96.4988 28.1429 105.095 28.1429C113.691 28.1429 113.691 36.8571 122.288 36.8571C130.883 36.8571 130.883 28.1429 139.48 28.1429C148.076 28.1429 148.076 36.8571 156.673 36.8571C165.269 36.8571 165.269 28.1429 173.865 28.1429" stroke="#00B6C9" stroke-width="3" stroke-miterlimit="10" stroke-linecap="round"/>
<path d="M2 54.2857C10.5963 54.2857 10.5963 63 19.1926 63C27.7888 63 27.7888 54.2857 36.3851 54.2857C44.9814 54.2857 44.9814 63 53.5575 63C62.1541 63 62.1541 54.2857 70.7299 54.2857C79.3264 54.2857 79.3264 63 87.9023 63C96.4988 63 96.4988 54.2857 105.095 54.2857C113.691 54.2857 113.691 63 122.288 63C130.883 63 130.883 54.2857 139.48 54.2857C148.076 54.2857 148.076 63 156.673 63C165.269 63 165.269 54.2857 173.865 54.2857" stroke="#00B6C9" stroke-width="3" stroke-miterlimit="10" stroke-linecap="round"/>
</svg>
