<?xml version="1.0" encoding="utf-8"?>
<!-- Generator: Adobe Illustrator 26.1.0, SVG Export Plug-In . SVG Version: 6.00 Build 0)  -->
<svg version="1.1" id="Layer_1" xmlns="http://www.w3.org/2000/svg" xmlns:xlink="http://www.w3.org/1999/xlink" x="0px" y="0px" width="100"
	 viewBox="0 0 100 100" style="enable-background:new 0 0 100 100;" xml:space="preserve">
<style type="text/css">
	.st0{fill:#EEEFFF;}
</style>
<g id="BACKGROUND">
</g>
<rect x="-0.5" y="-0.4" class="st0" width="101.3" height="101.3"/>
<g>
	<path d="M22.8,44.3L22.8,44.3l-2.1,1.1l-0.3-1.2l2.6-1.4h1.4v11.8h-1.5V44.3z"/>
	<path d="M36.6,48.6c0,4-1.5,6.2-4.1,6.2c-2.3,0-3.9-2.2-3.9-6.1c0-4,1.7-6.2,4.1-6.2C35.1,42.6,36.6,44.8,36.6,48.6z M30.1,48.8
		c0,3.1,0.9,4.8,2.4,4.8c1.6,0,2.4-1.9,2.4-4.9c0-2.9-0.7-4.8-2.4-4.8C31.2,43.8,30.1,45.5,30.1,48.8z"/>
	<path d="M45.9,48.6c0,4-1.5,6.2-4.1,6.2c-2.3,0-3.9-2.2-3.9-6.1c0-4,1.7-6.2,4.1-6.2C44.5,42.6,45.9,44.8,45.9,48.6z M39.5,48.8
		c0,3.1,0.9,4.8,2.4,4.8c1.6,0,2.4-1.9,2.4-4.9c0-2.9-0.7-4.8-2.4-4.8C40.5,43.8,39.5,45.5,39.5,48.8z"/>
	<path d="M48.6,45.8l1.3,1.9c0.3,0.5,0.6,0.9,0.9,1.4h0.1c0.3-0.5,0.6-1,0.9-1.5l1.2-1.9h1.7l-3,4.3l3.1,4.6H53l-1.3-2
		c-0.3-0.5-0.6-1-0.9-1.5h0c-0.3,0.5-0.6,1-0.9,1.5l-1.3,2h-1.8l3.1-4.5l-3-4.3H48.6z"/>
	<path d="M59.3,44.3L59.3,44.3l-2.1,1.1l-0.3-1.2l2.6-1.4h1.4v11.8h-1.5V44.3z"/>
	<path d="M73,48.6c0,4-1.5,6.2-4.1,6.2c-2.3,0-3.9-2.2-3.9-6.1c0-4,1.7-6.2,4.1-6.2C71.6,42.6,73,44.8,73,48.6z M66.6,48.8
		c0,3.1,0.9,4.8,2.4,4.8c1.6,0,2.4-1.9,2.4-4.9c0-2.9-0.7-4.8-2.4-4.8C67.6,43.8,66.6,45.5,66.6,48.8z"/>
	<path d="M82.4,48.6c0,4-1.5,6.2-4.1,6.2c-2.3,0-3.9-2.2-3.9-6.1c0-4,1.7-6.2,4.1-6.2C81,42.6,82.4,44.8,82.4,48.6z M76,48.8
		c0,3.1,0.9,4.8,2.4,4.8c1.6,0,2.4-1.9,2.4-4.9c0-2.9-0.7-4.8-2.4-4.8C77,43.8,76,45.5,76,48.8z"/>
</g>
</svg>
