<svg width="1165" height="292" viewBox="0 0 1165 292" fill="none" xmlns="http://www.w3.org/2000/svg">
<path d="M1090.55 47.7952C1115.69 34.796 1121.4 26.6457 1134.69 22.2955" stroke="black" stroke-linecap="round" stroke-dasharray="10 10"/>
<path d="M18.6577 270.614C41.3095 253.654 45.5974 244.676 57.9926 238.197" stroke="black" stroke-linecap="round" stroke-dasharray="10 10"/>
<path d="M748.033 145.178C748.033 145.178 792.688 135.051 835.188 111.796C877.688 88.5416 951.071 87.4519 951.071 87.4519" stroke="black" stroke-linecap="round" stroke-dasharray="10 10"/>
<path d="M473.688 99.7963C521.292 137.822 562.47 178.129 662.688 148.796" stroke="black" stroke-linecap="round" stroke-dasharray="10 10"/>
<path d="M155.978 145.152C243.655 47.3338 366.96 60.3271 462 93.4" stroke="black" stroke-linecap="round" stroke-dasharray="10 10"/>
<path d="M63.0122 234.693C100.837 203.786 119.867 185.836 150 151.9" stroke="black" stroke-linecap="round" stroke-dasharray="10 10"/>
<line x1="669.478" y1="147.879" x2="737.481" y2="144.965" stroke="black" stroke-linecap="round" stroke-dasharray="10 10"/>
<line x1="951.364" y1="86.7938" x2="1082.39" y2="54.0363" stroke="black" stroke-linecap="round" stroke-dasharray="10 10"/>
<path d="M1151.34 3.58239C1152.42 3.24773 1153.61 3.55758 1154.39 4.38238L1160.38 10.6748C1161.09 11.4276 1161.37 12.4971 1161.1 13.502L1158.69 22.7092C1158.43 23.7141 1157.67 24.5114 1156.67 24.8169L1148.37 27.37C1147.29 27.7047 1146.1 27.3948 1145.32 26.57L1139.33 20.2776C1138.62 19.5248 1138.34 18.4553 1138.61 17.4504L1141.02 8.24318C1141.28 7.23825 1142.04 6.44094 1143.04 6.13552L1151.34 3.58239Z" fill="#6151BC"/>
<path d="M16.3356 264.582C17.4235 264.248 18.6072 264.558 19.3916 265.382L25.3758 271.675C26.0917 272.428 26.3672 273.497 26.1041 274.502L23.6938 283.709C23.4308 284.714 22.6665 285.511 21.6737 285.817L13.3738 288.37C12.2859 288.705 11.1023 288.395 10.3179 287.57L4.33364 281.278C3.61777 280.525 3.34225 279.455 3.60532 278.45L6.01561 269.243C6.27868 268.238 7.04289 267.441 8.03576 267.136L16.3356 264.582Z" fill="#6151BC"/>
</svg>
