<?xml version="1.0" encoding="utf-8"?>
<!-- Generator: Adobe Illustrator 27.0.0, SVG Export Plug-In . SVG Version: 6.00 Build 0)  -->
<svg version="1.1" id="Layer_1" xmlns="http://www.w3.org/2000/svg" xmlns:xlink="http://www.w3.org/1999/xlink" x="0px" y="0px"
	 viewBox="0 0 500 151.9" style="enable-background:new 0 0 500 151.9;" xml:space="preserve">
<style type="text/css">
	.st0{fill:#FFFFFF;}
	.st1{fill:url(#SVGID_1_);}
</style>
<g>
	<g>
		<path class="st0" d="M184.6,104.1l1.2-6.9h3.2v7.3h8.8v3.7h-8.8V120c0,1.2,0.1,2.3,0.4,3.1c0.3,0.8,0.7,1.5,1.2,1.9
			c0.5,0.5,1.1,0.8,1.7,1c0.6,0.2,1.3,0.3,2,0.3h4.4l0,3.6h-4.7c-1.3,0-2.5-0.2-3.6-0.5c-1.1-0.3-2.1-0.8-2.9-1.6
			c-0.8-0.8-1.5-1.8-1.9-3c-0.5-1.3-0.7-2.9-0.7-4.8v-11.8h-4.4v-3.4L184.6,104.1z"/>
		<path class="st0" d="M219.3,118.9h-12.1c0.2,1.1,0.6,2.2,1.2,3.1c0.6,0.9,1.2,1.8,2.1,2.4c0.8,0.7,1.7,1.2,2.8,1.6
			s2.1,0.6,3.3,0.6c1.7,0,3.1-0.3,4.3-0.9c1.2-0.6,2.2-1.3,3.2-2.3l2.4,2.5c-0.5,0.6-1.1,1.1-1.8,1.6c-0.7,0.5-1.5,1-2.3,1.4
			c-0.9,0.4-1.8,0.7-2.7,0.9c-1,0.2-2,0.3-3.1,0.3c-1.9,0-3.7-0.3-5.3-1c-1.6-0.7-3.1-1.6-4.3-2.8c-1.2-1.2-2.1-2.6-2.8-4.2
			c-0.7-1.6-1-3.3-1-5.1s0.3-3.5,1-5.1c0.7-1.6,1.6-3,2.8-4.2c1.2-1.2,2.6-2.1,4.3-2.8c1.6-0.7,3.4-1,5.3-1c1.8,0,3.4,0.2,4.8,0.7
			c1.4,0.4,2.6,1,3.5,1.8c0.9,0.7,1.7,1.6,2.2,2.6c0.5,1,0.7,2,0.7,3.1c0,1-0.2,1.9-0.5,2.7c-0.3,0.9-0.8,1.6-1.5,2.2
			s-1.5,1.1-2.6,1.5C222,118.7,220.8,118.9,219.3,118.9z M207.1,115.4h11.7c1.6,0,2.8-0.4,3.5-1.1c0.8-0.7,1.2-1.5,1.2-2.6
			c0-0.5-0.1-1-0.4-1.5c-0.3-0.5-0.7-1-1.3-1.4c-0.6-0.4-1.3-0.8-2.2-1c-0.9-0.3-1.9-0.4-3.1-0.4c-1.2,0-2.3,0.2-3.3,0.6
			c-1,0.4-2,1-2.8,1.7c-0.8,0.7-1.5,1.6-2.1,2.5C207.7,113.2,207.3,114.2,207.1,115.4z"/>
		<path class="st0" d="M252.4,124l2.6,2.7c-1.3,1.2-2.8,2.1-4.4,2.6c-1.6,0.6-3.2,0.8-4.8,0.8c-1.9,0-3.7-0.3-5.3-1
			c-1.7-0.7-3.1-1.6-4.4-2.7c-1.3-1.2-2.3-2.6-3-4.2c-0.7-1.6-1.1-3.4-1.1-5.3c0-1.8,0.3-3.6,1-5.2c0.7-1.6,1.6-3,2.9-4.2
			c1.2-1.2,2.7-2.1,4.3-2.8c1.7-0.7,3.5-1,5.4-1c1.6,0,3.3,0.3,4.9,0.8c1.6,0.6,3.1,1.4,4.5,2.7l-2.6,2.7c-0.8-0.8-1.8-1.4-3-1.9
			c-1.2-0.4-2.4-0.6-3.7-0.6c-1.2,0-2.4,0.2-3.5,0.7c-1.1,0.4-2.1,1.1-3,1.9c-0.9,0.8-1.6,1.8-2.1,3c-0.5,1.2-0.8,2.5-0.8,3.9
			c0,1.5,0.3,2.8,0.8,3.9c0.5,1.2,1.2,2.2,2.1,3c0.9,0.8,1.9,1.4,3,1.9c1.1,0.4,2.3,0.7,3.5,0.7C248.5,126.5,250.7,125.7,252.4,124z
			"/>
		<path class="st0" d="M285.8,115.8v13.7h-4.3v-13.6c0-1.5-0.2-2.8-0.5-3.9c-0.3-1.1-0.8-1.9-1.5-2.6c-0.7-0.7-1.5-1.1-2.5-1.4
			c-1-0.3-2.1-0.5-3.3-0.5c-1.1,0-2.2,0.2-3.1,0.6c-1,0.4-1.8,0.9-2.6,1.6c-0.7,0.7-1.3,1.6-1.7,2.6c-0.4,1-0.6,2.2-0.6,3.4v13.8
			h-4.2V95h4.2l0,12.7c0.5-0.6,1.1-1.1,1.7-1.5c0.6-0.5,1.3-0.9,2.1-1.2c0.8-0.4,1.6-0.6,2.4-0.8c0.9-0.2,1.8-0.3,2.7-0.3
			c3.8,0,6.7,1,8.5,3C284.9,108.8,285.8,111.8,285.8,115.8z"/>
		<path class="st0" d="M318.1,116v13.6h-4.3V116c0-1.5-0.2-2.8-0.5-3.9c-0.3-1.1-0.8-2-1.5-2.6c-0.6-0.7-1.4-1.2-2.4-1.5
			c-0.9-0.3-2-0.5-3.2-0.5c-1.2,0-2.2,0.2-3.3,0.6c-1,0.4-1.9,1-2.6,1.8c-0.8,0.8-1.3,1.7-1.8,2.8s-0.6,2.3-0.6,3.6v13.2h-4.2v-25
			h3.5l0.4,3.4c0.5-0.6,1.1-1.1,1.8-1.6c0.7-0.5,1.4-0.9,2.2-1.3c0.8-0.4,1.6-0.7,2.5-0.9c0.9-0.2,1.8-0.3,2.7-0.3
			c3.8,0,6.7,1,8.5,3.1C317.1,108.9,318.1,112,318.1,116z"/>
		<path class="st0" d="M324,117c0-1.8,0.3-3.6,1-5.2c0.7-1.6,1.6-3,2.9-4.2c1.2-1.2,2.7-2.1,4.3-2.8c1.7-0.7,3.5-1,5.4-1
			c1.9,0,3.8,0.3,5.4,1c1.7,0.7,3.1,1.6,4.3,2.8c1.2,1.2,2.2,2.6,2.9,4.2c0.7,1.6,1,3.3,1,5.2c0,1.8-0.3,3.6-1,5.2
			c-0.7,1.6-1.6,3-2.9,4.2s-2.7,2.1-4.3,2.8c-1.7,0.7-3.5,1-5.4,1c-1.9,0-3.7-0.3-5.4-1c-1.7-0.7-3.1-1.6-4.3-2.8
			c-1.2-1.2-2.2-2.6-2.9-4.2C324.3,120.6,324,118.9,324,117z M328.2,117c0,1.4,0.2,2.6,0.7,3.8c0.5,1.2,1.2,2.2,2,3s1.8,1.5,3,2
			c1.1,0.5,2.4,0.7,3.7,0.7c1.3,0,2.5-0.2,3.7-0.7c1.1-0.5,2.1-1.1,3-2c0.8-0.8,1.5-1.8,2-3c0.5-1.2,0.7-2.4,0.7-3.8
			c0-1.4-0.2-2.6-0.7-3.8c-0.5-1.2-1.2-2.2-2-3s-1.9-1.5-3-2c-1.1-0.5-2.4-0.7-3.7-0.7s-2.5,0.2-3.7,0.7c-1.1,0.5-2.1,1.1-3,2
			s-1.5,1.9-2,3C328.5,114.4,328.2,115.6,328.2,117z"/>
		<path class="st0" d="M358,95h4.2v26.9c0,0.8,0,1.4,0.1,1.9c0.1,0.5,0.3,0.9,0.5,1.2c0.2,0.3,0.6,0.5,1,0.6c0.4,0.1,1,0.2,1.7,0.2
			h1.1v3.7h-1.3c-1.5,0-2.8-0.1-3.7-0.4c-1-0.3-1.7-0.7-2.2-1.3c-0.5-0.6-0.9-1.4-1.1-2.4c-0.2-1-0.3-2.2-0.3-3.5V95z"/>
		<path class="st0" d="M371.6,117c0-1.8,0.3-3.6,1-5.2c0.7-1.6,1.6-3,2.9-4.2c1.2-1.2,2.7-2.1,4.3-2.8c1.7-0.7,3.5-1,5.4-1
			s3.8,0.3,5.4,1c1.7,0.7,3.1,1.6,4.3,2.8c1.2,1.2,2.2,2.6,2.9,4.2c0.7,1.6,1,3.3,1,5.2c0,1.8-0.3,3.6-1,5.2c-0.7,1.6-1.6,3-2.9,4.2
			s-2.7,2.1-4.3,2.8c-1.7,0.7-3.5,1-5.4,1c-1.9,0-3.7-0.3-5.4-1c-1.7-0.7-3.1-1.6-4.3-2.8c-1.2-1.2-2.2-2.6-2.9-4.2
			C372,120.6,371.6,118.9,371.6,117z M375.9,117c0,1.4,0.2,2.6,0.7,3.8c0.5,1.2,1.2,2.2,2,3c0.9,0.9,1.8,1.5,3,2
			c1.1,0.5,2.4,0.7,3.7,0.7c1.3,0,2.5-0.2,3.7-0.7c1.1-0.5,2.1-1.1,3-2c0.8-0.8,1.5-1.8,2-3c0.5-1.2,0.7-2.4,0.7-3.8
			c0-1.4-0.2-2.6-0.7-3.8c-0.5-1.2-1.2-2.2-2-3s-1.9-1.5-3-2c-1.1-0.5-2.4-0.7-3.7-0.7s-2.5,0.2-3.7,0.7c-1.1,0.5-2.1,1.1-3,2
			s-1.5,1.9-2,3C376.2,114.4,375.9,115.6,375.9,117z"/>
		<path class="st0" d="M428.5,103.4h2.8l0,3.1h-2c-0.6,0-1.2,0.1-1.8,0.4c-0.6,0.2-1.1,0.5-1.5,0.8c0.6,0.8,1.1,1.6,1.4,2.6
			c0.3,0.9,0.5,1.9,0.5,2.9c0,1.3-0.3,2.6-0.8,3.8c-0.6,1.2-1.4,2.2-2.4,3.1c-1,0.9-2.2,1.6-3.7,2.1c-1.4,0.5-3,0.8-4.7,0.8
			c-1.3,0-2.6-0.1-3.7-0.4c-1.1-0.3-2.2-0.7-3.1-1.2c-0.4,0.5-0.6,0.9-0.8,1.4c-0.2,0.5-0.3,1-0.3,1.4c0,0.6,0.1,1,0.4,1.3
			c0.3,0.3,0.6,0.6,1,0.7c0.4,0.2,0.9,0.2,1.3,0.3c0.5,0,0.9,0,1.3,0h6.7c3.2,0,5.7,0.6,7.5,1.7c1.7,1.2,2.6,2.8,2.6,4.9
			c0,1.3-0.3,2.5-0.9,3.6c-0.6,1.1-1.5,2-2.6,2.8c-1.1,0.8-2.5,1.4-4.1,1.8c-1.6,0.4-3.4,0.6-5.3,0.6c-1.8,0-3.5-0.1-5.1-0.4
			c-1.6-0.3-3-0.8-4.2-1.4c-1.2-0.6-2.1-1.5-2.8-2.5c-0.7-1-1-2.2-1-3.6c0-0.5,0.1-1,0.3-1.5c0.2-0.5,0.4-1,0.7-1.5
			c0.3-0.5,0.6-0.9,1-1.3c0.4-0.4,0.8-0.8,1.2-1.1c-1.3-0.9-2-2.2-2-3.8c0-1,0.3-2,0.8-3c0.5-1,1.1-1.8,1.9-2.6
			c-0.7-0.8-1.3-1.8-1.7-2.8c-0.4-1-0.6-2.1-0.6-3.2c0-1.3,0.3-2.6,0.8-3.8c0.6-1.2,1.4-2.2,2.4-3.1c1-0.9,2.2-1.6,3.7-2.1
			c1.4-0.5,3-0.8,4.7-0.8c1.4,0,2.8,0.2,4,0.5c1.2,0.4,2.3,0.9,3.3,1.5c0.2-0.2,0.5-0.4,0.9-0.7c0.3-0.2,0.7-0.4,1.1-0.6
			c0.4-0.2,0.9-0.3,1.3-0.5C427.4,103.4,428,103.4,428.5,103.4z M418.6,129.5h-7.8c-0.7,0-1.3,0-1.9-0.1c-0.6,0.5-1,1.1-1.5,1.7
			c-0.4,0.7-0.6,1.4-0.6,2.3c0,1,0.2,1.8,0.7,2.4s1.2,1.1,2,1.5c0.9,0.4,1.9,0.6,3,0.8c1.1,0.2,2.3,0.2,3.6,0.2
			c1.3,0,2.5-0.1,3.6-0.4c1.1-0.3,2-0.6,2.8-1.1c0.8-0.5,1.4-1,1.8-1.7c0.4-0.6,0.6-1.3,0.6-2c0-0.9-0.2-1.5-0.6-2
			c-0.4-0.5-1-0.8-1.6-1.1c-0.6-0.2-1.3-0.4-2.1-0.5C420,129.5,419.3,129.5,418.6,129.5z M408.8,113c0,0.9,0.2,1.8,0.6,2.6
			c0.4,0.8,0.9,1.5,1.6,2.1c0.7,0.6,1.5,1.1,2.4,1.4s1.9,0.5,3,0.5s2.1-0.2,3-0.5c0.9-0.3,1.7-0.8,2.4-1.4c0.7-0.6,1.2-1.3,1.6-2.1
			c0.4-0.8,0.6-1.7,0.6-2.6c0-0.9-0.2-1.8-0.6-2.6c-0.4-0.8-0.9-1.5-1.6-2.1c-0.7-0.6-1.5-1.1-2.4-1.4c-0.9-0.3-1.9-0.5-3-0.5
			s-2.1,0.2-3,0.5c-0.9,0.3-1.7,0.8-2.4,1.4c-0.7,0.6-1.2,1.3-1.6,2.1C409,111.2,408.8,112.1,408.8,113z"/>
		<path class="st0" d="M435.3,97.1c0-0.7,0.3-1.3,0.8-1.8c0.5-0.5,1.2-0.8,2.1-0.8c0.9,0,1.6,0.3,2.1,0.8c0.5,0.5,0.8,1.1,0.8,1.8
			c0,0.7-0.3,1.4-0.8,1.9c-0.5,0.5-1.2,0.8-2.1,0.8c-0.8,0-1.5-0.3-2-0.8C435.5,98.4,435.3,97.8,435.3,97.1z M436,129.5v-25h4.3v25
			H436z"/>
		<path class="st0" d="M463.4,118.9h-12.1c0.2,1.1,0.6,2.2,1.2,3.1c0.6,0.9,1.2,1.8,2.1,2.4c0.8,0.7,1.7,1.2,2.8,1.6
			s2.1,0.6,3.3,0.6c1.7,0,3.1-0.3,4.3-0.9c1.2-0.6,2.2-1.3,3.2-2.3l2.4,2.5c-0.5,0.6-1.1,1.1-1.8,1.6c-0.7,0.5-1.5,1-2.3,1.4
			c-0.9,0.4-1.8,0.7-2.7,0.9c-1,0.2-2,0.3-3.1,0.3c-1.9,0-3.7-0.3-5.3-1c-1.6-0.7-3.1-1.6-4.3-2.8c-1.2-1.2-2.1-2.6-2.8-4.2
			c-0.7-1.6-1-3.3-1-5.1s0.3-3.5,1-5.1c0.7-1.6,1.6-3,2.8-4.2c1.2-1.2,2.6-2.1,4.3-2.8c1.6-0.7,3.4-1,5.3-1c1.8,0,3.4,0.2,4.8,0.7
			c1.4,0.4,2.6,1,3.5,1.8c0.9,0.7,1.7,1.6,2.2,2.6c0.5,1,0.7,2,0.7,3.1c0,1-0.2,1.9-0.5,2.7c-0.3,0.9-0.8,1.6-1.5,2.2
			c-0.7,0.6-1.5,1.1-2.6,1.5C466.2,118.7,464.9,118.9,463.4,118.9z M451.3,115.4H463c1.6,0,2.8-0.4,3.5-1.1c0.8-0.7,1.2-1.5,1.2-2.6
			c0-0.5-0.1-1-0.4-1.5c-0.3-0.5-0.7-1-1.3-1.4c-0.6-0.4-1.3-0.8-2.2-1c-0.9-0.3-1.9-0.4-3.1-0.4c-1.2,0-2.3,0.2-3.3,0.6
			c-1,0.4-2,1-2.8,1.7c-0.8,0.7-1.5,1.6-2.1,2.5C451.9,113.2,451.5,114.2,451.3,115.4z"/>
		<path class="st0" d="M475.8,127.7l1.3-3.5c1.5,0.9,2.9,1.5,4.3,1.9c1.4,0.4,2.7,0.6,4,0.6c2.4,0,4.2-0.4,5.4-1.1
			c1.2-0.8,1.8-1.8,1.8-3c0-0.7-0.2-1.3-0.5-1.7c-0.3-0.5-0.8-0.8-1.5-1.2c-0.6-0.3-1.4-0.6-2.4-0.8c-0.9-0.2-2-0.4-3.2-0.6
			c-0.9-0.1-2-0.3-3-0.5c-1.1-0.2-2-0.6-2.9-1.1c-0.9-0.5-1.6-1.2-2.2-2c-0.6-0.8-0.9-1.9-0.9-3.2c0-1,0.2-2,0.6-2.9
			c0.4-0.9,1-1.7,1.8-2.4c0.8-0.7,1.9-1.2,3.3-1.7c1.3-0.4,3-0.6,4.9-0.6c1.9,0,3.6,0.2,5.2,0.7c1.6,0.5,3.1,1.1,4.4,1.8l-1.2,3.3
			c-0.5-0.3-1.1-0.6-1.8-0.8c-0.6-0.3-1.3-0.5-2-0.7c-0.7-0.2-1.4-0.4-2.2-0.5c-0.8-0.1-1.5-0.2-2.3-0.2c-1.2,0-2.2,0.1-3.1,0.4
			c-0.8,0.2-1.5,0.5-2,0.9s-0.9,0.8-1.1,1.3c-0.2,0.5-0.3,1-0.3,1.5c0,1.1,0.6,2,1.7,2.5c1.2,0.6,2.9,0.9,5.2,1.2
			c1.1,0.2,2.3,0.4,3.4,0.6c1.2,0.2,2.2,0.6,3.2,1.1c0.9,0.5,1.7,1.2,2.3,2.1c0.6,0.9,0.9,2,0.9,3.3c0,1.2-0.3,2.4-0.8,3.3
			c-0.5,1-1.3,1.8-2.3,2.5c-1,0.7-2.2,1.2-3.6,1.6c-1.4,0.4-3,0.6-4.8,0.6c-1.8,0-3.6-0.2-5.2-0.6
			C479,129.3,477.4,128.7,475.8,127.7z"/>
	</g>
	<g>
		<path class="st0" d="M182.3,68.6l4-12c1.7,1,3.3,1.8,4.7,2.4c1.5,0.6,2.8,1.1,4.1,1.5c1.3,0.4,2.5,0.6,3.6,0.8
			c1.1,0.2,2.2,0.2,3.2,0.2c2.7,0,4.8-0.4,6.2-1.1c1.4-0.7,2.1-1.7,2.1-3c0-0.8-0.2-1.4-0.7-1.9c-0.5-0.5-1.2-0.9-2.2-1.3
			s-2.2-0.7-3.7-1c-1.5-0.3-3.3-0.7-5.4-1.2c-1.4-0.3-3-0.7-4.8-1.2c-1.7-0.5-3.4-1.3-4.9-2.3c-1.5-1-2.8-2.4-3.8-4.2
			c-1-1.7-1.5-4-1.5-6.8c0-5,1.8-8.9,5.3-11.7c3.5-2.8,8.7-4.2,15.6-4.2c3.8,0,7.4,0.4,10.7,1.1s6.6,1.8,9.8,3.3l-3.7,11.3
			c-2.5-1-5.2-1.9-8-2.7c-2.8-0.8-5.6-1.2-8.3-1.2c-1.2,0-2.2,0.1-3.1,0.3c-0.8,0.2-1.5,0.5-2,0.9s-0.9,0.8-1.1,1.3
			c-0.2,0.5-0.3,1-0.3,1.5c0,1.2,0.7,2.1,2.1,2.7c1.4,0.6,3.8,1.1,7.1,1.5c2.6,0.5,5,1,7.3,1.6c2.3,0.6,4.3,1.4,6.1,2.5
			c1.7,1.1,3.1,2.4,4.1,4.1c1,1.7,1.5,3.9,1.5,6.6s-0.6,5.1-1.7,7.2c-1.2,2.1-2.7,3.9-4.8,5.3c-2,1.5-4.4,2.6-7.2,3.3
			c-2.8,0.8-5.8,1.1-9,1.1c-2,0-3.9-0.1-5.7-0.2c-1.8-0.1-3.5-0.4-5.2-0.8c-1.7-0.4-3.4-0.9-5-1.5C185.9,70.3,184.2,69.5,182.3,68.6
			z"/>
		<path class="st0" d="M268.4,23.3l15.6,0L263.2,71c-1.6,3.8-3.1,6.8-4.5,9.1c-1.4,2.2-2.9,3.9-4.6,5.1c-1.6,1.2-3.4,2-5.5,2.3
			c-2,0.3-4.4,0.5-7.1,0.5h-7.3l-0.1-11.9h8.1c0.8,0,1.6-0.2,2.2-0.6c0.6-0.4,1.2-1,1.7-1.7c0.5-0.7,0.9-1.6,1.4-2.6
			c0.4-1,0.9-2.1,1.3-3.2l-19.2-44.7h16l10.5,25.9l0.8,3L268.4,23.3z"/>
		<path class="st0" d="M287.3,68.6l4-12c1.7,1,3.3,1.8,4.7,2.4c1.5,0.6,2.8,1.1,4.1,1.5s2.5,0.6,3.6,0.8c1.1,0.2,2.2,0.2,3.2,0.2
			c2.7,0,4.8-0.4,6.2-1.1s2.1-1.7,2.1-3c0-0.8-0.2-1.4-0.7-1.9c-0.5-0.5-1.2-0.9-2.2-1.3s-2.2-0.7-3.7-1c-1.5-0.3-3.3-0.7-5.4-1.2
			c-1.4-0.3-3-0.7-4.8-1.2c-1.7-0.5-3.4-1.3-4.9-2.3c-1.5-1-2.8-2.4-3.8-4.2c-1-1.7-1.5-4-1.5-6.8c0-5,1.8-8.9,5.3-11.7
			c3.5-2.8,8.7-4.2,15.6-4.2c3.8,0,7.4,0.4,10.7,1.1s6.6,1.8,9.8,3.3l-3.7,11.3c-2.5-1-5.2-1.9-8-2.7c-2.8-0.8-5.6-1.2-8.3-1.2
			c-1.2,0-2.2,0.1-3.1,0.3c-0.8,0.2-1.5,0.5-2,0.9c-0.5,0.4-0.9,0.8-1.1,1.3c-0.2,0.5-0.3,1-0.3,1.5c0,1.2,0.7,2.1,2.1,2.7
			c1.4,0.6,3.8,1.1,7.1,1.5c2.6,0.5,5,1,7.3,1.6c2.3,0.6,4.3,1.4,6.1,2.5c1.7,1.1,3.1,2.4,4.1,4.1c1,1.7,1.5,3.9,1.5,6.6
			s-0.6,5.1-1.7,7.2c-1.2,2.1-2.7,3.9-4.8,5.3c-2,1.5-4.4,2.6-7.2,3.3c-2.8,0.8-5.8,1.1-9,1.1c-2,0-3.9-0.1-5.7-0.2
			s-3.5-0.4-5.2-0.8s-3.4-0.9-5-1.5C290.9,70.3,289.1,69.5,287.3,68.6z"/>
		<path class="st0" d="M390.9,45.8v26h-14.6V46.1c0-2.2-0.2-4.1-0.7-5.7c-0.5-1.5-1.1-2.8-2-3.7c-0.8-0.9-1.9-1.6-3-2
			c-1.2-0.4-2.5-0.6-3.9-0.6c-1.8,0-3.4,0.3-4.8,1c-1.4,0.7-2.7,1.6-3.7,2.8c-1,1.2-1.8,2.6-2.3,4.2c-0.5,1.6-0.8,3.4-0.8,5.3v24.4
			h-14.5V23.2h11.7l0.9,3.7c1-0.7,2.1-1.4,3.3-2c1.2-0.6,2.5-1.2,3.8-1.7c1.3-0.5,2.7-0.8,4.2-1.1c1.4-0.3,2.9-0.4,4.3-0.4
			c3.9,0,7.2,0.6,10,1.7c2.8,1.1,5.1,2.7,6.8,4.8c1.8,2.1,3.1,4.6,3.9,7.6C390.5,38.6,390.9,42,390.9,45.8z"/>
		<path class="st0" d="M426.8,60.9c1.6,0,3-0.2,4.3-0.6c1.3-0.4,2.4-1.1,3.3-2c0.9-1,1.6-2.2,2-3.8c0.5-1.6,0.7-3.5,0.7-5.9V23.2
			h14.5v25.9c0,4.4-0.6,8.2-1.9,11.3c-1.2,3.1-3,5.6-5.2,7.5c-2.2,1.9-4.8,3.3-7.9,4.2c-3,0.9-6.3,1.3-9.9,1.3
			c-3.6,0-6.9-0.4-9.9-1.3c-3-0.9-5.7-2.3-7.9-4.2c-2.2-1.9-4-4.4-5.2-7.5c-1.2-3.1-1.9-6.8-1.9-11.3V23.2h14.5v25.4
			c0,2.3,0.2,4.3,0.7,5.8s1.1,2.8,2,3.8c0.9,1,2,1.6,3.3,2C423.8,60.7,425.2,60.9,426.8,60.9z"/>
		<path class="st0" d="M465.7,21.8l4.4-11.9l10.4-0.1v13.5h14.1v12.4h-14.1v17.1c0,1.5,0.2,2.7,0.5,3.7c0.4,1,0.8,1.8,1.5,2.3
			c0.6,0.6,1.3,1,2.2,1.2c0.8,0.2,1.7,0.3,2.7,0.3h8.1l-0.1,11.9H486c-2.7,0-5.3-0.2-7.7-0.7c-2.4-0.5-4.5-1.4-6.3-2.8
			s-3.2-3.3-4.3-5.9c-1-2.5-1.6-5.8-1.6-9.9V35.6h-7.7V24.6L465.7,21.8z"/>
	</g>
</g>
<linearGradient id="SVGID_1_" gradientUnits="userSpaceOnUse" x1="4.7002" y1="145.0545" x2="142.7444" y2="7.0103">
	<stop  offset="0.1259" style="stop-color:#172EB2"/>
	<stop  offset="0.8695" style="stop-color:#6FE2FC"/>
</linearGradient>
<path class="st1" d="M74,3.9C34.3,3.9,2.1,36.1,2.1,75.7c0,39.7,32.2,71.9,71.9,71.9c39.7,0,71.9-32.1,71.9-71.9
	C145.9,36.1,113.7,3.9,74,3.9z M22.3,109.6l5.8-10l5.8-10l5.8,10l5.8,10H22.3z M73.7,98.1c-0.4,2.1-1.1,4.3-2.1,6
	c-0.9,1.7-1.8,3.4-3,5.1c-1.2-3.9-1.6-7.9-2.8-10.7c-1.1-3-2.7-5.6-4.6-7.6c-3.7-4.2-8.4-6.5-13.2-7.2c-9.7-1.3-18.5-8.2-21.8-16.9
	c-1.7-4.3-2.3-9-1.4-13.4c0.4-2.1,1.1-4.3,2.1-6c0.9-1.7,1.8-3.4,3-5.1c1.2,3.9,1.6,7.9,2.8,10.8c1.1,3,2.7,5.5,4.6,7.6
	c3.7,4.2,8.3,6.4,13.2,7.2c9.7,1.4,18.5,8.2,21.8,16.9C73.9,89.1,74.5,93.8,73.7,98.1z M70.4,51.9l-5.8,10l-5.8-10l-5.8-10h23.2
	L70.4,51.9z M97,109.6H81.8V42.4H97V109.6z M119.9,52.5l-5.8,10l-5.8-10l-5.8-10h23.2L119.9,52.5z"/>
</svg>
