<?xml version="1.0" encoding="utf-8"?>
<!-- Generator: Adobe Illustrator 22.0.1, SVG Export Plug-In . SVG Version: 6.00 Build 0)  -->
<svg version="1.1" id="Layer_1" xmlns="http://www.w3.org/2000/svg" xmlns:xlink="http://www.w3.org/1999/xlink" x="0px" y="0px"
	 viewBox="0 0 60 60" style="enable-background:new 0 0 60 60;" xml:space="preserve">
<style type="text/css">
	.st0{fill:#0A57F4;}
</style>
<g>
	<g>
		<path id="SVGID_17_" class="st0" d="M19.3,15.3c-0.7,0-1.3-0.6-1.3-1.3c0-0.7,0.6-1.3,1.3-1.3c0.7,0,1.3,0.6,1.3,1.3
			S20.1,15.3,19.3,15.3L19.3,15.3z M19.4,18.7c-0.4,0-0.7-0.3-0.7-0.7c0-0.4,0.3-0.7,0.7-0.7h0c0.4,0,0.7,0.3,0.7,0.7
			C20,18.4,19.7,18.7,19.4,18.7L19.4,18.7z M19.3,23.3c-0.7,0-1.3-0.6-1.3-1.3c0-0.7,0.6-1.3,1.3-1.3s1.3,0.6,1.3,1.3
			C20.7,22.7,20.1,23.3,19.3,23.3L19.3,23.3z M15.3,19.3c-0.7,0-1.3-0.6-1.3-1.3c0-0.7,0.6-1.3,1.3-1.3c0.7,0,1.3,0.6,1.3,1.3
			C16.7,18.7,16.1,19.3,15.3,19.3L15.3,19.3z M38.7,48.7H28c-0.4,0-0.7-0.3-0.7-0.7c0-0.4,0.3-0.7,0.7-0.7h10.7c1.1,0,2-0.9,2-2V28
			c0-1.1-0.9-2-2-2h-24c-1.1,0-2,0.9-2,2v6.7c0,0.4-0.3,0.7-0.7,0.7h-0.7V38H12c0.4,0,0.7,0.3,0.7,0.7v6.7c0,1.1,0.9,2,2,2h10.7
			c0.4,0,0.7,0.3,0.7,0.7v1.3c0,0.4-0.3,0.7-0.7,0.7s-0.7-0.3-0.7-0.7v-0.7h-10c-1.8,0-3.3-1.5-3.3-3.3v-6h-0.7
			c-0.4,0-0.7-0.3-0.7-0.7v-4c0-0.4,0.3-0.7,0.7-0.7h0.7v-6c0-1.8,1.5-3.3,3.3-3.3h24c1.8,0,3.3,1.5,3.3,3.3v17.3
			C42,47.2,40.5,48.7,38.7,48.7L38.7,48.7z M30,39.3h-6.7c-1.5,0-2.7-1.2-2.7-2.7c0-1.5,1.2-2.7,2.7-2.7s2.7,1.2,2.7,2.7
			c0,0.4-0.3,0.7-0.7,0.7c-0.4,0-0.7-0.3-0.7-0.7c0-0.7-0.6-1.3-1.3-1.3S22,35.9,22,36.7s0.6,1.3,1.3,1.3H30c0.7,0,1.3-0.6,1.3-1.3
			s-0.6-1.3-1.3-1.3c-0.7,0-1.3,0.6-1.3,1.3c0,0.4-0.3,0.7-0.7,0.7c-0.4,0-0.7-0.3-0.7-0.7c0-1.5,1.2-2.7,2.7-2.7s2.7,1.2,2.7,2.7
			C32.7,38.1,31.5,39.3,30,39.3L30,39.3z M23.3,19.3c-0.7,0-1.3-0.6-1.3-1.3c0-0.7,0.6-1.3,1.3-1.3s1.3,0.6,1.3,1.3
			C24.7,18.7,24.1,19.3,23.3,19.3L23.3,19.3z M40.2,23.1c-0.1,0.2-0.3,0.2-0.5,0.2c-0.1,0-0.3,0-0.4-0.2c-0.3-0.2-0.3-0.7-0.1-0.9
			c1-1.2,1.5-2.7,1.5-4.2c0-3.7-3-6.7-6.7-6.7c-3.7,0-6.7,3-6.7,6.7c0,1.5,0.5,3.1,1.5,4.2c0.2,0.3,0.2,0.7-0.1,0.9
			c-0.3,0.2-0.7,0.2-0.9-0.1c-0.5-0.6-0.9-1.2-1.2-1.9c-0.3,0.7-0.7,1.3-1.2,1.9c-0.1,0.2-0.3,0.2-0.5,0.2c-0.1,0-0.3,0-0.4-0.2
			c-0.3-0.2-0.3-0.7-0.1-0.9c1-1.2,1.5-2.7,1.5-4.2c0-3.7-3-6.7-6.7-6.7c-3.7,0-6.7,3-6.7,6.7c0,1.5,0.5,3.1,1.5,4.2
			c0.2,0.3,0.2,0.7-0.1,0.9c-0.3,0.2-0.7,0.2-0.9-0.1c-1.2-1.4-1.8-3.2-1.8-5.1c0-4.4,3.6-8,8-8c3.3,0,6.1,2,7.3,4.8
			C27.9,12,30.7,10,34,10c4.4,0,8,3.6,8,8C42,19.9,41.4,21.7,40.2,23.1L40.2,23.1z M38,19.3c-0.7,0-1.3-0.6-1.3-1.3
			c0-0.7,0.6-1.3,1.3-1.3c0.7,0,1.3,0.6,1.3,1.3C39.3,18.7,38.7,19.3,38,19.3L38,19.3z M49.3,45c-0.2,0.1-0.4,0.2-0.6,0.2
			c-0.2,0-0.4-0.1-0.6-0.2l-4.4-2.5c-0.3-0.2-0.4-0.6-0.2-0.9c0.2-0.3,0.6-0.4,0.9-0.3l4.3,2.5V30.7l-4.3,2.5
			c-0.3,0.2-0.7,0.1-0.9-0.3c-0.2-0.3-0.1-0.7,0.2-0.9l4.4-2.5c0.5-0.2,0.9-0.3,1.3,0c0.4,0.2,0.6,0.6,0.6,1.1v13.3
			C50,44.3,49.7,44.8,49.3,45L49.3,45z M34,18.7c-0.4,0-0.7-0.3-0.7-0.7c0-0.4,0.3-0.7,0.7-0.7h0c0.4,0,0.7,0.3,0.7,0.7
			C34.7,18.4,34.4,18.7,34,18.7L34,18.7z M34,15.3c-0.7,0-1.3-0.6-1.3-1.3c0-0.7,0.6-1.3,1.3-1.3c0.7,0,1.3,0.6,1.3,1.3
			S34.7,15.3,34,15.3L34,15.3z M34,23.3c-0.7,0-1.3-0.6-1.3-1.3c0-0.7,0.6-1.3,1.3-1.3c0.7,0,1.3,0.6,1.3,1.3
			C35.3,22.7,34.7,23.3,34,23.3L34,23.3z M30,19.3c-0.7,0-1.3-0.6-1.3-1.3c0-0.7,0.6-1.3,1.3-1.3c0.7,0,1.3,0.6,1.3,1.3
			C31.3,18.7,30.7,19.3,30,19.3L30,19.3z"/>
	</g>
</g>
</svg>
