<svg width="2282" height="1399" viewBox="0 0 2282 1399" fill="none" xmlns="http://www.w3.org/2000/svg">
<path d="M2191.07 921.152C1982.88 787.77 1993.05 871.614 2025.49 687.38C2057.93 503.146 2096.28 -21.6397 1641.56 0.691331C1186.83 23.0223 1165.38 274.922 804.12 107.997C442.859 -58.9277 -9.10106 378.253 233.314 649.532C467.227 911.298 -324.924 925.058 201.016 1281.76C239.972 1308.18 285.266 1323.05 332.063 1323.05C332.063 1323.05 2117.12 1318.15 2119.22 1318.14C2309.8 1317.63 2331.13 1010.89 2191.07 921.152Z" fill="url(#paint0_linear_85_5)"/>
<path d="M2220.83 695.937C2221.51 688.974 2210.27 684.426 2205.69 689.816C2161.35 741.929 2039.34 874.844 1911.66 921.788C1703.76 998.224 1516.08 1178.52 1572.99 1329.66C1572.99 1329.66 2146.86 1454.64 2220.83 695.937Z" fill="#BDD0FB"/>
<path d="M2172.75 775.987C2171.73 778.014 2170.73 779.495 2169.72 781.206L2166.64 786.122L2160.34 795.854C2156.1 802.308 2151.74 808.687 2147.37 815.051C2138.61 827.78 2129.57 840.304 2120.48 852.793C2102.14 877.65 2083.07 901.972 2063.49 925.87C2024.4 973.749 1982.36 1019.2 1938.26 1062.54C1916.16 1084.17 1893.15 1104.86 1869.67 1124.99C1846.09 1145.01 1821.76 1164.14 1796.75 1182.36C1771.58 1200.35 1745.6 1217.19 1718.97 1232.95C1705.43 1240.42 1692.02 1248.14 1678.09 1254.88C1664.42 1262.1 1650.16 1268.14 1636.08 1274.49C1635.51 1274.75 1634.84 1274.5 1634.58 1273.93C1634.32 1273.36 1634.57 1272.7 1635.13 1272.43L1635.16 1272.41C1663.02 1259.24 1690.21 1244.78 1716.58 1228.9C1742.82 1212.83 1768.4 1195.69 1793.16 1177.42C1817.82 1159.03 1842.01 1139.99 1865.35 1119.92C1888.65 1099.82 1911.29 1078.96 1933.48 1057.62C1955.55 1036.16 1977.06 1014.11 1997.99 991.52L2013.58 974.476L2028.92 957.203C2039.07 945.622 2049.19 934.018 2059.1 922.218C2078.96 898.669 2098.2 874.593 2116.94 850.134C2126.27 837.874 2135.55 825.572 2144.55 813.064C2149.06 806.815 2153.51 800.531 2157.91 794.209L2164.46 784.696L2167.67 779.899C2168.67 778.318 2169.82 776.593 2170.61 775.209L2170.77 774.929C2171.08 774.391 2171.76 774.204 2172.3 774.51C2172.82 774.807 2173.01 775.459 2172.75 775.987Z" fill="#DCE5FE"/>
<path d="M376.668 190.56C496.983 242.744 1184.75 575.016 988.877 1276.41C988.877 1276.41 479.785 1174.22 361.224 202.052C360.186 193.547 368.807 187.15 376.668 190.56Z" fill="#BDD0FB"/>
<path d="M442.487 304.681C471.391 335.051 499.632 365.98 527.616 397.164C555.583 428.358 583.19 459.875 610.426 491.711C664.899 555.382 717.962 620.282 768.995 686.783C819.97 753.314 869.056 821.381 914.336 892.026C937.085 927.272 958.571 963.362 978.659 1000.25C998.688 1037.15 1017.3 1074.93 1032.86 1114.09C1033.79 1116.43 1032.65 1119.07 1030.31 1120C1027.98 1120.92 1025.34 1119.78 1024.41 1117.45L1024.4 1117.43L1024.4 1117.41C1009.23 1078.63 990.952 1041.04 971.236 1004.25C951.46 967.489 930.259 931.446 907.773 896.206C863.021 825.576 814.394 757.393 763.851 690.709C713.249 624.052 660.585 558.949 606.497 495.057C579.453 463.109 552.034 431.476 524.254 400.163C496.463 368.868 468.384 337.793 439.704 307.342L439.692 307.329C438.963 306.555 438.999 305.336 439.773 304.607C440.543 303.88 441.757 303.914 442.487 304.681Z" fill="#DCE5FE"/>
<path d="M723.446 1337.58C723.446 1337.58 705.281 1267.04 622.295 1227.13C545.3 1190.11 358.322 1108.76 303.435 1040.01C301.004 1036.96 296.084 1040.61 297.023 1044.78C307.093 1089.45 340.389 1197.49 437.242 1273.81C562.139 1372.24 723.446 1337.58 723.446 1337.58Z" fill="#BDD0FB"/>
<path d="M346.277 1107.89C350.071 1116.03 354.781 1123.69 359.826 1131.07C362.273 1134.81 365.003 1138.36 367.669 1141.93C370.345 1145.5 373.322 1148.85 376.084 1152.34C387.652 1165.91 400.614 1178.23 414.496 1189.32L419.664 1193.52C421.402 1194.9 423.248 1196.15 425.033 1197.47C428.648 1200.05 432.192 1202.73 435.857 1205.24L447.101 1212.39C450.779 1214.88 454.682 1217.01 458.556 1219.19C462.438 1221.35 466.269 1223.6 470.189 1225.68L482.185 1231.5C490.082 1235.5 498.42 1238.98 506.568 1242.68C522.998 1249.86 539.539 1256.79 556.176 1263.52C572.814 1270.24 589.56 1276.72 606.32 1283.26C614.705 1286.52 623.101 1289.76 631.449 1293.18C635.633 1294.85 639.808 1296.56 643.967 1298.33L650.21 1300.96L656.392 1303.77C664.644 1307.47 672.746 1311.6 680.655 1316.07C688.506 1320.67 696.006 1325.95 702.694 1332.16C703.155 1332.59 703.182 1333.31 702.754 1333.77C702.347 1334.21 701.676 1334.25 701.215 1333.89L701.182 1333.86C694.216 1328.32 686.594 1323.73 678.73 1319.59C670.753 1315.62 662.606 1312 654.257 1308.77C637.634 1302.16 620.644 1296.32 603.733 1290.18L578.334 1280.99C569.903 1277.81 561.46 1274.66 553.067 1271.36C544.651 1268.13 536.282 1264.76 527.939 1261.33C519.625 1257.83 511.31 1254.32 503.048 1250.7C469.985 1236.49 437.264 1218.91 409.942 1194.76C396.178 1182.86 383.466 1169.71 372.54 1155.18C367.158 1147.87 361.994 1140.4 357.522 1132.51C353.016 1124.66 348.955 1116.53 346.014 1107.98C345.989 1107.91 346.028 1107.83 346.101 1107.8C346.168 1107.78 346.247 1107.82 346.277 1107.89Z" fill="#DCE5FE"/>
<path d="M283.735 599.144C283.519 592.261 292.693 589.657 296.099 595.642C329.023 653.509 420.107 802.543 519.73 868.874C681.938 976.876 823.18 1182.63 770.752 1320.43C770.752 1320.43 307.338 1349.1 283.735 599.144Z" fill="#BDD0FB"/>
<path d="M320.322 684.326C320.891 685.804 321.689 687.567 322.406 689.221L324.676 694.232L329.331 704.214L338.85 724.089C345.301 737.29 351.915 750.411 358.648 763.469C372.075 789.606 385.966 815.502 400.372 841.105C429.287 892.244 459.626 942.594 492.567 991.209C509.136 1015.44 525.852 1039.58 543.543 1063C561.241 1086.41 579.468 1109.42 598.598 1131.66C617.736 1153.89 637.469 1175.63 658.415 1196.18C679.304 1216.78 701.198 1236.35 724.123 1254.71L724.133 1254.72C724.623 1255.12 724.702 1255.83 724.309 1256.32C723.926 1256.8 723.234 1256.88 722.746 1256.52C699.055 1238.98 676.663 1219.72 655.142 1199.56C633.757 1179.24 613.578 1157.7 593.985 1135.66C555.256 1091.17 519.719 1043.97 486.868 995.044C470.391 970.607 454.727 945.641 439.426 920.469C424.146 895.282 409.4 869.772 395.375 843.872C381.315 817.993 367.646 791.902 354.689 765.459C348.234 752.226 341.902 738.934 335.735 725.565C332.675 718.869 329.616 712.172 326.659 705.429L322.291 695.281L320.161 690.178C319.477 688.433 318.77 686.838 318.108 684.85C317.911 684.26 318.23 683.622 318.821 683.425C319.394 683.234 320.012 683.529 320.227 684.086L320.322 684.326Z" fill="#DCE5FE"/>
<path d="M1640.54 50.2784C1631.59 41.0654 1619.29 35.8704 1606.45 35.8774L633.346 36.4475C620.496 36.4545 608.197 41.6674 599.255 50.8964C590.313 60.1254 585.492 72.5825 585.89 85.4265L624.463 1328.52C625.258 1354.17 646.283 1374.06 671.946 1374.06H1569.96C1595.65 1374.06 1616.69 1354.13 1617.44 1328.44L1653.96 84.5295C1654.34 71.6895 1649.5 59.4914 1640.54 50.2784Z" fill="url(#paint1_linear_85_5)"/>
<path d="M1597.49 107.494C1589.3 99.0745 1578.06 94.3265 1566.32 94.3335L676.903 94.8545C665.158 94.8615 653.916 99.6255 645.744 108.06C637.571 116.494 633.164 127.878 633.528 139.617L668.784 1275.67C669.511 1299.11 688.727 1317.24 712.184 1317.24H1532.97C1556.45 1317.24 1575.68 1299.07 1576.37 1275.59L1609.75 138.777C1610.09 127.042 1605.67 115.914 1597.49 107.494Z" fill="url(#paint2_linear_85_5)"/>
<path d="M1119.92 315.218C1173.06 315.218 1216.13 272.143 1216.13 219.007C1216.13 165.872 1173.06 122.796 1119.92 122.796C1066.79 122.796 1023.71 165.872 1023.71 219.007C1023.71 272.143 1066.79 315.218 1119.92 315.218Z" fill="url(#paint3_linear_85_5)"/>
<path d="M1122.2 308.4C1171.57 308.4 1211.59 268.378 1211.59 219.007C1211.59 169.637 1171.57 129.614 1122.2 129.614C1072.83 129.614 1032.8 169.637 1032.8 219.007C1032.8 268.378 1072.83 308.4 1122.2 308.4Z" fill="url(#paint4_linear_85_5)"/>
<path d="M1119.92 1265.2C1173.06 1265.2 1216.13 1222.13 1216.13 1168.99C1216.13 1115.86 1173.06 1072.78 1119.92 1072.78C1066.79 1072.78 1023.71 1115.86 1023.71 1168.99C1023.71 1222.13 1066.79 1265.2 1119.92 1265.2Z" fill="url(#paint5_linear_85_5)"/>
<path d="M1122.2 1258.39C1171.57 1258.39 1211.59 1218.36 1211.59 1168.99C1211.59 1119.62 1171.57 1079.6 1122.2 1079.6C1072.83 1079.6 1032.8 1119.62 1032.8 1168.99C1032.8 1218.36 1072.83 1258.39 1122.2 1258.39Z" fill="url(#paint6_linear_85_5)"/>
<path d="M1120.2 440.111L1008.84 550.916L1119.65 662.268L1231 551.463L1120.2 440.111Z" fill="url(#paint7_linear_85_5)"/>
<path d="M1120.17 449.202L1017.94 550.938L1119.67 653.177L1221.91 551.44L1120.17 449.202Z" fill="url(#paint8_linear_85_5)"/>
<path d="M1515.79 821.797C1515.79 855.687 1488.32 883.16 1454.43 883.16H1374.89C1341 883.16 1313.52 855.687 1313.52 821.797C1313.52 787.907 1341 760.434 1374.89 760.434H1454.43C1488.32 760.434 1515.79 787.907 1515.79 821.797Z" fill="url(#paint9_linear_85_5)"/>
<path d="M1507.42 821.796C1507.42 853.487 1482.14 878.613 1450.96 878.613H1377.13C1345.95 878.613 1320.68 853.487 1320.68 821.796C1320.68 790.105 1345.95 764.979 1377.13 764.979H1450.96C1482.14 764.978 1507.42 790.104 1507.42 821.796Z" fill="url(#paint10_linear_85_5)"/>
<path d="M1222.62 821.797C1222.62 855.687 1195.14 883.16 1161.25 883.16H1081.71C1047.82 883.16 1020.35 855.687 1020.35 821.797C1020.35 787.907 1047.82 760.434 1081.71 760.434H1161.25C1195.14 760.434 1222.62 787.907 1222.62 821.797Z" fill="url(#paint11_linear_85_5)"/>
<path d="M1214.24 821.796C1214.24 853.487 1188.96 878.613 1157.78 878.613H1083.96C1052.78 878.613 1027.5 853.487 1027.5 821.796C1027.5 790.105 1052.78 764.979 1083.96 764.979H1157.78C1188.96 764.978 1214.24 790.104 1214.24 821.796Z" fill="url(#paint12_linear_85_5)"/>
<path d="M922.622 821.797C922.622 855.687 895.149 883.16 861.259 883.16H781.715C747.825 883.16 720.352 855.687 720.352 821.797C720.352 787.907 747.825 760.434 781.715 760.434H861.259C895.149 760.434 922.622 787.907 922.622 821.797Z" fill="url(#paint13_linear_85_5)"/>
<path d="M914.245 821.796C914.245 853.487 888.969 878.613 857.789 878.613H783.962C752.782 878.613 727.506 853.487 727.506 821.796C727.506 790.105 752.782 764.979 783.962 764.979H857.789C888.969 764.978 914.245 790.104 914.245 821.796Z" fill="url(#paint14_linear_85_5)"/>
<path d="M1121.48 418.393C1119.6 418.393 1118.07 416.867 1118.07 414.984V328.622C1118.07 326.739 1119.6 325.213 1121.48 325.213C1123.37 325.213 1124.89 326.739 1124.89 328.622V414.984C1124.89 416.867 1123.37 418.393 1121.48 418.393Z" fill="url(#paint15_linear_85_5)"/>
<path d="M1133.88 401.348L1119.92 425.528L1105.96 401.348H1133.88Z" fill="url(#paint16_linear_85_5)"/>
<path d="M1121.48 738.843C1119.6 738.843 1118.07 737.316 1118.07 735.434V671.799C1118.07 669.916 1119.6 668.39 1121.48 668.39C1123.37 668.39 1124.89 669.916 1124.89 671.799V735.434C1124.89 737.316 1123.37 738.843 1121.48 738.843Z" fill="url(#paint17_linear_85_5)"/>
<path d="M1133.88 721.798L1119.92 745.978L1105.96 721.798H1133.88Z" fill="url(#paint18_linear_85_5)"/>
<path d="M1116.94 1045.66C1115.05 1045.66 1113.53 1044.13 1113.53 1042.25V958.157C1113.53 956.275 1115.05 954.749 1116.94 954.749C1118.82 954.749 1120.35 956.275 1120.35 958.157V1042.25C1120.35 1044.13 1118.82 1045.66 1116.94 1045.66Z" fill="url(#paint19_linear_85_5)"/>
<path d="M1130.39 1028.61L1116.43 1052.79L1102.47 1028.61H1130.39Z" fill="url(#paint20_linear_85_5)"/>
<path d="M810.123 716.115C808.24 716.115 806.714 714.589 806.714 712.706V550.209C806.714 548.326 808.24 546.8 810.123 546.8H997.62C999.503 546.8 1001.03 548.326 1001.03 550.209C1001.03 552.092 999.503 553.618 997.62 553.618H813.532V712.706C813.532 714.59 812.006 716.115 810.123 716.115Z" fill="url(#paint21_linear_85_5)"/>
<path d="M822.524 710.434L808.565 734.614L794.604 710.434H822.524Z" fill="url(#paint22_linear_85_5)"/>
<path d="M1435.11 716.115C1433.23 716.115 1431.7 714.589 1431.7 712.706V553.618H1247.62C1245.73 553.618 1244.21 552.092 1244.21 550.209C1244.21 548.326 1245.73 546.8 1247.62 546.8H1435.11C1437 546.8 1438.52 548.326 1438.52 550.209V712.706C1438.52 714.59 1437 716.115 1435.11 716.115Z" fill="url(#paint23_linear_85_5)"/>
<path d="M1421.54 710.434L1435.5 734.614L1449.46 710.434H1421.54Z" fill="url(#paint24_linear_85_5)"/>
<path d="M1432.84 960.43H807.85C805.967 960.43 804.441 958.903 804.441 957.021V896.795C804.441 894.913 805.967 893.386 807.85 893.386C809.733 893.386 811.259 894.913 811.259 896.795V953.612H1429.43V896.795C1429.43 894.913 1430.96 893.386 1432.84 893.386C1434.72 893.386 1436.25 894.913 1436.25 896.795V957.021C1436.25 958.903 1434.72 960.43 1432.84 960.43Z" fill="url(#paint25_linear_85_5)"/>
<path d="M952.167 166.504C952.167 174.453 945.723 180.898 937.773 180.898H702.928C694.979 180.898 688.534 174.454 688.534 166.504V165.746C688.534 157.797 694.978 151.352 702.928 151.352H937.773C945.722 151.352 952.167 157.796 952.167 165.746V166.504Z" fill="url(#paint26_linear_85_5)"/>
<path d="M952.167 232.412C952.167 240.361 945.723 246.806 937.773 246.806H702.928C694.979 246.806 688.534 240.362 688.534 232.412V231.654C688.534 223.705 694.978 217.26 702.928 217.26H937.773C945.722 217.26 952.167 223.704 952.167 231.654V232.412Z" fill="url(#paint27_linear_85_5)"/>
<path d="M1807.67 304.423C1805.79 304.423 1804.02 303.437 1803.04 301.773L1791.95 282.872C1781.6 282.362 1771.41 280.353 1761.6 276.89L1744.17 290.192C1742.35 291.581 1739.85 291.661 1737.95 290.396L1714.18 274.591C1712.28 273.323 1711.39 270.984 1711.97 268.771L1717.49 247.553C1710.51 239.846 1704.71 231.221 1700.24 221.871L1678.52 218.952C1676.25 218.646 1674.43 216.936 1673.98 214.697L1668.35 186.718C1667.9 184.473 1668.92 182.189 1670.9 181.033L1689.79 169.946C1690.3 159.595 1692.31 149.401 1695.78 139.591L1682.47 122.16C1681.09 120.339 1681.01 117.837 1682.27 115.932L1698.07 92.1744C1699.35 90.2694 1701.68 89.3745 1703.9 89.9555L1725.11 95.4825C1732.82 88.4955 1741.45 82.7015 1750.8 78.2295L1753.71 56.5115C1754.02 54.2445 1755.73 52.4175 1757.97 51.9675L1785.95 46.3405C1788.19 45.8895 1790.47 46.9105 1791.63 48.8825L1802.72 67.7865C1813.07 68.2965 1823.27 70.3055 1833.07 73.7675L1850.51 60.4655C1852.33 59.0795 1854.83 59.0005 1856.73 60.2625L1880.49 76.0675C1882.4 77.3335 1883.29 79.6725 1882.71 81.8875L1877.18 103.105C1884.17 110.811 1889.96 119.434 1894.44 128.787L1916.15 131.704C1918.42 132.008 1920.25 133.718 1920.7 135.96L1926.33 163.938C1926.78 166.184 1925.75 168.468 1923.78 169.624L1904.88 180.713C1904.37 191.064 1902.36 201.258 1898.9 211.068L1912.2 228.499C1913.59 230.318 1913.67 232.818 1912.4 234.722L1896.6 258.484C1895.33 260.389 1893 261.285 1890.78 260.704L1869.56 255.175C1861.85 262.162 1853.23 267.956 1843.88 272.428L1840.96 294.146C1840.66 296.413 1838.95 298.239 1836.7 298.69L1808.73 304.316C1808.37 304.389 1808.02 304.423 1807.67 304.423ZM1760.44 269.199L1762.2 269.857C1772.45 273.678 1783.17 275.791 1794.06 276.136L1795.94 276.195L1808.4 297.429L1834.34 292.212L1837.62 267.81L1839.33 267.029C1849.24 262.504 1858.31 256.411 1866.28 248.922L1867.66 247.635L1891.5 253.846L1906.15 231.812L1891.21 212.229L1891.86 210.466C1895.69 200.213 1897.8 189.495 1898.14 178.607L1898.2 176.726L1919.44 164.268L1914.22 138.325L1889.82 135.047L1889.04 133.336C1884.51 123.425 1878.42 114.357 1870.93 106.382L1869.64 105.009L1875.85 81.1705L1853.82 66.5155L1834.24 81.4605L1832.47 80.8025C1822.22 76.9815 1811.5 74.8705 1800.61 74.5245L1798.73 74.4655L1786.28 53.2305L1760.33 58.4485L1757.05 82.8495L1755.34 83.6305C1745.44 88.1565 1736.37 94.2485 1728.39 101.737L1727.02 103.024L1703.18 96.8135L1688.52 118.848L1703.47 138.431L1702.81 140.194C1698.99 150.447 1696.87 161.165 1696.53 172.053L1696.47 173.934L1675.24 186.392L1680.45 212.335L1704.85 215.613L1705.64 217.324C1710.16 227.233 1716.26 236.302 1723.74 244.279L1725.03 245.651L1718.82 269.49L1740.85 284.144L1760.44 269.199ZM1797.72 247.91C1783.63 247.911 1769.85 243.775 1757.85 235.794C1741.77 225.104 1730.83 208.796 1727.02 189.872C1726.01 184.814 1725.53 179.662 1725.6 174.555C1725.62 172.672 1727.2 171.193 1729.05 171.194C1730.93 171.221 1732.44 172.768 1732.41 174.651C1732.35 179.275 1732.78 183.945 1733.71 188.529C1737.15 205.666 1747.07 220.437 1761.62 230.118C1776.18 239.8 1793.63 243.238 1810.77 239.786C1827.91 236.339 1842.68 226.425 1852.36 211.869C1862.04 197.312 1865.48 179.857 1862.03 162.72C1854.92 127.342 1820.35 104.341 1784.96 111.462C1773.33 113.801 1762.57 119.237 1753.85 127.179C1752.45 128.446 1750.3 128.344 1749.03 126.954C1747.76 125.562 1747.87 123.406 1749.26 122.139C1758.89 113.365 1770.77 107.361 1783.62 104.778C1822.69 96.9265 1860.86 122.312 1868.71 161.376C1876.57 200.441 1851.18 238.614 1812.12 246.472C1807.32 247.434 1802.5 247.91 1797.72 247.91Z" fill="#91B3FA"/>
<path d="M1797.38 204.076C1786.64 204.076 1776.33 198.04 1771.4 187.726C1764.56 173.423 1770.64 156.226 1784.94 149.392C1799.24 142.558 1816.44 148.633 1823.28 162.936C1826.59 169.865 1827 177.667 1824.44 184.907C1821.88 192.147 1816.66 197.957 1809.73 201.269C1805.74 203.173 1801.53 204.076 1797.38 204.076ZM1777.55 184.785C1782.76 195.697 1795.88 200.33 1806.79 195.116C1817.7 189.903 1822.34 176.786 1817.12 165.876C1811.91 154.965 1798.79 150.33 1787.88 155.543C1776.97 160.756 1772.34 173.873 1777.55 184.785Z" fill="#91B3FA"/>
<path d="M1983.13 338.826C1982.71 338.826 1982.29 338.766 1981.88 338.642L1968.73 334.689C1966.96 334.154 1965.71 332.548 1965.64 330.693L1965.26 321.105C1961.42 318.71 1957.92 315.852 1954.81 312.578L1945.34 314.117C1943.51 314.41 1941.69 313.517 1940.81 311.884L1934.32 299.795C1933.44 298.16 1933.69 296.15 1934.95 294.788L1941.46 287.736C1940.44 283.34 1939.99 278.843 1940.11 274.318L1932.32 268.707C1930.82 267.623 1930.16 265.702 1930.7 263.925L1934.65 250.782C1935.18 249.009 1936.79 247.766 1938.64 247.689L1948.24 247.306C1950.63 243.466 1953.49 239.964 1956.76 236.858L1955.22 227.389C1954.93 225.558 1955.82 223.739 1957.46 222.86L1969.55 216.361C1971.18 215.484 1973.19 215.738 1974.55 216.994L1981.6 223.505C1986 222.489 1990.49 222.029 1995.02 222.158L2000.63 214.368C2001.72 212.863 2003.64 212.212 2005.41 212.746L2018.56 216.699C2020.34 217.234 2021.58 218.84 2021.65 220.695L2022.03 230.283C2025.88 232.678 2029.38 235.536 2032.48 238.81L2041.95 237.271C2043.79 236.971 2045.6 237.876 2046.48 239.504L2052.98 251.593C2053.86 253.235 2053.6 255.249 2052.34 256.61L2045.83 263.652C2046.85 268.046 2047.3 272.544 2047.18 277.069L2054.97 282.68C2056.48 283.77 2057.13 285.69 2056.6 287.462L2052.64 300.605C2052.11 302.378 2050.51 303.621 2048.66 303.698L2039.06 304.081C2036.66 307.921 2033.8 311.423 2030.53 314.529L2032.07 323.998C2032.37 325.829 2031.47 327.648 2029.84 328.527L2017.75 335.026C2016.11 335.903 2014.1 335.647 2012.74 334.393L2005.69 327.882C2001.29 328.897 1996.8 329.352 1992.27 329.229L1986.66 337.019C1985.83 338.172 1984.51 338.826 1983.13 338.826ZM1981.13 333.032C1981.13 333.034 1981.13 333.037 1981.12 333.039L1981.13 333.032ZM1972.39 328.666L1982.16 331.605L1988.92 322.223L1990.79 322.34C1995.85 322.649 2000.89 322.147 2005.76 320.836L2007.58 320.347L2016.07 328.186L2025.06 323.354L2023.21 311.948L2024.61 310.702C2028.4 307.361 2031.6 303.439 2034.13 299.047L2035.07 297.417L2046.62 296.956L2049.56 287.184L2040.18 280.426L2040.29 278.548C2040.61 273.487 2040.1 268.45 2038.79 263.578L2038.3 261.761L2046.14 253.27L2041.31 244.283L2029.9 246.137L2028.66 244.727C2025.31 240.943 2021.39 237.743 2017 235.215L2015.37 234.276L2014.91 222.722L2005.14 219.783L1998.38 229.165L1996.5 229.048C1991.44 228.734 1986.4 229.24 1981.53 230.552L1979.71 231.041L1971.22 223.202L1962.24 228.034L1964.09 239.44L1962.68 240.686C1958.9 244.027 1955.7 247.949 1953.17 252.341L1952.23 253.971L1940.68 254.432L1937.74 264.204L1947.12 270.962L1947 272.841C1946.69 277.9 1947.19 282.937 1948.51 287.81L1948.99 289.627L1941.16 298.119L1945.99 307.107L1957.39 305.253L1958.64 306.663C1961.98 310.447 1965.9 313.647 1970.29 316.175L1971.93 317.114L1972.39 328.666ZM2047.33 251.977C2047.33 251.98 2047.33 251.984 2047.32 251.987L2047.33 251.977ZM1993.98 312.298C1990.45 312.298 1986.89 311.78 1983.41 310.732C1974.07 307.922 1966.38 301.641 1961.76 293.048C1960.53 290.75 1959.54 288.328 1958.82 285.85C1958.3 284.041 1959.34 282.151 1961.15 281.63C1962.97 281.112 1964.85 282.154 1965.37 283.961C1965.95 285.976 1966.76 287.947 1967.76 289.82C1971.52 296.809 1977.78 301.917 1985.37 304.203C1992.97 306.488 2001.01 305.679 2008 301.92C2022.43 294.164 2027.86 276.117 2020.1 261.687C2012.34 247.259 1994.3 241.825 1979.87 249.586C1975.12 252.135 1971.17 255.914 1968.42 260.514C1967.46 262.131 1965.37 262.662 1963.75 261.697C1962.13 260.733 1961.6 258.64 1962.57 257.023C1965.94 251.361 1970.81 246.713 1976.64 243.58C1994.38 234.044 2016.57 240.721 2026.11 258.459C2035.64 276.2 2028.97 298.39 2011.23 307.926C2005.83 310.825 1999.93 312.298 1993.98 312.298Z" fill="#91B3FA"/>
<path d="M2119.24 877.408L1762.26 845.727C1747.79 844.443 1736.67 832.36 1736.59 817.831L1735.27 577.139C1735.18 560.756 1749.05 547.757 1765.39 548.894L2145.51 575.347C2161.23 576.441 2173 590.228 2171.6 605.928L2149.78 851.847C2148.4 867.339 2134.73 878.782 2119.24 877.408Z" fill="#7D97F4"/>
<path d="M1756.2 600.439L1753.84 808.256C1753.74 817.284 1760.55 824.893 1769.54 825.785L2111.84 859.78C2121.48 860.738 2130.05 853.642 2130.91 843.99L2150.63 621.778C2151.5 611.965 2144.06 603.384 2134.23 602.848L1774.56 583.246C1764.67 582.707 1756.32 590.526 1756.2 600.439Z" fill="#BDD0FB"/>
<path d="M1918.48 782.008L2112.2 793.375C2114.18 793.491 2115.68 795.226 2115.5 797.208L2115.23 800.319C2115.06 802.24 2113.37 803.668 2111.45 803.525L1918.01 789.046C1916.04 788.899 1914.58 787.176 1914.76 785.217C1914.92 783.318 1916.57 781.896 1918.48 782.008Z" fill="#91B3FA"/>
<path d="M1913.32 801.416L1913.2 802.742C1913.03 804.682 1914.46 806.395 1916.4 806.567L2109.61 823.714C2111.55 823.886 2113.26 822.453 2113.43 820.513L2113.55 819.187C2113.72 817.247 2112.29 815.534 2110.35 815.362L1917.14 798.214C1915.2 798.042 1913.49 799.475 1913.32 801.416Z" fill="#91B3FA"/>
<path d="M1970.42 823.941L1970.37 824.523C1970.2 826.463 1971.63 828.176 1973.57 828.348L2108.14 840.29C2110.08 840.462 2111.79 839.029 2111.96 837.089L2112.21 834.354C2112.38 832.392 2110.91 830.667 2108.95 830.524L1974.19 820.735C1972.27 820.595 1970.59 822.022 1970.42 823.941Z" fill="#91B3FA"/>
<path d="M2089.31 791.422L1668.02 782.847C1650.95 782.499 1636.94 769.216 1635.68 752.18L1614.86 469.946C1613.44 450.736 1628.66 434.376 1647.92 434.401L2095.94 434.99C2114.47 435.014 2129.37 450.244 2129 468.773L2123.09 758.994C2122.72 777.275 2107.59 791.794 2089.31 791.422Z" fill="#7D97F4"/>
<path d="M1641.28 495.6L1655.15 739.567C1655.75 750.165 1664.35 758.545 1674.96 758.872L2079.22 771.338C2090.61 771.689 2100.09 762.678 2100.32 751.287L2105.66 489.045C2105.9 477.465 2096.49 467.994 2084.91 468.153L1661.44 473.962C1649.79 474.122 1640.62 483.963 1641.28 495.6Z" fill="#BDD0FB"/>
<path d="M1846.17 695.592L2074.32 693.413C2076.66 693.39 2078.56 695.306 2078.51 697.644L2078.43 701.316C2078.39 703.583 2076.53 705.393 2074.26 705.378L1846.18 703.886C1843.87 703.871 1842.02 701.967 1842.06 699.655C1842.11 697.413 1843.93 695.613 1846.17 695.592Z" fill="#7D97F4"/>
<path d="M1841.67 718.771L1841.64 720.336C1841.59 722.626 1843.41 724.52 1845.7 724.566L2073.72 729.207C2076.01 729.254 2077.9 727.435 2077.95 725.146L2077.98 723.581C2078.03 721.291 2076.21 719.397 2073.92 719.351L1845.9 714.71C1843.61 714.662 1841.72 716.481 1841.67 718.771Z" fill="#7D97F4"/>
<path d="M1910.46 740.62L1910.45 741.307C1910.4 743.597 1912.22 745.491 1914.51 745.537L2073.32 748.77C2075.61 748.816 2077.5 746.998 2077.55 744.708L2077.62 741.48C2077.66 739.164 2075.8 737.259 2073.49 737.249L1914.63 736.558C1912.36 736.549 1910.51 738.357 1910.46 740.62Z" fill="#7D97F4"/>
<path d="M2025.08 736.053H1557.7C1538.76 736.053 1522.92 721.639 1521.14 702.775L1491.68 390.266C1489.68 368.995 1506.19 350.509 1527.55 350.103L2024.38 340.644C2044.93 340.253 2061.8 356.806 2061.8 377.361V699.329C2061.8 719.611 2045.36 736.053 2025.08 736.053Z" fill="url(#paint28_linear_85_5)"/>
<path d="M1521.56 418.119L1542.45 688.349C1543.36 700.088 1553.08 709.187 1564.86 709.31L2013.43 714.009C2026.07 714.141 2036.38 703.934 2036.38 691.298V400.368C2036.38 387.521 2025.73 377.231 2012.89 377.669L1543.43 393.669C1530.51 394.109 1520.56 405.23 1521.56 418.119Z" fill="url(#paint29_linear_85_5)"/>
<path d="M1761.04 415.648L2013.99 408.082C2016.59 408.004 2018.73 410.085 2018.73 412.68V416.753C2018.73 419.269 2016.71 421.317 2014.2 421.352L1761.24 424.845C1758.67 424.88 1756.57 422.811 1756.57 420.246C1756.57 417.759 1758.55 415.723 1761.04 415.648Z" fill="#7D97F4"/>
<path d="M1756.57 441.453V443.189C1756.57 445.729 1758.63 447.788 1761.17 447.788H2014.13C2016.67 447.788 2018.73 445.729 2018.73 443.189V441.453C2018.73 438.913 2016.67 436.853 2014.13 436.853H1761.17C1758.63 436.854 1756.57 438.913 1756.57 441.453Z" fill="#7D97F4"/>
<path d="M1694.79 668.926C1693.66 668.926 1692.73 668.005 1692.73 666.868L1692.71 660.676C1692.71 659.535 1693.63 658.608 1694.77 658.606C1694.77 658.606 1694.78 658.606 1694.78 658.606C1695.92 658.606 1696.84 659.527 1696.84 660.664L1696.86 666.856C1696.86 667.997 1695.94 668.924 1694.8 668.926C1694.8 668.926 1694.8 668.926 1694.79 668.926ZM1694.74 648.288C1693.6 648.288 1692.68 647.367 1692.68 646.23L1692.66 640.039C1692.66 638.898 1693.58 637.971 1694.72 637.969C1694.72 637.969 1694.72 637.969 1694.73 637.969C1695.86 637.969 1696.79 638.89 1696.79 640.027L1696.81 646.219C1696.81 647.36 1695.89 648.287 1694.75 648.289C1694.75 648.289 1694.74 648.288 1694.74 648.288ZM1694.69 627.65C1693.55 627.65 1692.63 626.729 1692.63 625.592L1692.61 619.401C1692.61 618.26 1693.53 617.333 1694.67 617.331C1694.67 617.331 1694.67 617.331 1694.67 617.331C1695.81 617.331 1696.73 618.252 1696.74 619.389L1696.75 625.581C1696.76 626.722 1695.83 627.649 1694.69 627.651C1694.69 627.651 1694.69 627.65 1694.69 627.65ZM1694.64 607.011C1693.5 607.011 1692.58 606.09 1692.57 604.953L1692.56 598.761C1692.55 597.62 1693.48 596.693 1694.62 596.691C1694.62 596.691 1694.62 596.691 1694.62 596.691C1695.76 596.691 1696.68 597.612 1696.68 598.749L1696.7 604.94C1696.7 606.081 1695.78 607.008 1694.64 607.01C1694.64 607.01 1694.64 607.011 1694.64 607.011Z" fill="#7D97F4"/>
<path d="M1798.45 663.045C1797.31 663.045 1796.39 662.122 1796.39 660.981V654.79C1796.39 653.649 1797.31 652.726 1798.45 652.726C1799.59 652.726 1800.51 653.649 1800.51 654.79V660.981C1800.51 662.122 1799.59 663.045 1798.45 663.045ZM1798.45 642.407C1797.31 642.407 1796.39 641.484 1796.39 640.343V634.152C1796.39 633.011 1797.31 632.088 1798.45 632.088C1799.59 632.088 1800.51 633.011 1800.51 634.152V640.343C1800.51 641.484 1799.59 642.407 1798.45 642.407ZM1798.45 621.769C1797.31 621.769 1796.39 620.846 1796.39 619.705V613.513C1796.39 612.372 1797.31 611.449 1798.45 611.449C1799.59 611.449 1800.51 612.372 1800.51 613.513V619.705C1800.51 620.845 1799.59 621.769 1798.45 621.769ZM1798.45 601.131C1797.31 601.131 1796.39 600.208 1796.39 599.067V592.875C1796.39 591.734 1797.31 590.811 1798.45 590.811C1799.59 590.811 1800.51 591.734 1800.51 592.875V599.067C1800.51 600.207 1799.59 601.131 1798.45 601.131ZM1798.45 580.492C1797.31 580.492 1796.39 579.569 1796.39 578.428V572.237C1796.39 571.096 1797.31 570.173 1798.45 570.173C1799.59 570.173 1800.51 571.096 1800.51 572.237V578.428C1800.51 579.569 1799.59 580.492 1798.45 580.492Z" fill="#7D97F4"/>
<path d="M1877.51 680.099C1876.4 680.099 1875.48 679.216 1875.45 678.1L1875.33 674.404C1875.3 673.265 1876.19 672.312 1877.33 672.276C1878.5 672.201 1879.42 673.137 1879.46 674.275L1879.57 677.972C1879.61 679.111 1878.71 680.064 1877.57 680.1C1877.55 680.099 1877.53 680.099 1877.51 680.099ZM1876.95 661.964C1875.84 661.964 1874.92 661.081 1874.88 659.965L1874.69 653.776C1874.66 652.637 1875.55 651.684 1876.69 651.648C1877.85 651.616 1878.78 652.509 1878.82 653.648L1879.01 659.837C1879.04 660.976 1878.15 661.929 1877.01 661.965C1876.99 661.964 1876.97 661.964 1876.95 661.964ZM1876.31 641.336C1875.2 641.336 1874.28 640.453 1874.24 639.337L1874.05 633.148C1874.02 632.007 1874.91 631.056 1876.05 631.02C1877.15 631.03 1878.14 631.882 1878.18 633.019L1878.37 639.209C1878.4 640.35 1877.51 641.301 1876.37 641.337C1876.35 641.336 1876.33 641.336 1876.31 641.336ZM1875.67 620.708C1874.56 620.708 1873.64 619.825 1873.6 618.709L1873.41 612.519C1873.38 611.378 1874.27 610.427 1875.41 610.391C1876.51 610.334 1877.5 611.251 1877.54 612.39L1877.73 618.58C1877.76 619.721 1876.87 620.672 1875.73 620.708C1875.71 620.708 1875.69 620.708 1875.67 620.708ZM1875.03 600.08C1873.92 600.08 1873 599.197 1872.96 598.081L1872.77 591.891C1872.74 590.752 1873.63 589.799 1874.77 589.763C1875.91 589.751 1876.86 590.623 1876.9 591.762L1877.09 597.951C1877.13 599.09 1876.23 600.043 1875.09 600.079C1875.07 600.08 1875.05 600.08 1875.03 600.08ZM1874.39 579.452C1873.28 579.452 1872.36 578.569 1872.32 577.452L1872.13 571.263C1872.1 570.124 1872.99 569.171 1874.13 569.135C1875.27 569.056 1876.22 569.996 1876.26 571.134L1876.45 577.323C1876.48 578.462 1875.59 579.415 1874.45 579.451C1874.43 579.452 1874.41 579.452 1874.39 579.452ZM1873.75 558.824C1872.64 558.824 1871.72 557.941 1871.68 556.825L1871.49 550.636C1871.46 549.497 1872.35 548.544 1873.49 548.508C1874.67 548.472 1875.58 549.369 1875.62 550.507L1875.81 556.696C1875.85 557.835 1874.95 558.788 1873.81 558.824C1873.79 558.824 1873.77 558.824 1873.75 558.824Z" fill="#7D97F4"/>
<path d="M1952.66 668.548C1951.52 668.548 1950.59 667.625 1950.59 666.484V660.293C1950.59 659.152 1951.52 658.229 1952.66 658.229C1953.8 658.229 1954.72 659.152 1954.72 660.293V666.484C1954.72 667.625 1953.8 668.548 1952.66 668.548ZM1952.66 647.91C1951.52 647.91 1950.59 646.987 1950.59 645.846V639.655C1950.59 638.514 1951.52 637.591 1952.66 637.591C1953.8 637.591 1954.72 638.514 1954.72 639.655V645.846C1954.72 646.987 1953.8 647.91 1952.66 647.91ZM1952.66 627.272C1951.52 627.272 1950.59 626.349 1950.59 625.208V619.016C1950.59 617.875 1951.52 616.952 1952.66 616.952C1953.8 616.952 1954.72 617.875 1954.72 619.016V625.208C1954.72 626.349 1953.8 627.272 1952.66 627.272ZM1952.66 606.634C1951.52 606.634 1950.59 605.711 1950.59 604.57V598.378C1950.59 597.237 1951.52 596.314 1952.66 596.314C1953.8 596.314 1954.72 597.237 1954.72 598.378V604.57C1954.72 605.71 1953.8 606.634 1952.66 606.634ZM1952.66 585.995C1951.52 585.995 1950.59 585.072 1950.59 583.931V577.74C1950.59 576.599 1951.52 575.676 1952.66 575.676C1953.8 575.676 1954.72 576.599 1954.72 577.74V583.931C1954.72 585.072 1953.8 585.995 1952.66 585.995ZM1952.66 565.357C1951.52 565.357 1950.59 564.434 1950.59 563.293V557.102C1950.59 555.961 1951.52 555.038 1952.66 555.038C1953.8 555.038 1954.72 555.961 1954.72 557.102V563.293C1954.72 564.434 1953.8 565.357 1952.66 565.357ZM1952.66 544.719C1951.52 544.719 1950.59 543.796 1950.59 542.655V536.463C1950.59 535.322 1951.52 534.399 1952.66 534.399C1953.8 534.399 1954.72 535.322 1954.72 536.463V542.655C1954.72 543.796 1953.8 544.719 1952.66 544.719ZM1952.66 524.081C1951.52 524.081 1950.59 523.158 1950.59 522.017V515.826C1950.59 514.685 1951.52 513.762 1952.66 513.762C1953.8 513.762 1954.72 514.685 1954.72 515.826V522.017C1954.72 523.158 1953.8 524.081 1952.66 524.081ZM1952.66 503.443C1951.52 503.443 1950.59 502.52 1950.59 501.379V495.188C1950.59 494.047 1951.52 493.124 1952.66 493.124C1953.8 493.124 1954.72 494.047 1954.72 495.188V501.379C1954.72 502.52 1953.8 503.443 1952.66 503.443Z" fill="#7D97F4"/>
<path d="M1583.84 692.911C1582.24 692.911 1580.89 691.692 1580.75 690.077L1559.6 440.22C1559.46 438.515 1560.72 437.018 1562.42 436.873C1564.14 436.78 1565.62 437.993 1565.77 439.697L1586.93 689.554C1587.07 691.259 1585.81 692.757 1584.1 692.901C1584.01 692.907 1583.92 692.911 1583.84 692.911Z" fill="#7D97F4"/>
<path d="M1553.26 453.132L1562.84 441.782L1574.18 451.361L1573.43 442.481L1562.09 432.908L1552.51 444.251L1553.26 453.132Z" fill="#7D97F4"/>
<path d="M2003.13 681.131H1567.79C1566.08 681.131 1564.69 679.744 1564.69 678.035C1564.69 676.326 1566.08 674.939 1567.79 674.939H2003.13C2004.84 674.939 2006.23 676.326 2006.23 678.035C2006.23 679.745 2004.84 681.131 2003.13 681.131Z" fill="#7D97F4"/>
<path d="M1990.8 688.532L2001.3 678.036L1990.8 667.539H1999.71L2010.21 678.036L1999.71 688.532H1990.8Z" fill="#7D97F4"/>
<path d="M1601.95 609.34C1600.42 609.34 1599.09 608.21 1598.88 606.654C1598.66 604.959 1599.85 603.401 1601.54 603.175C1603.83 602.871 1831.77 571.658 1956.55 479.653C1957.92 478.635 1959.86 478.929 1960.87 480.306C1961.89 481.683 1961.6 483.621 1960.22 484.635C1834.15 577.591 1604.67 609.007 1602.36 609.313C1602.22 609.332 1602.09 609.34 1601.95 609.34Z" fill="#7D97F4"/>
<path d="M1959.34 498.61C1959.26 498.61 1959.18 498.606 1959.09 498.6C1957.39 498.467 1956.12 496.976 1956.25 495.273L1957.21 483.112L1940.06 482.094C1938.36 481.993 1937.06 480.528 1937.16 478.821C1937.26 477.114 1938.71 475.777 1940.43 475.915L1960.72 477.118C1961.55 477.166 1962.33 477.547 1962.88 478.174C1963.42 478.801 1963.69 479.621 1963.63 480.45L1962.42 495.757C1962.29 497.379 1960.94 498.61 1959.34 498.61Z" fill="#7D97F4"/>
<path d="M131.475 1364.88H563.316C577.086 1364.88 588.25 1353.72 588.25 1339.95V693.151C588.25 679.407 577.127 668.254 563.383 668.217L128.089 667.049C114.24 667.012 103.015 678.267 103.089 692.116L106.542 1340.08C106.615 1353.8 117.756 1364.88 131.475 1364.88Z" fill="url(#paint30_linear_85_5)"/>
<path d="M152.636 698.964L538.771 701.342C552.729 701.428 563.98 712.801 563.915 726.759L561.22 1307.28C561.156 1321.03 550.127 1332.21 536.382 1332.46L161.204 1339.31C147.192 1339.56 135.641 1328.38 135.445 1314.36L127.182 724.619C126.984 710.446 138.464 698.876 152.636 698.964Z" fill="#91B3FA"/>
<path d="M168.336 731.487V734.149C168.336 738.329 171.724 741.719 175.904 741.719H473.42C477.6 741.719 480.989 738.329 480.989 734.149V731.487C480.989 727.307 477.6 723.918 473.42 723.918H175.905C171.725 723.919 168.336 727.307 168.336 731.487Z" fill="url(#paint31_linear_85_5)"/>
<path d="M201.532 764.971C201.747 768.933 204.985 772.057 208.952 772.129L469.144 776.871C473.377 776.948 476.85 773.538 476.85 769.304V768.686C476.85 764.553 473.534 761.184 469.401 761.118L209.209 756.994C204.821 756.925 201.294 760.589 201.532 764.971Z" fill="url(#paint32_linear_85_5)"/>
<path d="M174.974 1320.43C162.749 1320.43 152.675 1310.56 152.457 1298.31L144.014 823.509C143.793 811.113 153.698 800.833 166.094 800.591L517.403 793.753C523.372 793.642 529.122 795.87 533.458 800.043C537.795 804.218 540.245 809.829 540.359 815.845L549.414 1293.25C549.528 1299.3 547.275 1305.02 543.065 1309.36C538.857 1313.7 533.211 1316.13 527.166 1316.2L175.243 1320.43C175.155 1320.43 175.064 1320.43 174.974 1320.43ZM517.848 802.839C517.759 802.839 517.669 802.841 517.581 802.844L166.272 809.682C158.879 809.824 152.972 815.956 153.103 823.349L161.546 1298.15C161.677 1305.45 167.686 1311.34 174.976 1311.34C175.029 1311.34 175.084 1311.34 175.137 1311.34L527.06 1307.11C530.664 1307.07 534.032 1305.62 536.541 1303.03C539.05 1300.44 540.395 1297.03 540.327 1293.43L531.272 816.018C531.203 812.429 529.742 809.082 527.155 806.594C524.633 804.167 521.337 802.839 517.848 802.839Z" fill="url(#paint33_linear_85_5)"/>
<path d="M536.387 850.613H153.117C150.607 850.613 148.572 848.578 148.572 846.068C148.572 843.558 150.607 841.523 153.117 841.523H536.387C538.897 841.523 540.932 843.558 540.932 846.068C540.933 848.577 538.897 850.613 536.387 850.613Z" fill="url(#paint34_linear_85_5)"/>
<path opacity="0.6" d="M236.334 1100.94C236.334 1098.28 234.174 1096.12 231.51 1096.12H193.403C190.739 1096.12 188.579 1098.28 188.579 1100.94V1264.72C188.579 1267.38 190.739 1269.54 193.403 1269.54H231.51C234.174 1269.54 236.334 1267.38 236.334 1264.72V1100.94Z" fill="url(#paint35_linear_85_5)"/>
<path opacity="0.6" d="M353.365 1075.38H315.351C312.687 1075.38 310.481 1077.94 310.481 1080.93V1263.81C310.481 1266.79 312.687 1269.54 315.351 1269.54H353.365C356.029 1269.54 358.864 1266.79 358.864 1263.81V1080.93C358.864 1077.94 356.029 1075.38 353.365 1075.38Z" fill="url(#paint36_linear_85_5)"/>
<path opacity="0.6" d="M296.028 1046.9C296.028 1044.24 293.868 1042.08 291.204 1042.08H253.097C250.433 1042.08 248.273 1044.24 248.273 1046.9V1264.72C248.273 1267.38 250.433 1269.54 253.097 1269.54H291.204C293.869 1269.54 296.028 1267.38 296.028 1264.72V1046.9Z" fill="url(#paint37_linear_85_5)"/>
<path opacity="0.6" d="M502.759 969.612C502.759 966.948 500.599 964.788 497.935 964.788H459.828C457.164 964.788 455.004 966.948 455.004 969.612V1264.72C455.004 1267.38 457.164 1269.54 459.828 1269.54H497.935C500.599 1269.54 502.759 1267.38 502.759 1264.72V969.612Z" fill="url(#paint38_linear_85_5)"/>
<path opacity="0.6" d="M431.754 1011.71C431.754 1009.05 429.594 1006.89 426.93 1006.89H388.823C386.158 1006.89 383.999 1009.05 383.999 1011.71V1264.72C383.999 1267.38 386.159 1269.54 388.823 1269.54H426.93C429.594 1269.54 431.754 1267.38 431.754 1264.72V1011.71Z" fill="url(#paint39_linear_85_5)"/>
<g opacity="0.6">
<path d="M210.805 1037.62L209.901 1035.97L273.457 1001.24L332.541 1027.21L383.273 977.448L383.373 977.39L442.941 942.235L443.899 943.859L384.429 978.955L332.951 1029.45L273.547 1003.34L210.805 1037.62Z" fill="url(#paint40_linear_85_5)"/>
<path d="M217.19 1036.79C217.19 1040.57 214.129 1043.63 210.354 1043.63C206.579 1043.63 203.518 1040.57 203.518 1036.79C203.518 1033.02 206.578 1029.96 210.354 1029.96C214.129 1029.96 217.19 1033.02 217.19 1036.79Z" fill="url(#paint41_linear_85_5)"/>
<path d="M273.503 1009.13C277.278 1009.13 280.339 1006.07 280.339 1002.29C280.339 998.515 277.278 995.455 273.503 995.455C269.728 995.455 266.667 998.515 266.667 1002.29C266.667 1006.07 269.728 1009.13 273.503 1009.13Z" fill="url(#paint42_linear_85_5)"/>
<path d="M332.746 1033.87C336.522 1033.87 339.582 1030.8 339.582 1027.03C339.582 1023.25 336.522 1020.19 332.746 1020.19C328.971 1020.19 325.91 1023.25 325.91 1027.03C325.91 1030.8 328.971 1033.87 332.746 1033.87Z" fill="url(#paint43_linear_85_5)"/>
<path d="M382.225 985.038C386 985.038 389.061 981.978 389.061 978.202C389.061 974.427 386 971.366 382.225 971.366C378.449 971.366 375.389 974.427 375.389 978.202C375.389 981.978 378.449 985.038 382.225 985.038Z" fill="url(#paint44_linear_85_5)"/>
<path d="M450.257 943.047C450.257 946.822 447.197 949.883 443.421 949.883C439.646 949.883 436.585 946.822 436.585 943.047C436.585 939.272 439.645 936.211 443.421 936.211C447.197 936.211 450.257 939.271 450.257 943.047Z" fill="url(#paint45_linear_85_5)"/>
</g>
<path d="M366.535 1162.88L369.51 1339.99C369.741 1353.75 380.96 1364.78 394.719 1364.78H742.334C756.259 1364.78 767.546 1353.49 767.546 1339.57V1173.81C767.546 1160.2 756.749 1149.05 743.149 1148.61L392.558 1137.26C378.156 1136.79 366.293 1148.47 366.535 1162.88Z" fill="url(#paint46_linear_85_5)"/>
<path d="M395.31 1180.14L402.853 1343C403.143 1349.26 408.355 1354.15 414.615 1354.04L731.152 1348.46C737.462 1348.35 742.52 1343.21 742.52 1336.89V1195.65C742.52 1189.48 737.682 1184.4 731.521 1184.09L407.441 1168.05C400.621 1167.71 394.994 1173.32 395.31 1180.14Z" fill="url(#paint47_linear_85_5)"/>
<path d="M420.552 1195.41V1207.14C420.552 1211.28 423.941 1214.61 428.076 1214.55L701.092 1210.09C705.133 1210.02 708.375 1206.73 708.375 1202.69C708.375 1198.68 705.179 1195.39 701.169 1195.29L428.153 1188.01C423.988 1187.9 420.552 1191.25 420.552 1195.41Z" fill="url(#paint48_linear_85_5)"/>
<path d="M424.628 1239.73V1250.49C424.628 1254.68 428.102 1258.03 432.289 1257.89L692.322 1248.83C696.308 1248.69 699.468 1245.42 699.468 1241.43V1238.08C699.468 1233.97 696.125 1230.65 692.018 1230.67L431.985 1232.33C427.914 1232.35 424.628 1235.66 424.628 1239.73Z" fill="url(#paint49_linear_85_5)"/>
<path d="M108.21 416.513C122.413 416.513 135.493 421.298 145.948 429.33L168.06 398.043C151.798 386.354 131.866 379.449 110.309 379.449C107.457 379.449 104.603 379.609 101.754 379.864L107.429 416.535C107.69 416.531 107.95 416.513 108.21 416.513Z" fill="#7D97F4"/>
<path d="M108.21 540.551C73.958 540.551 39.165 515.035 39.165 480.783C39.165 446.791 73.432 416.985 107.431 416.534L101.756 379.863C49.945 384.496 0 430.259 0 482.128C0 536.85 55.587 577.615 110.309 577.615C124.654 577.615 138.273 574.542 150.582 569.057L128.308 537.201C122.003 539.362 115.247 540.551 108.21 540.551Z" fill="url(#paint50_linear_85_5)"/>
<path d="M209.393 478.532C209.393 445.366 193.081 416.028 168.06 398.043L145.948 429.33C160.706 440.667 170.228 458.484 170.228 478.532C170.228 505.747 152.691 528.85 128.308 537.202L150.582 569.058C185.228 553.621 209.393 518.909 209.393 478.532Z" fill="url(#paint51_linear_85_5)"/>
<path d="M390.972 416.513C415.3 416.513 436.344 430.528 446.503 450.918L472.058 418.723C453.965 394.865 425.323 379.447 393.071 379.447C367.764 379.447 342.284 389.717 322.191 406.156L344.829 434.737C357.661 423.575 374.374 416.513 390.972 416.513Z" fill="url(#paint52_linear_85_5)"/>
<path d="M321.928 480.783C321.928 463.129 331.183 446.612 344.831 434.739L322.193 406.158C298.838 425.266 282.764 452.713 282.764 482.129C282.764 536.159 336.954 576.554 390.997 577.568L389.261 540.512C355.571 539.679 321.928 514.464 321.928 480.783Z" fill="url(#paint53_linear_85_5)"/>
<path d="M390.973 540.551C390.402 540.551 389.831 540.525 389.26 540.511L390.996 577.567C391.688 577.58 392.381 577.615 393.073 577.615C431.507 577.615 464.805 555.717 481.238 523.73C471.756 519.451 457.688 513.329 445.517 508.073C435.018 527.417 414.529 540.551 390.973 540.551Z" fill="url(#paint54_linear_85_5)"/>
<path d="M472.06 418.724L446.505 450.919C450.649 459.236 452.992 468.609 452.992 478.533C452.992 489.229 450.284 499.292 445.517 508.075C457.688 513.33 471.756 519.453 481.238 523.732C488.202 510.177 492.157 494.821 492.157 478.533C492.157 456.061 484.666 435.347 472.06 418.724Z" fill="url(#paint55_linear_85_5)"/>
<path d="M673.737 416.513C686.972 416.513 699.229 420.672 709.3 427.736L729.284 395.119C713.86 385.216 695.528 379.448 675.837 379.448C649.663 379.448 623.307 390.437 602.915 407.872L626.629 435.578C639.579 423.925 656.722 416.513 673.737 416.513Z" fill="url(#paint56_linear_85_5)"/>
<path d="M735.647 474.969L774.252 467.164C770.794 436.905 753.711 410.804 729.284 395.119L709.301 427.736C724.382 438.315 734.54 455.427 735.647 474.969Z" fill="url(#paint57_linear_85_5)"/>
<path d="M604.691 480.783C604.691 463.546 613.508 447.385 626.628 435.579L602.914 407.873C580.672 426.891 565.526 453.58 565.526 482.128C565.526 517.583 588.872 547.162 620.189 563.608L639.558 532.134C619.627 521.911 604.691 503.223 604.691 480.783Z" fill="url(#paint58_linear_85_5)"/>
<path d="M735.646 474.969C735.713 476.149 735.755 477.335 735.755 478.532C735.755 512.784 707.988 540.551 673.736 540.551C661.924 540.551 650.049 537.514 639.557 532.134L620.188 563.608C637.205 572.545 656.568 577.616 675.835 577.616C730.557 577.616 774.918 533.254 774.918 478.532C774.918 474.685 774.676 470.897 774.249 467.165L735.646 474.969Z" fill="url(#paint59_linear_85_5)"/>
<path d="M130.602 394.926C131.856 394.926 133.112 394.465 134.095 393.534L203.058 328.21C209.055 322.529 216.908 319.401 225.169 319.401H459.898C462.703 319.401 464.977 317.127 464.977 314.322C464.977 311.516 462.703 309.243 459.898 309.243H225.169C214.298 309.243 203.965 313.36 196.072 320.835L127.108 386.159C125.071 388.088 124.984 391.303 126.913 393.339C127.913 394.394 129.257 394.926 130.602 394.926Z" fill="#7D97F4"/>
<path d="M261.211 287.9H459.898C462.703 287.9 464.977 285.626 464.977 282.821C464.977 280.016 462.703 277.742 459.898 277.742H261.211C258.406 277.742 256.132 280.016 256.132 282.821C256.132 285.627 258.406 287.9 261.211 287.9Z" fill="#7D97F4"/>
<path d="M293.539 256.4H459.898C462.703 256.4 464.977 254.126 464.977 251.321C464.977 248.516 462.703 246.242 459.898 246.242H293.539C290.734 246.242 288.46 248.516 288.46 251.321C288.46 254.126 290.734 256.4 293.539 256.4Z" fill="#7D97F4"/>
<path d="M1640.19 196.924L1651.59 196.588C1652.84 196.551 1653.89 197.536 1653.93 198.789C1653.96 200.041 1652.98 201.086 1651.73 201.123L1651.69 201.124L1640.39 201.466L1640.32 201.468C1639.07 201.506 1638.02 200.52 1637.98 199.265C1637.95 198.01 1638.93 196.963 1640.19 196.925L1640.19 196.924Z" fill="#7D97F4"/>
<path d="M1662.97 196.422L1674.35 196.383C1675.6 196.378 1676.61 197.387 1676.62 198.634C1676.62 199.881 1675.61 200.896 1674.37 200.901H1674.34L1663.01 200.949H1662.99C1661.74 200.955 1660.72 199.945 1660.72 198.695C1660.71 197.445 1661.72 196.427 1662.97 196.422H1662.97Z" fill="#7D97F4"/>
<path d="M1685.73 196.459L1697.11 196.642C1698.35 196.662 1699.34 197.686 1699.32 198.928C1699.3 200.17 1698.28 201.161 1697.04 201.141H1697.02L1685.68 200.967L1685.66 200.966C1684.41 200.947 1683.42 199.922 1683.44 198.678C1683.46 197.433 1684.48 196.439 1685.73 196.458H1685.73V196.459Z" fill="#7D97F4"/>
<path d="M1708.48 196.931L1719.86 197.323C1721.09 197.366 1722.06 198.403 1722.02 199.639C1721.97 200.876 1720.94 201.843 1719.7 201.801L1719.68 201.8L1708.35 201.419L1708.33 201.418C1707.09 201.376 1706.12 200.338 1706.16 199.099C1706.2 197.859 1707.24 196.889 1708.48 196.931H1708.48Z" fill="#7D97F4"/>
<path d="M1731.22 197.819L1742.59 198.419C1743.82 198.484 1744.76 199.534 1744.7 200.765C1744.63 201.996 1743.58 202.94 1742.35 202.875L1742.33 202.874L1731.01 202.285L1730.99 202.284C1729.75 202.22 1728.81 201.168 1728.87 199.935C1728.93 198.702 1729.99 197.754 1731.22 197.818L1731.22 197.819Z" fill="#7D97F4"/>
<path d="M1753.95 199.126L1765.3 199.942C1766.52 200.03 1767.44 201.093 1767.35 202.317C1767.27 203.541 1766.2 204.462 1764.98 204.374L1764.96 204.372L1753.65 203.569L1753.63 203.568C1752.4 203.481 1751.48 202.416 1751.57 201.189C1751.65 199.962 1752.72 199.038 1753.95 199.125L1753.95 199.126Z" fill="#7D97F4"/>
<path d="M1776.64 200.869L1787.98 201.91C1789.2 202.022 1790.09 203.099 1789.98 204.316C1789.87 205.533 1788.79 206.429 1787.57 206.317L1787.55 206.316L1776.26 205.287L1776.24 205.285C1775.02 205.174 1774.12 204.095 1774.23 202.876C1774.34 201.656 1775.42 200.758 1776.64 200.868L1776.64 200.869Z" fill="#7D97F4"/>
<path d="M1799.3 203.069L1810.61 204.35C1811.82 204.487 1812.69 205.579 1812.55 206.788C1812.41 207.998 1811.32 208.866 1810.11 208.729L1810.09 208.727L1798.83 207.46L1798.8 207.457C1797.59 207.321 1796.72 206.228 1796.85 205.016C1796.99 203.804 1798.08 202.933 1799.29 203.068L1799.3 203.069Z" fill="#7D97F4"/>
<path d="M1821.91 205.758L1833.2 207.299C1834.4 207.463 1835.24 208.57 1835.07 209.77C1834.91 210.97 1833.8 211.811 1832.6 211.646L1832.58 211.643L1821.34 210.118L1821.32 210.115C1820.12 209.952 1819.27 208.844 1819.44 207.64C1819.6 206.437 1820.71 205.594 1821.91 205.757L1821.91 205.758Z" fill="#7D97F4"/>
<path d="M1844.46 208.98L1855.71 210.806C1856.9 210.999 1857.71 212.122 1857.51 213.313C1857.32 214.504 1856.2 215.313 1855.01 215.12L1854.98 215.116L1843.79 213.309L1843.76 213.305C1842.57 213.112 1841.76 211.988 1841.95 210.794C1842.14 209.601 1843.27 208.789 1844.46 208.982L1844.46 208.98Z" fill="#7D97F4"/>
<path d="M1866.93 212.783L1878.12 214.921C1879.3 215.146 1880.07 216.286 1879.85 217.466C1879.62 218.646 1878.48 219.42 1877.3 219.195L1877.27 219.189L1866.14 217.072L1866.11 217.066C1864.93 216.841 1864.15 215.699 1864.38 214.517C1864.6 213.334 1865.74 212.557 1866.93 212.782V212.783Z" fill="#7D97F4"/>
<path d="M1889.28 217.229L1900.41 219.716C1901.57 219.977 1902.31 221.135 1902.05 222.303C1901.79 223.471 1900.63 224.206 1899.46 223.944L1899.43 223.937L1888.37 221.475L1888.33 221.467C1887.16 221.206 1886.43 220.046 1886.69 218.876C1886.95 217.706 1888.11 216.968 1889.28 217.229H1889.28Z" fill="#7D97F4"/>
<path d="M1911.49 222.394L1922.52 225.274C1923.68 225.575 1924.37 226.753 1924.07 227.906C1923.77 229.058 1922.59 229.749 1921.43 229.449L1921.4 229.439L1910.44 226.588L1910.4 226.578C1909.24 226.277 1908.55 225.097 1908.85 223.941C1909.15 222.786 1910.33 222.093 1911.49 222.393H1911.49V222.394Z" fill="#7D97F4"/>
<path d="M1933.5 228.371L1944.42 231.698C1945.56 232.044 1946.19 233.244 1945.85 234.379C1945.5 235.514 1944.3 236.154 1943.17 235.808L1943.12 235.795L1932.29 232.504L1932.25 232.49C1931.11 232.144 1930.47 230.942 1930.82 229.805C1931.16 228.668 1932.36 228.026 1933.5 228.372H1933.5V228.371Z" fill="#7D97F4"/>
<path d="M1955.26 235.272L1966.02 239.113C1967.13 239.51 1967.71 240.734 1967.31 241.846C1966.92 242.958 1965.69 243.538 1964.58 243.141L1964.53 243.123L1953.87 239.328L1953.82 239.31C1952.71 238.913 1952.13 237.687 1952.52 236.572C1952.92 235.457 1954.15 234.875 1955.26 235.272H1955.26Z" fill="#7D97F4"/>
<path d="M1976.67 243.239L1987.21 247.674C1988.29 248.13 1988.8 249.379 1988.34 250.463C1987.89 251.547 1986.64 252.055 1985.55 251.599L1985.49 251.574L1975.08 247.198L1975.02 247.173C1973.93 246.717 1973.42 245.466 1973.88 244.379C1974.33 243.293 1975.58 242.782 1976.67 243.238L1976.67 243.239Z" fill="#7D97F4"/>
<path d="M1997.6 252.442L2007.83 257.571C2008.88 258.096 2009.3 259.37 2008.77 260.416C2008.25 261.462 2006.97 261.886 2005.93 261.361L2005.86 261.327L1995.77 256.276L1995.7 256.242C1994.65 255.717 1994.22 254.44 1994.75 253.391C1995.27 252.342 1996.55 251.917 1997.6 252.442Z" fill="#7D97F4"/>
<path d="M2017.86 263.089L2027.66 269.028C2028.66 269.632 2028.97 270.93 2028.37 271.927C2027.77 272.924 2026.47 273.242 2025.47 272.638L2025.39 272.59L2015.75 266.756L2015.67 266.709C2014.67 266.104 2014.35 264.804 2014.95 263.804C2015.56 262.805 2016.86 262.484 2017.86 263.089H2017.86Z" fill="#7D97F4"/>
<path d="M2037.22 275.251L2046.65 281.672C2047.61 282.326 2047.86 283.633 2047.2 284.592C2046.55 285.552 2045.24 285.8 2044.28 285.146L2044.24 285.122L2034.88 278.759L2034.85 278.734C2033.88 278.08 2033.63 276.77 2034.29 275.808C2034.94 274.846 2036.25 274.596 2037.21 275.25L2037.22 275.251Z" fill="#7D97F4"/>
<path d="M2055.93 288.309L2065.06 295.175C2065.98 295.87 2066.17 297.18 2065.47 298.104C2064.78 299.027 2063.47 299.213 2062.54 298.518L2062.5 298.486L2053.46 291.693L2053.41 291.66C2052.49 290.964 2052.3 289.65 2053 288.724C2053.69 287.798 2055.01 287.612 2055.93 288.307L2055.93 288.309Z" fill="#7D97F4"/>
<path d="M2074 302.292L2082.72 309.682C2083.6 310.426 2083.7 311.741 2082.96 312.618C2082.22 313.496 2080.9 313.604 2080.03 312.86L2079.97 312.817L2071.35 305.521L2071.3 305.479C2070.42 304.734 2070.31 303.417 2071.05 302.537C2071.8 301.656 2073.11 301.547 2073.99 302.291L2074 302.292Z" fill="#7D97F4"/>
<path d="M2091.19 317.367L2099.37 325.377C2100.19 326.178 2100.2 327.491 2099.4 328.309C2098.6 329.127 2097.28 329.141 2096.47 328.34L2096.41 328.281L2088.34 320.395L2088.28 320.337C2087.46 319.535 2087.45 318.219 2088.25 317.398C2089.05 316.577 2090.37 316.562 2091.19 317.365L2091.19 317.367Z" fill="#7D97F4"/>
<path d="M2107.2 333.741L2114.62 342.487C2115.36 343.356 2115.25 344.659 2114.39 345.397C2113.52 346.134 2112.21 346.028 2111.48 345.158L2111.41 345.075L2104.12 336.5L2104.05 336.42C2103.31 335.549 2103.41 334.243 2104.28 333.504C2105.15 332.764 2106.46 332.869 2107.2 333.74L2107.2 333.741Z" fill="#7D97F4"/>
<path d="M2121.56 351.646L2127.9 361.249C2128.53 362.196 2128.27 363.47 2127.32 364.095C2126.37 364.72 2125.1 364.46 2124.47 363.513L2124.39 363.394L2118.2 354.032L2118.12 353.916C2117.49 352.968 2117.75 351.691 2118.7 351.062C2119.65 350.434 2120.93 350.695 2121.56 351.643V351.646Z" fill="#7D97F4"/>
<path d="M2133.53 371.295L2138.3 381.803C2138.77 382.831 2138.31 384.042 2137.28 384.51C2136.26 384.977 2135.04 384.523 2134.58 383.496L2134.5 383.326L2129.87 373.156L2129.79 372.992C2129.33 371.962 2129.78 370.746 2130.81 370.277C2131.84 369.808 2133.06 370.264 2133.52 371.293L2133.53 371.295Z" fill="#7D97F4"/>
<path d="M2142.06 392.741C2143.13 396.45 2144 400.219 2144.65 404.03C2144.84 405.139 2144.09 406.192 2142.98 406.381C2141.87 406.57 2140.82 405.826 2140.63 404.717C2140.01 401.062 2139.17 397.441 2138.14 393.872C2137.82 392.789 2138.45 391.657 2139.53 391.345C2140.62 391.032 2141.75 391.657 2142.06 392.741Z" fill="#7D97F4"/>
<path d="M2145.92 415.55C2146.12 419.415 2146.08 423.292 2145.8 427.152C2145.72 428.269 2144.75 429.111 2143.64 429.031C2142.52 428.951 2141.68 427.982 2141.76 426.865C2142.02 423.169 2142.06 419.457 2141.87 415.757C2141.81 414.636 2142.67 413.68 2143.79 413.622C2144.91 413.564 2145.87 414.427 2145.92 415.547V415.55Z" fill="#7D97F4"/>
<path d="M2144.28 438.651C2143.54 442.447 2142.59 446.198 2141.43 449.881C2141.09 450.944 2139.96 451.535 2138.9 451.2C2137.83 450.865 2137.24 449.734 2137.58 448.67C2138.69 445.126 2139.61 441.524 2140.31 437.883C2140.52 436.786 2141.58 436.068 2142.68 436.279C2143.77 436.49 2144.49 437.552 2144.28 438.649V438.651Z" fill="#7D97F4"/>
<path d="M2137.38 460.712L2132.3 471.076C2131.81 472.071 2130.61 472.482 2129.61 471.994C2128.62 471.506 2128.21 470.303 2128.7 469.308L2128.78 469.145L2133.69 459.111L2133.77 458.941C2134.26 457.943 2135.46 457.529 2136.46 458.017C2137.46 458.505 2137.87 459.711 2137.38 460.71L2137.38 460.712Z" fill="#7D97F4"/>
<path d="M2126.35 480.941L2119.67 490.309C2119.03 491.208 2117.78 491.418 2116.88 490.777C2115.98 490.136 2115.77 488.888 2116.41 487.989L2116.49 487.877L2123 478.736L2123.08 478.617C2123.72 477.715 2124.98 477.505 2125.88 478.146C2126.78 478.787 2126.99 480.039 2126.35 480.94L2126.35 480.941Z" fill="#7D97F4"/>
<path d="M2112.4 499.192L2104.64 507.632C2103.9 508.442 2102.64 508.494 2101.83 507.75C2101.02 507.006 2100.97 505.746 2101.71 504.937L2101.78 504.86L2109.39 496.572L2109.46 496.491C2110.21 495.679 2111.47 495.625 2112.28 496.371C2113.09 497.116 2113.15 498.378 2112.4 499.19L2112.4 499.192Z" fill="#7D97F4"/>
<path d="M2096.47 515.662L2087.96 523.308C2087.15 524.04 2085.9 523.973 2085.17 523.159C2084.43 522.345 2084.5 521.092 2085.32 520.36L2085.37 520.307L2093.75 512.765L2093.81 512.708C2094.63 511.974 2095.89 512.04 2096.62 512.855C2097.35 513.67 2097.29 514.926 2096.47 515.66L2096.47 515.662Z" fill="#7D97F4"/>
<path d="M2079.17 530.615L2070.25 537.67L2070.24 537.681C2069.38 538.357 2068.14 538.213 2067.47 537.359C2066.79 536.505 2066.93 535.265 2067.79 534.589L2076.69 527.529L2076.71 527.516C2077.57 526.837 2078.81 526.981 2079.49 527.837C2080.17 528.693 2080.02 529.937 2079.17 530.615H2079.17Z" fill="#7D97F4"/>
<path d="M2061.44 544.811L2052.75 552.089L2052.72 552.112C2051.89 552.808 2050.65 552.699 2049.96 551.867C2049.26 551.036 2049.37 549.799 2050.2 549.102L2058.94 541.773C2059.77 541.075 2061.01 541.183 2061.71 542.016C2062.41 542.849 2062.3 544.09 2061.47 544.789L2061.47 544.79L2061.44 544.811Z" fill="#7D97F4"/>
<path d="M2044.2 559.529L2035.84 567.159L2035.8 567.194C2035 567.921 2033.77 567.864 2033.04 567.067C2032.31 566.27 2032.37 565.035 2033.17 564.307L2041.6 556.603C2042.4 555.873 2043.64 555.929 2044.37 556.728C2045.1 557.526 2045.04 558.765 2044.24 559.495L2044.24 559.496L2044.2 559.529Z" fill="#7D97F4"/>
<path d="M2027.7 575.016L2019.87 583.149L2019.81 583.207C2019.06 583.98 2017.83 584.003 2017.06 583.258C2016.29 582.513 2016.26 581.283 2017.01 580.509L2024.95 572.257C2025.69 571.481 2026.93 571.457 2027.7 572.204C2028.48 572.951 2028.5 574.185 2027.76 574.961L2027.75 574.962L2027.7 575.016Z" fill="#7D97F4"/>
<path d="M2012.42 591.614L2005.51 600.48L2005.43 600.588C2004.77 601.431 2003.56 601.581 2002.72 600.925C2001.87 600.268 2001.72 599.054 2002.38 598.211L2009.44 589.132C2010.1 588.286 2011.32 588.134 2012.16 588.792C2013.01 589.45 2013.16 590.668 2012.5 591.514L2012.5 591.515L2012.42 591.614Z" fill="#7D97F4"/>
<path d="M1999.34 609.821C1997.44 613.021 1995.71 616.312 1994.2 619.696C1993.77 620.669 1992.64 621.108 1991.66 620.676C1990.69 620.245 1990.25 619.107 1990.68 618.135C1992.25 614.591 1994.06 611.164 1996.02 607.849C1996.57 606.932 1997.75 606.63 1998.67 607.174C1999.59 607.718 1999.89 608.903 1999.34 609.82L1999.34 609.821Z" fill="#7D97F4"/>
<path d="M1990.47 630.109C1989.5 633.658 1988.83 637.283 1988.5 640.939C1988.41 641.994 1987.47 642.771 1986.42 642.675C1985.36 642.58 1984.59 641.648 1984.68 640.593C1985.03 636.708 1985.74 632.856 1986.76 629.1C1987.04 628.076 1988.09 627.471 1989.12 627.749C1990.14 628.027 1990.75 629.083 1990.47 630.107V630.109Z" fill="#7D97F4"/>
<path d="M1988.48 651.956C1988.78 655.628 1989.39 659.281 1990.23 662.892C1990.47 663.918 1989.83 664.944 1988.8 665.182C1987.78 665.421 1986.75 664.783 1986.51 663.757C1985.64 659.992 1984.99 656.154 1984.67 652.275C1984.58 651.223 1985.36 650.298 1986.41 650.209C1987.46 650.12 1988.39 650.901 1988.48 651.954V651.956Z" fill="#7D97F4"/>
<path d="M1993.36 673.604L1997.43 684.065L1997.48 684.178C1997.86 685.155 1997.37 686.255 1996.4 686.635C1995.42 687.015 1994.32 686.532 1993.94 685.556L1989.77 674.852C1989.38 673.873 1989.87 672.77 1990.85 672.389C1991.83 672.007 1992.93 672.491 1993.31 673.47V673.472L1993.36 673.604Z" fill="#7D97F4"/>
<path d="M2002.09 694.342L2007.08 704.501L2007.1 704.533C2007.56 705.47 2007.17 706.602 2006.23 707.062C2005.3 707.522 2004.17 707.137 2003.71 706.2L1998.67 695.972C1998.21 695.033 1998.6 693.898 1999.54 693.436C2000.47 692.974 2001.61 693.36 2002.07 694.299L2002.07 694.3L2002.09 694.342Z" fill="#7D97F4"/>
<path d="M2012.2 714.694L2016.59 725.353C2016.99 726.312 2016.53 727.41 2015.57 727.806C2014.61 728.201 2013.51 727.743 2013.12 726.783L2013.06 726.637L2008.79 716.298L2008.72 716.129C2008.32 715.168 2008.78 714.068 2009.74 713.671C2010.7 713.274 2011.8 713.73 2012.2 714.691V714.694Z" fill="#7D97F4"/>
<path d="M2020.12 736.281L2022.93 747.404C2023.18 748.405 2022.57 749.423 2021.57 749.675C2020.57 749.928 2019.55 749.321 2019.3 748.319L2019.27 748.212L2016.51 737.312L2016.48 737.2C2016.23 736.196 2016.84 735.176 2017.84 734.922C2018.84 734.667 2019.86 735.275 2020.12 736.279L2020.12 736.281Z" fill="#7D97F4"/>
<path d="M2025.08 758.662L2026.61 770.019C2026.75 771.038 2026.03 771.975 2025.01 772.112C2023.99 772.249 2023.06 771.535 2022.92 770.516L2022.91 770.418L2021.39 759.262L2021.38 759.162C2021.24 758.141 2021.96 757.201 2022.98 757.062C2024 756.924 2024.94 757.641 2025.08 758.662Z" fill="#7D97F4"/>
<path d="M2027.53 781.438L2027.84 792.89C2027.87 793.913 2027.06 794.764 2026.04 794.792C2025.02 794.82 2024.17 794.013 2024.14 792.991L2024.13 792.895L2023.82 781.64L2023.81 781.542C2023.79 780.517 2024.59 779.663 2025.62 779.634C2026.64 779.605 2027.5 780.413 2027.53 781.438Z" fill="#7D97F4"/>
<path d="M2027.55 804.342L2026.64 815.765C2026.56 816.78 2025.67 817.537 2024.66 817.457C2023.65 817.376 2022.89 816.489 2022.97 815.474L2022.98 815.377L2023.86 804.151L2023.87 804.052C2023.95 803.035 2024.83 802.275 2025.85 802.355C2026.87 802.434 2027.63 803.324 2027.55 804.341L2027.55 804.342Z" fill="#7D97F4"/>
<path d="M2025.13 827.117L2022.99 838.372C2022.81 839.367 2021.85 840.021 2020.85 839.832C2019.86 839.644 2019.2 838.685 2019.39 837.69L2019.41 837.593L2021.49 826.533L2021.51 826.434C2021.7 825.436 2022.66 824.78 2023.66 824.968C2024.66 825.156 2025.31 826.117 2025.13 827.115V827.117Z" fill="#7D97F4"/>
<path d="M2020.25 849.497L2016.9 860.454C2016.6 861.417 2015.58 861.959 2014.62 861.665C2013.66 861.37 2013.12 860.35 2013.41 859.387L2013.44 859.292L2016.72 848.526L2016.75 848.43C2017.05 847.464 2018.07 846.92 2019.04 847.214C2020 847.509 2020.54 848.531 2020.25 849.497Z" fill="#7D97F4"/>
<path d="M2012.95 871.209L2008.41 881.731C2008.02 882.652 2006.95 883.077 2006.03 882.68C2005.11 882.283 2004.68 881.215 2005.08 880.295L2005.12 880.205L2009.57 869.861L2009.61 869.77C2010 868.847 2011.07 868.42 2012 868.817C2012.92 869.214 2013.35 870.284 2012.95 871.207L2012.95 871.209Z" fill="#7D97F4"/>
<path d="M2003.31 891.991L1997.67 901.961C1997.18 902.829 1996.07 903.134 1995.21 902.643C1994.34 902.151 1994.03 901.049 1994.52 900.182L1994.57 900.1L2000.11 890.293L2000.16 890.209C2000.65 889.339 2001.76 889.032 2002.63 889.523C2003.5 890.015 2003.8 891.12 2003.31 891.99L2003.31 891.991Z" fill="#7D97F4"/>
<path d="M1991.51 911.611L1984.87 920.933C1984.29 921.741 1983.17 921.93 1982.36 921.354C1981.56 920.779 1981.37 919.657 1981.94 918.848L1981.99 918.776L1988.52 909.598L1988.58 909.523C1989.15 908.712 1990.28 908.523 1991.09 909.099C1991.9 909.675 1992.09 910.8 1991.51 911.611Z" fill="#7D97F4"/>
<path d="M1977.77 929.913L1970.26 938.539C1969.61 939.283 1968.48 939.361 1967.73 938.712C1966.99 938.063 1966.91 936.934 1967.56 936.19L1967.61 936.128L1975.01 927.623L1975.07 927.559C1975.72 926.812 1976.85 926.733 1977.6 927.383C1978.35 928.033 1978.42 929.165 1977.77 929.911L1977.77 929.913Z" fill="#7D97F4"/>
<path d="M1962.35 946.806L1954.09 954.715C1953.38 955.395 1952.25 955.37 1951.57 954.661C1950.89 953.951 1950.92 952.826 1951.63 952.146L1951.68 952.094L1959.83 944.284L1959.88 944.23C1960.59 943.549 1961.72 943.572 1962.4 944.283C1963.09 944.994 1963.06 946.122 1962.35 946.804L1962.35 946.806Z" fill="#7D97F4"/>
<path d="M1945.5 962.268L1936.63 969.464C1935.87 970.079 1934.76 969.963 1934.14 969.204C1933.53 968.445 1933.64 967.331 1934.4 966.715L1934.45 966.673L1943.21 959.557L1943.27 959.513C1944.03 958.895 1945.14 959.011 1945.76 959.771C1946.38 960.532 1946.26 961.649 1945.5 962.266L1945.5 962.268Z" fill="#7D97F4"/>
<path d="M1927.49 976.316L1918.11 982.833C1917.32 983.388 1916.22 983.19 1915.66 982.392C1915.11 981.594 1915.31 980.497 1916.1 979.942L1916.15 979.908L1925.43 973.453L1925.48 973.417C1926.28 972.86 1927.38 973.057 1927.93 973.857C1928.49 974.657 1928.29 975.757 1927.49 976.313L1927.49 976.316Z" fill="#7D97F4"/>
<path d="M1908.52 989.027L1898.73 994.906C1897.9 995.404 1896.83 995.135 1896.33 994.306C1895.83 993.477 1896.1 992.402 1896.93 991.903L1896.97 991.876L1906.66 986.047L1906.71 986.018C1907.54 985.518 1908.62 985.786 1909.12 986.617C1909.62 987.448 1909.35 988.527 1908.52 989.027H1908.52Z" fill="#7D97F4"/>
<path d="M1888.77 1000.48L1878.66 1005.76C1877.81 1006.21 1876.76 1005.88 1876.31 1005.03C1875.87 1004.17 1876.2 1003.12 1877.05 1002.68L1877.09 1002.65L1887.11 997.408L1887.15 997.386C1888.01 996.938 1889.06 997.267 1889.51 998.122C1889.96 998.976 1889.63 1000.03 1888.77 1000.48L1888.77 1000.48Z" fill="#7D97F4"/>
<path d="M1868.42 1010.77L1858.04 1015.5C1857.17 1015.9 1856.14 1015.52 1855.75 1014.65C1855.35 1013.78 1855.73 1012.75 1856.6 1012.35L1856.64 1012.33L1866.93 1007.62L1866.97 1007.61C1867.84 1007.21 1868.87 1007.59 1869.27 1008.46C1869.67 1009.34 1869.29 1010.37 1868.42 1010.77Z" fill="#7D97F4"/>
<path d="M1847.56 1019.99L1836.97 1024.22C1836.09 1024.58 1835.08 1024.15 1834.73 1023.27C1834.38 1022.38 1834.81 1021.38 1835.69 1021.03L1835.72 1021.01L1846.23 1016.79L1846.27 1016.78C1847.15 1016.42 1848.16 1016.85 1848.52 1017.74C1848.87 1018.62 1848.44 1019.63 1847.56 1019.99Z" fill="#7D97F4"/>
<path d="M1826.3 1028.23L1815.55 1032.01C1814.66 1032.32 1813.68 1031.85 1813.36 1030.96C1813.05 1030.07 1813.52 1029.09 1814.41 1028.77L1814.44 1028.76L1825.13 1025L1825.16 1024.98C1826.06 1024.67 1827.04 1025.14 1827.35 1026.03C1827.67 1026.93 1827.2 1027.91 1826.3 1028.23L1826.3 1028.23Z" fill="#7D97F4"/>
<path d="M1600.37 167.429L1606.4 204.2L1578.9 192.474L1600.37 167.429Z" fill="#7D97F4"/>
<path d="M1431.56 173.431L1545.14 244.255C1547.32 245.611 1549.95 246.024 1552.43 245.398C1554.92 244.772 1557.04 243.162 1558.32 240.938L1625.13 124.218C1625.89 122.882 1625.77 121.215 1624.82 120.004C1623.87 118.793 1622.28 118.281 1620.8 118.709L1431.56 173.431Z" fill="#91B3FA"/>
<path d="M1600.36 167.435L1431.56 173.431L1589.64 186.305L1591.74 196.431L1600.36 167.435Z" fill="#7D97F4"/>
<path d="M1583.19 197.445L1606.4 204.2L1589.64 186.305L1583.19 197.445Z" fill="#7D97F4"/>
<path d="M1895.29 1164.88H1877.62V1355.97H1895.29V1164.88Z" fill="#7D97F4"/>
<path d="M1963.83 1359.65H1809.07V1350.84C1809.07 1349.36 1810.27 1348.15 1811.76 1348.15H1960.93C1962.53 1348.15 1963.83 1349.45 1963.83 1351.05V1359.65Z" fill="#7D97F4"/>
<path d="M1993.1 1157.83C1993.1 1168.94 1984.01 1178.02 1972.9 1178.02H1806.49C1795.39 1178.02 1786.3 1168.94 1786.3 1157.83V1139.57C1786.3 1128.46 1795.39 1119.37 1806.49 1119.37H1972.9C1984.01 1119.37 1993.1 1128.46 1993.1 1139.57V1157.83Z" fill="url(#paint60_linear_85_5)"/>
<path d="M1788.03 1322.12C1788.03 1322.12 1737.57 1358.49 1746.33 1382.92C1746.33 1382.92 1801.54 1359.1 1808.21 1340.34C1814.88 1321.57 1807.08 1313.29 1807.08 1313.29L1788.03 1322.12Z" fill="url(#paint61_linear_85_5)"/>
<path d="M1795.61 1291.63L1803.86 1315.49C1805.11 1319.09 1803.86 1323.18 1800.64 1325.22C1799.03 1326.24 1796.83 1327.18 1793.82 1327.86C1789.57 1328.83 1785.18 1326.86 1783.13 1323.01L1773.26 1304.43L1795.61 1291.63Z" fill="url(#paint62_linear_85_5)"/>
<path d="M1875.9 1076.95C1875.9 1076.95 1772.27 1094.91 1727.81 1135.98C1683.35 1177.05 1768.61 1308.05 1768.61 1308.05C1768.61 1308.05 1782.58 1307.96 1799.51 1293.45C1799.51 1293.45 1748.96 1194.93 1792.53 1166.2C1841.51 1133.89 1897.96 1126.62 1897.96 1126.62L1876.91 1080.11L1875.9 1076.95Z" fill="url(#paint63_linear_85_5)"/>
<path d="M1755.1 1369.41C1766.2 1364.27 1797.62 1342.28 1802.92 1341.31C1808.21 1340.34 1817.4 1346.56 1817.4 1346.56C1817.4 1346.56 1819.63 1350.58 1817.24 1357.59C1809.87 1366.51 1793.49 1383.52 1771.48 1389.86C1755.29 1394.52 1743.96 1390.18 1736.91 1385.09C1740.79 1379.18 1747.71 1372.83 1755.1 1369.41Z" fill="url(#paint64_linear_85_5)"/>
<path d="M1771.48 1389.86C1793.49 1383.52 1809.87 1366.51 1817.24 1357.59C1815.63 1362.33 1811.9 1368.43 1803.94 1375.58C1784.21 1393.32 1746.51 1399.71 1738.49 1398.48C1732.06 1397.49 1732.66 1391.56 1736.91 1385.09C1743.96 1390.18 1755.29 1394.52 1771.48 1389.86Z" fill="url(#paint65_linear_85_5)"/>
<path d="M1826.81 1331.04C1826.68 1334.1 1820.43 1344.58 1816.78 1350.46C1815.05 1353.26 1812 1354.97 1808.71 1354.98C1806.63 1354.98 1804.23 1354.8 1802.05 1354.18C1798.78 1353.24 1796.94 1349.75 1797.9 1346.49L1805.03 1322.12L1826.81 1331.04Z" fill="url(#paint66_linear_85_5)"/>
<path d="M1975.67 1045.84C1975.67 1045.84 1998.68 1107.38 1975.67 1126.1C1952.65 1144.81 1897.74 1165.89 1885.48 1203.16C1873.21 1240.44 1852.39 1312.89 1824.54 1338.55C1824.54 1338.55 1804.97 1336.65 1797.64 1328.85C1797.64 1328.85 1813.51 1220.7 1823.97 1192.95C1833.03 1168.92 1846.38 1134.23 1871.97 1114.84C1879.29 1109.29 1878.02 1100.5 1874.62 1091.96L1868.44 1076.41L1975.67 1045.84Z" fill="url(#paint67_linear_85_5)"/>
<path d="M1735.62 997.601C1774.21 999.928 1762.18 938.273 1761.49 935.821L1820.06 977.193C1820.06 977.193 1816.96 1010.16 1768.26 1027.46C1755.94 1031.83 1744.68 1032.03 1734.72 1029.89C1738.97 1017.51 1738.11 1006.4 1735.62 997.601Z" fill="url(#paint68_linear_85_5)"/>
<path d="M1661 979.045C1675.38 969.042 1691.67 979.045 1691.67 979.045C1710.9 991.621 1725.12 996.969 1735.62 997.602C1738.11 1006.4 1738.97 1017.51 1734.72 1029.89C1713.18 1025.26 1697.77 1009.67 1691.08 1001.67C1688.66 998.79 1684.4 998.29 1681.45 1000.62C1678.45 1002.98 1675.54 1006.22 1676.07 1009.63C1677.11 1016.35 1669.31 1018.48 1668.73 1016.05C1668.14 1013.61 1671.39 999.161 1671.39 999.161C1671.39 999.161 1655.8 1014.85 1649.71 1020.87C1643.62 1026.9 1635.96 1020.87 1635.96 1020.87C1635.96 1020.87 1646.61 989.048 1661 979.045Z" fill="url(#paint69_linear_85_5)"/>
<path d="M1915.57 840.607C1915.57 840.607 1859.42 818.127 1754.93 904.39C1754.93 904.39 1746.21 922.455 1755.73 938.535C1765.25 954.615 1855.97 1032.96 1868.44 1076.41C1868.44 1076.41 1922.48 1093.97 1978.38 1052.33C1978.38 1052.33 1973.44 931.406 1915.57 840.607Z" fill="url(#paint70_linear_85_5)"/>
<path d="M1804.57 820.545L1832.21 854.051C1834.96 857.378 1835.56 862.005 1833.66 865.877C1829.83 873.703 1820.73 885.095 1800.54 883.52C1794.53 883.051 1789.22 879.428 1786.59 874.005L1767.27 834.055L1804.57 820.545Z" fill="url(#paint71_linear_85_5)"/>
<path d="M1959.04 984.106C1965.55 957.562 1899.53 898.384 1899.53 898.384L1915.57 840.606C1915.57 840.606 2058.12 935.507 2021.79 1011.82C2016.59 1022.76 2009.67 1030.43 2001.65 1035.55C1990.17 1004.65 1971.88 990.483 1959.04 984.106Z" fill="url(#paint72_linear_85_5)"/>
<path d="M1959.08 980.242C1959.78 980.242 1960.42 979.767 1960.59 979.054C1967.26 951.914 1903.34 894.242 1900.62 891.799C1899.98 891.226 1898.99 891.277 1898.42 891.919C1897.84 892.56 1897.9 893.548 1898.54 894.122C1899.19 894.707 1963.79 952.974 1957.56 978.31C1957.36 979.147 1957.87 979.991 1958.71 980.196C1958.83 980.228 1958.96 980.242 1959.08 980.242Z" fill="url(#paint73_linear_85_5)"/>
<path d="M1859.04 981.822C1859.04 981.822 1937.31 1012.21 1956.42 989.353C1957.72 987.803 1958.56 986.038 1959.03 984.106C1971.88 990.483 1990.17 1004.65 2001.65 1035.55C1960.48 1061.86 1890.12 1020.92 1871.09 1008.85C1867.96 1006.86 1864.2 1006.17 1860.57 1006.92C1853.24 1008.44 1840.56 1010.68 1833.72 1009.63C1823.72 1008.08 1809.35 1043.37 1793.14 1032.48C1793.14 1032.48 1807.02 971.156 1859.04 981.822Z" fill="url(#paint74_linear_85_5)"/>
<path d="M1744.43 771.33C1744.16 772.407 1750.91 845.65 1750.91 845.65L1792.65 840.903L1796.56 770.532C1796.56 770.532 1749.09 753.296 1744.43 771.33Z" fill="url(#paint75_linear_85_5)"/>
<path d="M1785.69 785.116L1786.53 822.322C1786.55 822.799 1786.49 823.264 1786.37 823.726C1785.65 826.556 1782.44 836.106 1772.86 832.224C1764.18 828.701 1756.2 825.615 1750.33 826.729C1747.7 827.229 1745.88 829.642 1746.12 832.312C1746.74 838.966 1748.4 853.936 1751.84 866.721C1752.53 869.315 1755.11 870.921 1757.76 870.455C1765.73 869.051 1782.46 865.619 1795.27 859.706C1797.01 858.905 1798.17 857.24 1798.3 855.332C1798.92 846.031 1800.93 817.771 1802.71 809.983C1804.38 802.672 1813.95 799.234 1818.07 798.077C1819.42 797.698 1820.55 796.789 1821.21 795.55C1823.54 791.169 1827.23 780.844 1814.34 775.033C1811.65 773.817 1810.5 770.64 1811.8 767.982C1814.38 762.69 1816.14 754.375 1806.31 748.608C1796.32 742.747 1787.86 747.486 1783.13 751.572C1781.21 753.225 1778.43 753.203 1776.46 751.627C1775.33 750.73 1773.8 750.308 1771.79 751.274C1769.08 752.577 1765.83 751.13 1764.82 748.299C1762.87 742.859 1758.35 736.765 1747.87 737.397C1729.28 738.52 1724.99 758.517 1728.5 770.896C1732.02 783.275 1752.11 780.912 1762.59 776.016C1770.57 772.294 1779.74 778.119 1783.68 781.125C1784.92 782.078 1785.66 783.547 1785.69 785.116Z" fill="url(#paint76_linear_85_5)"/>
<path d="M1802.88 823.532C1802.88 823.532 1797.68 801.699 1805.95 797.399C1814.23 793.1 1825.35 797.025 1821.17 811.969C1815.96 830.558 1802.88 823.532 1802.88 823.532Z" fill="url(#paint77_linear_85_5)"/>
<path d="M1818.94 1041.75C1818.81 1041.76 1818.69 1041.76 1818.56 1041.76L1654.33 1041.58C1650.27 1041.58 1646.99 1038.28 1646.99 1034.22C1646.99 1030.16 1650.3 1026.81 1654.35 1026.88L1818.58 1027.06C1822.64 1027.06 1825.93 1030.36 1825.92 1034.42C1825.92 1038.35 1822.82 1041.56 1818.94 1041.75Z" fill="url(#paint78_linear_85_5)"/>
<path d="M1506.7 892.641H1643.47C1653.56 892.641 1662.74 898.463 1667.05 907.589L1730.28 1041.66H1560.31C1553.8 1041.66 1547.96 1037.69 1545.57 1031.64L1496.54 907.578C1493.71 900.409 1498.99 892.641 1506.7 892.641Z" fill="url(#paint79_linear_85_5)"/>
<path d="M1528.87 1393.99C1527.96 1393.99 1527.04 1393.81 1526.15 1393.44C1522.65 1391.99 1521.03 1388.06 1522.54 1384.67L1667.27 1058.92C1668.78 1055.53 1672.84 1053.97 1676.34 1055.42C1679.84 1056.88 1681.46 1060.81 1679.95 1064.2L1535.22 1389.95C1534.09 1392.47 1531.55 1393.99 1528.87 1393.99Z" fill="url(#paint80_linear_85_5)"/>
<path d="M1691.93 1393.99C1689.25 1393.99 1686.71 1392.48 1685.58 1389.95L1540.84 1064.2C1539.34 1060.81 1540.96 1056.88 1544.46 1055.42C1547.96 1053.97 1552.02 1055.53 1553.52 1058.92L1698.26 1384.67C1699.77 1388.06 1698.15 1391.99 1694.65 1393.44C1693.76 1393.81 1692.84 1393.99 1691.93 1393.99Z" fill="url(#paint81_linear_85_5)"/>
<path d="M1976.9 1393.99C1975.99 1393.99 1975.06 1393.81 1974.17 1393.44C1970.67 1391.99 1969.06 1388.06 1970.56 1384.67L2115.3 1058.92C2116.81 1055.53 2120.86 1053.97 2124.37 1055.42C2127.87 1056.88 2129.49 1060.81 2127.98 1064.2L1983.24 1389.95C1982.12 1392.47 1979.57 1393.99 1976.9 1393.99Z" fill="url(#paint82_linear_85_5)"/>
<path d="M2139.95 1393.99C2137.27 1393.99 2134.73 1392.48 2133.61 1389.95L1988.87 1064.2C1987.36 1060.81 1988.98 1056.88 1992.48 1055.42C1995.98 1053.97 2000.04 1055.53 2001.55 1058.92L2146.28 1384.67C2147.79 1388.06 2146.17 1391.99 2142.67 1393.44C2141.78 1393.81 2140.86 1393.99 2139.95 1393.99Z" fill="url(#paint83_linear_85_5)"/>
<path d="M2156.93 1048.86C2157.3 1046.73 2156.79 1044.52 2155.56 1042.84C2154.32 1041.16 2152.48 1040.19 2150.53 1040.19H1492.08C1489.53 1040.19 1487.15 1041.65 1485.77 1044.06C1484.39 1046.47 1484.21 1049.5 1485.28 1052.1L1492.41 1069.39C1494.05 1073.35 1497.59 1075.88 1501.48 1075.88H2146.01C2149.64 1075.88 2152.75 1073.01 2153.44 1069.02L2156.93 1048.86Z" fill="url(#paint84_linear_85_5)"/>
<path d="M366.727 1142.64L78.6199 1302.45C66.5369 1309.15 62.7239 1324.72 70.3449 1336.25L71.5959 1338.14C78.3389 1348.34 92.0949 1351.1 102.249 1344.29L377.349 1159.83L366.727 1142.64Z" fill="url(#paint85_linear_85_5)"/>
<path opacity="0.42" d="M647.587 1029.44C660.577 1111.3 603.529 1188.38 520.167 1201.61C436.805 1214.84 358.696 1159.2 345.706 1077.35C332.716 995.488 389.764 918.405 473.126 905.177C556.488 891.948 634.597 947.584 647.587 1029.44Z" fill="url(#paint86_linear_85_5)"/>
<path d="M470.474 888.468C377.715 903.188 314.236 988.961 328.69 1080.05C343.144 1171.13 430.059 1233.04 522.818 1218.32C615.578 1203.6 679.057 1117.83 664.602 1026.74C650.148 935.656 563.234 873.748 470.474 888.468ZM518.974 1194.09C439.84 1206.65 365.693 1153.84 353.362 1076.13C341.031 998.426 395.185 925.253 474.319 912.695C553.453 900.137 627.6 952.951 639.931 1030.66C652.261 1108.36 598.108 1181.54 518.974 1194.09Z" fill="url(#paint87_linear_85_5)"/>
<path d="M344.523 1098.46C344.03 1098.46 343.578 1098.14 343.432 1097.64C342.313 1093.82 341.331 1089.89 340.511 1085.98C340.382 1085.37 340.775 1084.76 341.39 1084.64C342.001 1084.49 342.606 1084.9 342.735 1085.51C343.543 1089.37 344.512 1093.24 345.614 1097C345.79 1097.61 345.444 1098.24 344.842 1098.41C344.735 1098.44 344.629 1098.46 344.523 1098.46ZM338.357 1052.16C338.349 1052.16 338.341 1052.16 338.334 1052.16C337.707 1052.15 337.209 1051.63 337.221 1051C337.441 1040.09 338.833 1029.18 341.361 1018.55C341.361 1018.55 341.362 1018.55 341.362 1018.55C356.252 955.974 407.569 908.925 472.096 898.684C502.181 893.91 532.762 897.625 560.52 909.435C561.097 909.681 561.367 910.347 561.12 910.924C560.875 911.503 560.209 911.774 559.63 911.525C532.266 899.884 502.117 896.22 472.452 900.929C408.838 911.023 358.249 957.398 343.571 1019.08C343.571 1019.08 343.57 1019.08 343.57 1019.08C341.08 1029.55 339.708 1040.3 339.493 1051.04C339.481 1051.66 338.974 1052.16 338.357 1052.16Z" fill="#BDD0FB"/>
<path d="M90.8535 1341.69C90.7875 1341.69 90.7215 1341.69 90.6535 1341.68C78.0555 1339.44 74.1595 1332.83 73.1125 1327.67C71.5785 1320.14 75.2265 1312.34 82.1885 1308.27L116.63 1288.13C117.173 1287.82 117.866 1288 118.185 1288.54C118.501 1289.08 118.319 1289.78 117.778 1290.09L83.3365 1310.23C77.2145 1313.81 74.0005 1320.64 75.3385 1327.22C76.6585 1333.71 81.9455 1337.82 91.0505 1339.44C91.6685 1339.55 92.0805 1340.14 91.9705 1340.76C91.8735 1341.31 91.3945 1341.69 90.8535 1341.69Z" fill="#BDD0FB"/>
<path d="M127.819 1284.04C127.428 1284.04 127.049 1283.84 126.837 1283.48C126.521 1282.93 126.703 1282.24 127.244 1281.92L131.707 1279.31C132.247 1279 132.943 1279.18 133.262 1279.72C133.578 1280.26 133.396 1280.96 132.855 1281.27L128.392 1283.88C128.21 1283.99 128.014 1284.04 127.819 1284.04Z" fill="#BDD0FB"/>
<defs>
<linearGradient id="paint0_linear_85_5" x1="16.89" y1="661.523" x2="2281.6" y2="661.523" gradientUnits="userSpaceOnUse">
<stop stop-color="#DAE3FE"/>
<stop offset="1" stop-color="#E9EFFD"/>
</linearGradient>
<linearGradient id="paint1_linear_85_5" x1="494.533" y1="1407.89" x2="1362.74" y2="403.319" gradientUnits="userSpaceOnUse">
<stop stop-color="#09005D"/>
<stop offset="1" stop-color="#1A0F91"/>
</linearGradient>
<linearGradient id="paint2_linear_85_5" x1="633.507" y1="705.788" x2="1609.77" y2="705.788" gradientUnits="userSpaceOnUse">
<stop stop-color="#DAE3FE"/>
<stop offset="1" stop-color="#E9EFFD"/>
</linearGradient>
<linearGradient id="paint3_linear_85_5" x1="1272.02" y1="416.734" x2="1476.56" y2="682.639" gradientUnits="userSpaceOnUse">
<stop stop-color="#4042E2"/>
<stop offset="1" stop-color="#4F52FF"/>
</linearGradient>
<linearGradient id="paint4_linear_85_5" x1="378.566" y1="237.145" x2="706.565" y2="229.145" gradientUnits="userSpaceOnUse">
<stop stop-color="#4042E2"/>
<stop offset="1" stop-color="#4F52FF"/>
</linearGradient>
<linearGradient id="paint5_linear_85_5" x1="1224.51" y1="1304.96" x2="1429.05" y2="1570.86" gradientUnits="userSpaceOnUse">
<stop stop-color="#4042E2"/>
<stop offset="1" stop-color="#4F52FF"/>
</linearGradient>
<linearGradient id="paint6_linear_85_5" x1="1087.33" y1="702.337" x2="1116.88" y2="1097.79" gradientUnits="userSpaceOnUse">
<stop stop-color="#4042E2"/>
<stop offset="1" stop-color="#4F52FF"/>
</linearGradient>
<linearGradient id="paint7_linear_85_5" x1="800.206" y1="682.755" x2="1057.02" y2="577.075" gradientUnits="userSpaceOnUse">
<stop stop-color="#E1473D"/>
<stop offset="1" stop-color="#E9605A"/>
</linearGradient>
<linearGradient id="paint8_linear_85_5" x1="1117.38" y1="735.442" x2="1120.41" y2="515.748" gradientUnits="userSpaceOnUse">
<stop stop-color="#FE7062"/>
<stop offset="1" stop-color="#FF928E"/>
</linearGradient>
<linearGradient id="paint9_linear_85_5" x1="1268.27" y1="652.598" x2="1326.61" y2="720.021" gradientUnits="userSpaceOnUse">
<stop stop-color="#4042E2"/>
<stop offset="1" stop-color="#4F52FF"/>
</linearGradient>
<linearGradient id="paint10_linear_85_5" x1="1414.05" y1="930.885" x2="1414.05" y2="762.706" gradientUnits="userSpaceOnUse">
<stop stop-color="#FE7062"/>
<stop offset="1" stop-color="#FF928E"/>
</linearGradient>
<linearGradient id="paint11_linear_85_5" x1="975.097" y1="652.598" x2="1033.43" y2="720.021" gradientUnits="userSpaceOnUse">
<stop stop-color="#4042E2"/>
<stop offset="1" stop-color="#4F52FF"/>
</linearGradient>
<linearGradient id="paint12_linear_85_5" x1="1120.87" y1="930.885" x2="1120.87" y2="762.706" gradientUnits="userSpaceOnUse">
<stop stop-color="#FE7062"/>
<stop offset="1" stop-color="#FF928E"/>
</linearGradient>
<linearGradient id="paint13_linear_85_5" x1="675.102" y1="652.598" x2="733.434" y2="720.021" gradientUnits="userSpaceOnUse">
<stop stop-color="#4042E2"/>
<stop offset="1" stop-color="#4F52FF"/>
</linearGradient>
<linearGradient id="paint14_linear_85_5" x1="820.875" y1="930.885" x2="820.875" y2="762.706" gradientUnits="userSpaceOnUse">
<stop stop-color="#FE7062"/>
<stop offset="1" stop-color="#FF928E"/>
</linearGradient>
<linearGradient id="paint15_linear_85_5" x1="1139.7" y1="410.095" x2="1103.27" y2="333.511" gradientUnits="userSpaceOnUse">
<stop stop-color="#09005D"/>
<stop offset="1" stop-color="#1A0F91"/>
</linearGradient>
<linearGradient id="paint16_linear_85_5" x1="1111.94" y1="413.915" x2="1134.71" y2="403.084" gradientUnits="userSpaceOnUse">
<stop stop-color="#09005D"/>
<stop offset="1" stop-color="#1A0F91"/>
</linearGradient>
<linearGradient id="paint17_linear_85_5" x1="1135.29" y1="732.642" x2="1107.68" y2="674.59" gradientUnits="userSpaceOnUse">
<stop stop-color="#09005D"/>
<stop offset="1" stop-color="#1A0F91"/>
</linearGradient>
<linearGradient id="paint18_linear_85_5" x1="1111.94" y1="734.365" x2="1134.71" y2="723.534" gradientUnits="userSpaceOnUse">
<stop stop-color="#09005D"/>
<stop offset="1" stop-color="#1A0F91"/>
</linearGradient>
<linearGradient id="paint19_linear_85_5" x1="1134.71" y1="1037.57" x2="1099.16" y2="962.837" gradientUnits="userSpaceOnUse">
<stop stop-color="#09005D"/>
<stop offset="1" stop-color="#1A0F91"/>
</linearGradient>
<linearGradient id="paint20_linear_85_5" x1="1108.45" y1="1041.18" x2="1131.21" y2="1030.35" gradientUnits="userSpaceOnUse">
<stop stop-color="#09005D"/>
<stop offset="1" stop-color="#1A0F91"/>
</linearGradient>
<linearGradient id="paint21_linear_85_5" x1="997.618" y1="542.267" x2="775.526" y2="647.916" gradientUnits="userSpaceOnUse">
<stop stop-color="#09005D"/>
<stop offset="1" stop-color="#1A0F91"/>
</linearGradient>
<linearGradient id="paint22_linear_85_5" x1="800.582" y1="723.001" x2="823.35" y2="712.17" gradientUnits="userSpaceOnUse">
<stop stop-color="#09005D"/>
<stop offset="1" stop-color="#1A0F91"/>
</linearGradient>
<linearGradient id="paint23_linear_85_5" x1="1247.62" y1="542.267" x2="1469.71" y2="647.916" gradientUnits="userSpaceOnUse">
<stop stop-color="#09005D"/>
<stop offset="1" stop-color="#1A0F91"/>
</linearGradient>
<linearGradient id="paint24_linear_85_5" x1="1443.49" y1="723.001" x2="1420.72" y2="712.17" gradientUnits="userSpaceOnUse">
<stop stop-color="#09005D"/>
<stop offset="1" stop-color="#1A0F91"/>
</linearGradient>
<linearGradient id="paint25_linear_85_5" x1="804.441" y1="926.908" x2="1436.25" y2="926.908" gradientUnits="userSpaceOnUse">
<stop stop-color="#09005D"/>
<stop offset="1" stop-color="#1A0F91"/>
</linearGradient>
<linearGradient id="paint26_linear_85_5" x1="1020.13" y1="128.071" x2="638.322" y2="200.797" gradientUnits="userSpaceOnUse">
<stop stop-color="#4042E2"/>
<stop offset="1" stop-color="#4F52FF"/>
</linearGradient>
<linearGradient id="paint27_linear_85_5" x1="1020.13" y1="193.979" x2="638.322" y2="266.705" gradientUnits="userSpaceOnUse">
<stop stop-color="#4042E2"/>
<stop offset="1" stop-color="#4F52FF"/>
</linearGradient>
<linearGradient id="paint28_linear_85_5" x1="1491.52" y1="538.345" x2="2061.8" y2="538.345" gradientUnits="userSpaceOnUse">
<stop stop-color="#4042E2"/>
<stop offset="1" stop-color="#4F52FF"/>
</linearGradient>
<linearGradient id="paint29_linear_85_5" x1="1521.49" y1="545.833" x2="2036.38" y2="545.833" gradientUnits="userSpaceOnUse">
<stop stop-color="#DAE3FE"/>
<stop offset="1" stop-color="#E9EFFD"/>
</linearGradient>
<linearGradient id="paint30_linear_85_5" x1="566.199" y1="441.619" x2="-86.7595" y2="2142.18" gradientUnits="userSpaceOnUse">
<stop stop-color="#4042E2"/>
<stop offset="1" stop-color="#4F52FF"/>
</linearGradient>
<linearGradient id="paint31_linear_85_5" x1="168.336" y1="732.819" x2="480.988" y2="732.819" gradientUnits="userSpaceOnUse">
<stop stop-color="#DAE3FE"/>
<stop offset="1" stop-color="#E9EFFD"/>
</linearGradient>
<linearGradient id="paint32_linear_85_5" x1="201.52" y1="766.933" x2="476.849" y2="766.933" gradientUnits="userSpaceOnUse">
<stop stop-color="#DAE3FE"/>
<stop offset="1" stop-color="#E9EFFD"/>
</linearGradient>
<linearGradient id="paint33_linear_85_5" x1="144.011" y1="1057.09" x2="549.42" y2="1057.09" gradientUnits="userSpaceOnUse">
<stop stop-color="#DAE3FE"/>
<stop offset="1" stop-color="#E9EFFD"/>
</linearGradient>
<linearGradient id="paint34_linear_85_5" x1="148.572" y1="846.068" x2="540.933" y2="846.068" gradientUnits="userSpaceOnUse">
<stop stop-color="#DAE3FE"/>
<stop offset="1" stop-color="#E9EFFD"/>
</linearGradient>
<linearGradient id="paint35_linear_85_5" x1="188.578" y1="1182.83" x2="236.334" y2="1182.83" gradientUnits="userSpaceOnUse">
<stop stop-color="#DAE3FE"/>
<stop offset="1" stop-color="#E9EFFD"/>
</linearGradient>
<linearGradient id="paint36_linear_85_5" x1="310.481" y1="1172.46" x2="358.864" y2="1172.46" gradientUnits="userSpaceOnUse">
<stop stop-color="#DAE3FE"/>
<stop offset="1" stop-color="#E9EFFD"/>
</linearGradient>
<linearGradient id="paint37_linear_85_5" x1="248.273" y1="1155.81" x2="296.028" y2="1155.81" gradientUnits="userSpaceOnUse">
<stop stop-color="#DAE3FE"/>
<stop offset="1" stop-color="#E9EFFD"/>
</linearGradient>
<linearGradient id="paint38_linear_85_5" x1="455.003" y1="1117.17" x2="502.759" y2="1117.17" gradientUnits="userSpaceOnUse">
<stop stop-color="#DAE3FE"/>
<stop offset="1" stop-color="#E9EFFD"/>
</linearGradient>
<linearGradient id="paint39_linear_85_5" x1="383.998" y1="1138.22" x2="431.754" y2="1138.22" gradientUnits="userSpaceOnUse">
<stop stop-color="#DAE3FE"/>
<stop offset="1" stop-color="#E9EFFD"/>
</linearGradient>
<linearGradient id="paint40_linear_85_5" x1="209.902" y1="989.929" x2="443.9" y2="989.929" gradientUnits="userSpaceOnUse">
<stop stop-color="#DAE3FE"/>
<stop offset="1" stop-color="#E9EFFD"/>
</linearGradient>
<linearGradient id="paint41_linear_85_5" x1="203.518" y1="1036.79" x2="217.189" y2="1036.79" gradientUnits="userSpaceOnUse">
<stop stop-color="#DAE3FE"/>
<stop offset="1" stop-color="#E9EFFD"/>
</linearGradient>
<linearGradient id="paint42_linear_85_5" x1="266.668" y1="1002.29" x2="280.339" y2="1002.29" gradientUnits="userSpaceOnUse">
<stop stop-color="#DAE3FE"/>
<stop offset="1" stop-color="#E9EFFD"/>
</linearGradient>
<linearGradient id="paint43_linear_85_5" x1="325.91" y1="1027.03" x2="339.582" y2="1027.03" gradientUnits="userSpaceOnUse">
<stop stop-color="#DAE3FE"/>
<stop offset="1" stop-color="#E9EFFD"/>
</linearGradient>
<linearGradient id="paint44_linear_85_5" x1="375.389" y1="978.202" x2="389.06" y2="978.202" gradientUnits="userSpaceOnUse">
<stop stop-color="#DAE3FE"/>
<stop offset="1" stop-color="#E9EFFD"/>
</linearGradient>
<linearGradient id="paint45_linear_85_5" x1="436.586" y1="943.047" x2="450.257" y2="943.047" gradientUnits="userSpaceOnUse">
<stop stop-color="#DAE3FE"/>
<stop offset="1" stop-color="#E9EFFD"/>
</linearGradient>
<linearGradient id="paint46_linear_85_5" x1="484.171" y1="1135.99" x2="821.414" y2="1618.53" gradientUnits="userSpaceOnUse">
<stop stop-color="#FE7062"/>
<stop offset="1" stop-color="#FF928E"/>
</linearGradient>
<linearGradient id="paint47_linear_85_5" x1="442.722" y1="364.348" x2="520.729" y2="907.402" gradientUnits="userSpaceOnUse">
<stop stop-color="#FF928E"/>
<stop offset="1" stop-color="#FEB3B1"/>
</linearGradient>
<linearGradient id="paint48_linear_85_5" x1="420.552" y1="1201.28" x2="708.375" y2="1201.28" gradientUnits="userSpaceOnUse">
<stop stop-color="#FE7062"/>
<stop offset="1" stop-color="#FF928E"/>
</linearGradient>
<linearGradient id="paint49_linear_85_5" x1="424.628" y1="1244.28" x2="699.468" y2="1244.28" gradientUnits="userSpaceOnUse">
<stop stop-color="#FE7062"/>
<stop offset="1" stop-color="#FF928E"/>
</linearGradient>
<linearGradient id="paint50_linear_85_5" x1="614.923" y1="-284.094" x2="384.726" y2="55.6141" gradientUnits="userSpaceOnUse">
<stop stop-color="#4042E2"/>
<stop offset="1" stop-color="#4F52FF"/>
</linearGradient>
<linearGradient id="paint51_linear_85_5" x1="92.9299" y1="647.65" x2="-60.0856" y2="977.682" gradientUnits="userSpaceOnUse">
<stop stop-color="#4042E2"/>
<stop offset="1" stop-color="#4F52FF"/>
</linearGradient>
<linearGradient id="paint52_linear_85_5" x1="428.17" y1="43.0135" x2="398.167" y2="400.049" gradientUnits="userSpaceOnUse">
<stop stop-color="#E1473D"/>
<stop offset="1" stop-color="#E9605A"/>
</linearGradient>
<linearGradient id="paint53_linear_85_5" x1="343.898" y1="499.672" x2="146.48" y2="621.103" gradientUnits="userSpaceOnUse">
<stop stop-color="#FE7062"/>
<stop offset="1" stop-color="#FF928E"/>
</linearGradient>
<linearGradient id="paint54_linear_85_5" x1="408.383" y1="505.627" x2="465.746" y2="598.749" gradientUnits="userSpaceOnUse">
<stop stop-color="#E1473D"/>
<stop offset="1" stop-color="#E9605A"/>
</linearGradient>
<linearGradient id="paint55_linear_85_5" x1="513.702" y1="474.775" x2="653.756" y2="488.185" gradientUnits="userSpaceOnUse">
<stop stop-color="#E1473D"/>
<stop offset="1" stop-color="#E9605A"/>
</linearGradient>
<linearGradient id="paint56_linear_85_5" x1="669.698" y1="535.853" x2="678.699" y2="871.886" gradientUnits="userSpaceOnUse">
<stop stop-color="#FE7062"/>
<stop offset="1" stop-color="#FF928E"/>
</linearGradient>
<linearGradient id="paint57_linear_85_5" x1="1161.45" y1="25.2542" x2="837.418" y2="346.286" gradientUnits="userSpaceOnUse">
<stop stop-color="#E1473D"/>
<stop offset="1" stop-color="#E9605A"/>
</linearGradient>
<linearGradient id="paint58_linear_85_5" x1="-275.221" y1="503.024" x2="221.677" y2="493.339" gradientUnits="userSpaceOnUse">
<stop stop-color="#FE7062"/>
<stop offset="1" stop-color="#FF928E"/>
</linearGradient>
<linearGradient id="paint59_linear_85_5" x1="730.987" y1="620.061" x2="820.996" y2="899.089" gradientUnits="userSpaceOnUse">
<stop stop-color="#FE7062"/>
<stop offset="1" stop-color="#FF928E"/>
</linearGradient>
<linearGradient id="paint60_linear_85_5" x1="1856.71" y1="1356.24" x2="1897.29" y2="1100.92" gradientUnits="userSpaceOnUse">
<stop stop-color="#FE7062"/>
<stop offset="1" stop-color="#FF928E"/>
</linearGradient>
<linearGradient id="paint61_linear_85_5" x1="1800.6" y1="1450.64" x2="1863.6" y2="1729.63" gradientUnits="userSpaceOnUse">
<stop stop-color="#09005D"/>
<stop offset="1" stop-color="#1A0F91"/>
</linearGradient>
<linearGradient id="paint62_linear_85_5" x1="1804.34" y1="1309.87" x2="1773.26" y2="1309.87" gradientUnits="userSpaceOnUse">
<stop stop-color="#FF928E"/>
<stop offset="1" stop-color="#FEB3B1"/>
</linearGradient>
<linearGradient id="paint63_linear_85_5" x1="1847.34" y1="1227.65" x2="1715.29" y2="1042.57" gradientUnits="userSpaceOnUse">
<stop stop-color="#09005D"/>
<stop offset="1" stop-color="#1A0F91"/>
</linearGradient>
<linearGradient id="paint64_linear_85_5" x1="1776.12" y1="1165.94" x2="1777.62" y2="1366.93" gradientUnits="userSpaceOnUse">
<stop stop-color="#09005D"/>
<stop offset="1" stop-color="#1A0F91"/>
</linearGradient>
<linearGradient id="paint65_linear_85_5" x1="1817.24" y1="1378.11" x2="1733.69" y2="1378.11" gradientUnits="userSpaceOnUse">
<stop stop-color="#4042E2"/>
<stop offset="1" stop-color="#4F52FF"/>
</linearGradient>
<linearGradient id="paint66_linear_85_5" x1="1826.81" y1="1338.55" x2="1797.64" y2="1338.55" gradientUnits="userSpaceOnUse">
<stop stop-color="#FF928E"/>
<stop offset="1" stop-color="#FEB3B1"/>
</linearGradient>
<linearGradient id="paint67_linear_85_5" x1="1894.93" y1="1319.88" x2="1887.66" y2="1072.41" gradientUnits="userSpaceOnUse">
<stop stop-color="#09005D"/>
<stop offset="1" stop-color="#1A0F91"/>
</linearGradient>
<linearGradient id="paint68_linear_85_5" x1="1714.52" y1="1079.21" x2="1786.27" y2="966.915" gradientUnits="userSpaceOnUse">
<stop stop-color="#4042E2"/>
<stop offset="1" stop-color="#4F52FF"/>
</linearGradient>
<linearGradient id="paint69_linear_85_5" x1="1737.7" y1="1002.24" x2="1635.96" y2="1002.24" gradientUnits="userSpaceOnUse">
<stop stop-color="#FF928E"/>
<stop offset="1" stop-color="#FEB3B1"/>
</linearGradient>
<linearGradient id="paint70_linear_85_5" x1="1784.62" y1="880.411" x2="2013.37" y2="1046.77" gradientUnits="userSpaceOnUse">
<stop stop-color="#4042E2"/>
<stop offset="1" stop-color="#4F52FF"/>
</linearGradient>
<linearGradient id="paint71_linear_85_5" x1="1834.76" y1="852.106" x2="1767.27" y2="852.106" gradientUnits="userSpaceOnUse">
<stop stop-color="#FF928E"/>
<stop offset="1" stop-color="#FEB3B1"/>
</linearGradient>
<linearGradient id="paint72_linear_85_5" x1="1817.42" y1="835.305" x2="2046.17" y2="1001.67" gradientUnits="userSpaceOnUse">
<stop stop-color="#4042E2"/>
<stop offset="1" stop-color="#4F52FF"/>
</linearGradient>
<linearGradient id="paint73_linear_85_5" x1="1981.49" y1="938.81" x2="1781.85" y2="927.372" gradientUnits="userSpaceOnUse">
<stop stop-color="#09005D"/>
<stop offset="1" stop-color="#1A0F91"/>
</linearGradient>
<linearGradient id="paint74_linear_85_5" x1="2027.13" y1="912.933" x2="1851.64" y2="1062.93" gradientUnits="userSpaceOnUse">
<stop stop-color="#FF928E"/>
<stop offset="1" stop-color="#FEB3B1"/>
</linearGradient>
<linearGradient id="paint75_linear_85_5" x1="1895.6" y1="755.779" x2="1765.1" y2="805.277" gradientUnits="userSpaceOnUse">
<stop stop-color="#FF928E"/>
<stop offset="1" stop-color="#FEB3B1"/>
</linearGradient>
<linearGradient id="paint76_linear_85_5" x1="1816.02" y1="818.12" x2="1718.42" y2="792.932" gradientUnits="userSpaceOnUse">
<stop stop-color="#09005D"/>
<stop offset="1" stop-color="#1A0F91"/>
</linearGradient>
<linearGradient id="paint77_linear_85_5" x1="1857.92" y1="892.424" x2="1809.74" y2="808.276" gradientUnits="userSpaceOnUse">
<stop stop-color="#FF928E"/>
<stop offset="1" stop-color="#FEB3B1"/>
</linearGradient>
<linearGradient id="paint78_linear_85_5" x1="1846.8" y1="998.114" x2="1716.43" y2="1040.87" gradientUnits="userSpaceOnUse">
<stop stop-color="#09005D"/>
<stop offset="1" stop-color="#1A0F91"/>
</linearGradient>
<linearGradient id="paint79_linear_85_5" x1="1667.71" y1="912.635" x2="1573.83" y2="1011.87" gradientUnits="userSpaceOnUse">
<stop stop-color="#09005D"/>
<stop offset="1" stop-color="#1A0F91"/>
</linearGradient>
<linearGradient id="paint80_linear_85_5" x1="1521.97" y1="1224.43" x2="1680.52" y2="1224.43" gradientUnits="userSpaceOnUse">
<stop stop-color="#FE7062"/>
<stop offset="1" stop-color="#FF928E"/>
</linearGradient>
<linearGradient id="paint81_linear_85_5" x1="1540.28" y1="1224.43" x2="1698.83" y2="1224.43" gradientUnits="userSpaceOnUse">
<stop stop-color="#FE7062"/>
<stop offset="1" stop-color="#FF928E"/>
</linearGradient>
<linearGradient id="paint82_linear_85_5" x1="1970" y1="1224.43" x2="2128.54" y2="1224.43" gradientUnits="userSpaceOnUse">
<stop stop-color="#FE7062"/>
<stop offset="1" stop-color="#FF928E"/>
</linearGradient>
<linearGradient id="paint83_linear_85_5" x1="1988.31" y1="1224.43" x2="2146.85" y2="1224.43" gradientUnits="userSpaceOnUse">
<stop stop-color="#FE7062"/>
<stop offset="1" stop-color="#FF928E"/>
</linearGradient>
<linearGradient id="paint84_linear_85_5" x1="1484.59" y1="1058.04" x2="2157.05" y2="1058.04" gradientUnits="userSpaceOnUse">
<stop stop-color="#FE7062"/>
<stop offset="1" stop-color="#FF928E"/>
</linearGradient>
<linearGradient id="paint85_linear_85_5" x1="160.736" y1="1289" x2="465.97" y2="1024.85" gradientUnits="userSpaceOnUse">
<stop stop-color="#09005D"/>
<stop offset="1" stop-color="#1A0F91"/>
</linearGradient>
<linearGradient id="paint86_linear_85_5" x1="343.862" y1="1053.39" x2="649.43" y2="1053.39" gradientUnits="userSpaceOnUse">
<stop stop-color="#DAE3FE"/>
<stop offset="1" stop-color="#E9EFFD"/>
</linearGradient>
<linearGradient id="paint87_linear_85_5" x1="328.689" y1="1080.04" x2="664.603" y2="1026.74" gradientUnits="userSpaceOnUse">
<stop stop-color="#09005D"/>
<stop offset="1" stop-color="#1A0F91"/>
</linearGradient>
</defs>
</svg>
